<svg width="226" height="66" viewBox="0 0 226 66" fill="none" xmlns="http://www.w3.org/2000/svg">
<path d="M65.0054 47.4158V56.3861H63.4252V55.3809C63.2414 55.7258 62.96 56.009 62.6161 56.1953C62.2465 56.3945 61.8317 56.4953 61.4118 56.4878C60.9042 56.4958 60.4055 56.3542 59.9782 56.0806C59.5479 55.7981 59.2075 55.3986 58.997 54.9293C58.7546 54.3918 58.6349 53.8072 58.6466 53.2178C58.6335 52.6345 58.7533 52.0559 58.997 51.5256C59.2051 51.0636 59.5454 50.6733 59.9751 50.4039C60.4047 50.1345 60.9046 49.998 61.4118 50.0114C61.8282 50.0036 62.24 50.0998 62.6097 50.2913C62.9493 50.4696 63.2286 50.7441 63.4125 51.0803V47.4158H65.0054ZM63.011 54.7319C63.3133 54.2966 63.4593 53.772 63.4252 53.2434C63.4601 52.7166 63.314 52.1937 63.011 51.761C62.8709 51.5897 62.6923 51.4538 62.4897 51.3643C62.2872 51.2748 62.0663 51.2341 61.8451 51.2457C61.6216 51.2335 61.3984 51.2731 61.1927 51.3614C60.9871 51.4497 60.8047 51.5843 60.6599 51.7547C60.3534 52.1786 60.2047 52.6961 60.2394 53.2178C60.2065 53.7512 60.3547 54.2802 60.6599 54.7192C60.8064 54.886 60.9867 55.0199 61.1888 55.112C61.391 55.2041 61.6104 55.2523 61.8326 55.2535C62.0548 55.2547 62.2747 55.2088 62.4779 55.1189C62.681 55.029 62.8627 54.8971 63.011 54.7319V54.7319Z" fill="#D3D3D3"/>
<path d="M66.5602 47.2754H68.3186V48.8405H66.5602V47.2754ZM66.6494 56.3858V50.1639H68.2423V56.3858H66.6494Z" fill="#D3D3D3"/>
<path d="M75.9518 50.1639V55.8132C75.9518 56.7885 75.6821 57.5266 75.1426 58.0273C74.603 58.5275 73.8065 58.7778 72.7532 58.7781C72.2236 58.78 71.6962 58.7093 71.1859 58.568C70.7189 58.4436 70.2755 58.2437 69.8732 57.9763L70.3193 56.8568C71.0374 57.3073 71.8669 57.5496 72.715 57.5565C73.8194 57.5565 74.3716 57.0136 74.3717 55.9279V55.1135C74.1875 55.4586 73.9032 55.7402 73.5561 55.9213C73.1786 56.1173 72.7581 56.2158 72.3327 56.2078C71.8236 56.2172 71.3222 56.0826 70.8864 55.8196C70.4617 55.5564 70.1195 55.1795 69.8988 54.7317C69.6527 54.2291 69.5304 53.6751 69.542 53.1158C69.5308 52.5552 69.6508 51.9998 69.8924 51.4936C70.109 51.0414 70.452 50.6614 70.8799 50.3994C71.3183 50.1369 71.8216 50.0024 72.3327 50.0112C72.758 50.0032 73.1786 50.1016 73.5561 50.2973C73.9031 50.4787 74.1874 50.7603 74.3717 51.1054V50.1639L75.9518 50.1639ZM73.9447 54.4772C74.248 54.0903 74.3998 53.6064 74.3717 53.1158C74.4011 52.6212 74.2493 52.1329 73.9447 51.7418C73.7894 51.5846 73.6044 51.4597 73.4004 51.3746C73.1964 51.2894 72.9775 51.2455 72.7564 51.2455C72.5353 51.2455 72.3164 51.2894 72.1124 51.3746C71.9084 51.4597 71.7234 51.5846 71.5682 51.7418C71.2861 52.1411 71.1348 52.6177 71.1348 53.1063C71.1348 53.5949 71.2861 54.0716 71.5682 54.4709C71.7225 54.6294 71.907 54.7555 72.1108 54.8418C72.3146 54.9281 72.5337 54.9729 72.7551 54.9735C72.9765 54.974 73.1958 54.9305 73.4001 54.8452C73.6043 54.76 73.7895 54.6349 73.9447 54.4772Z" fill="#D3D3D3"/>
<path d="M77.5066 47.2754H79.265V48.8405H77.5066V47.2754ZM77.5958 56.3858V50.1639H79.1887V56.3858H77.5958Z" fill="#D3D3D3"/>
<path d="M84.6045 55.2531L84.528 56.4367C84.2731 56.4621 84.0395 56.4747 83.8271 56.4747C82.952 56.4747 82.3063 56.2733 81.8901 55.8704C81.6683 55.6288 81.4985 55.3444 81.3911 55.0347C81.2837 54.725 81.241 54.3966 81.2657 54.0698V51.3598H80.0679V50.1638H81.2657V48.3062H82.8586V50.1638H84.5024V51.3598H82.8586V54.0445C82.8586 54.8758 83.2452 55.2915 84.0183 55.2915C84.2143 55.2909 84.4101 55.2781 84.6045 55.2531Z" fill="#D3D3D3"/>
<path d="M90.1604 50.6476C90.5852 51.0717 90.7976 51.7248 90.7976 52.6069V56.3859H89.2811V55.4317C89.1422 55.7562 88.9035 56.028 88.5994 56.2078C88.2732 56.3986 87.9005 56.4954 87.5225 56.4876C87.1297 56.4929 86.7412 56.4058 86.3884 56.2331C86.0628 56.076 85.7855 55.8343 85.5856 55.5334C85.3908 55.2392 85.2887 54.8935 85.2925 54.5409C85.2701 54.1494 85.395 53.7636 85.6429 53.4594C85.9546 53.1553 86.353 52.9552 86.7834 52.8867C87.5015 52.751 88.2319 52.6914 88.9625 52.7086H89.2811V52.4161C89.3118 52.0869 89.2136 51.7585 89.0071 51.5C88.8813 51.3955 88.736 51.317 88.5796 51.2689C88.4233 51.2208 88.2589 51.2041 88.096 51.2199C87.7431 51.2234 87.3927 51.2814 87.0574 51.3916C86.6862 51.5109 86.3293 51.6709 85.9934 51.8689L85.5473 50.7746C86.3547 50.296 87.2719 50.0331 88.2106 50.0112C89.0855 50.0112 89.7355 50.2234 90.1604 50.6476ZM88.8796 54.9161C89.1534 54.6164 89.2976 54.2209 89.2811 53.8156V53.5484H89.0518C88.6087 53.5404 88.1657 53.566 87.7265 53.6248C87.4803 53.6473 87.2459 53.74 87.0511 53.8919C86.982 53.9595 86.928 54.0409 86.8929 54.1308C86.8577 54.2208 86.8421 54.3171 86.8471 54.4136C86.8432 54.5385 86.8662 54.6628 86.9145 54.778C86.9629 54.8933 87.0356 54.9968 87.1275 55.0816C87.3219 55.2586 87.5782 55.3524 87.8412 55.3427C88.0347 55.3495 88.2274 55.3149 88.4065 55.2414C88.5856 55.1678 88.7469 55.0569 88.8796 54.9161Z" fill="#D3D3D3"/>
<path d="M92.416 56.3861V47.4158H94.0089V56.3861H92.416Z" fill="#D3D3D3"/>
<path d="M105.516 56.3858L104.573 55.4187C104.205 55.7544 103.78 56.0217 103.318 56.2077C102.854 56.3944 102.358 56.4894 101.858 56.4875C101.307 56.4979 100.76 56.3917 100.253 56.1757C99.8168 55.9931 99.4397 55.6937 99.1633 55.3106C98.9023 54.9358 98.7663 54.4884 98.7747 54.0319C98.7685 53.5169 98.927 53.0132 99.2271 52.5942C99.6166 52.0955 100.11 51.6874 100.673 51.3982C100.388 51.0982 100.145 50.7599 99.9534 50.3931C99.8067 50.0962 99.7304 49.7696 99.7304 49.4386C99.72 49.1481 99.7759 48.8591 99.894 48.5934C100.012 48.3278 100.189 48.0925 100.412 47.9054C100.914 47.503 101.546 47.2972 102.19 47.3265C102.778 47.2958 103.357 47.4839 103.815 47.8544C104.015 48.0309 104.173 48.2499 104.278 48.4953C104.383 48.7408 104.431 49.0066 104.42 49.2731C104.425 49.7144 104.287 50.1455 104.025 50.5011C103.666 50.9438 103.224 51.3132 102.725 51.589L104.496 53.3956C104.86 52.6452 105.056 51.8246 105.07 50.991H106.395C106.378 52.1792 106.049 53.342 105.439 54.3628L107.415 56.3858H105.516ZM103.694 54.5155L101.502 52.2507C101.151 52.4466 100.845 52.713 100.603 53.0331C100.419 53.3052 100.323 53.6273 100.329 53.9556C100.322 54.1358 100.357 54.3153 100.431 54.4799C100.505 54.6444 100.616 54.7894 100.756 54.9034C101.087 55.1519 101.496 55.2757 101.91 55.2533C102.241 55.2537 102.569 55.1888 102.875 55.0621C103.181 54.9355 103.46 54.7498 103.694 54.5155V54.5155ZM101.451 48.6942C101.356 48.7902 101.282 48.9048 101.234 49.0307C101.186 49.1567 101.164 49.2912 101.17 49.4259C101.171 49.6308 101.223 49.8323 101.323 50.0112C101.489 50.2795 101.686 50.5273 101.91 50.7492C102.262 50.5698 102.581 50.3308 102.853 50.0429C103.023 49.847 103.118 49.5965 103.12 49.3368C103.126 49.2139 103.107 49.0911 103.063 48.9762C103.019 48.8612 102.952 48.7565 102.865 48.6688C102.777 48.5853 102.673 48.5204 102.559 48.4777C102.445 48.4351 102.324 48.4157 102.203 48.4207C102.065 48.4139 101.928 48.4345 101.799 48.4815C101.67 48.5285 101.551 48.6008 101.451 48.6942V48.6942Z" fill="#D3D3D3"/>
<path d="M111.148 47.2754H112.907V48.8405H111.148V47.2754ZM111.238 56.3858V50.1639H112.831V56.3858H111.238Z" fill="#D3D3D3"/>
<path d="M119.763 50.6474C120.128 51.0715 120.311 51.7118 120.311 52.5684V56.3857H118.718V52.6578C118.749 52.2848 118.653 51.9124 118.444 51.6016C118.335 51.485 118.201 51.3946 118.052 51.3373C117.903 51.2799 117.743 51.2572 117.584 51.2707C117.38 51.2616 117.176 51.2953 116.987 51.3699C116.797 51.4444 116.625 51.558 116.482 51.7033C116.34 51.8597 116.23 52.0424 116.159 52.2411C116.088 52.4398 116.057 52.6505 116.067 52.8612V56.3857H114.474V50.1638H116.029V51.0926C116.234 50.7518 116.53 50.4743 116.883 50.2909C117.258 50.1003 117.673 50.0042 118.094 50.0111C118.402 49.9868 118.711 50.0314 119 50.1414C119.289 50.2515 119.549 50.4243 119.763 50.6474Z" fill="#D3D3D3"/>
<path d="M123.955 50.1639H125.599V51.3599H123.955V56.3858H122.362V51.3599H121.165V50.1639H122.362C122.362 49.2732 122.594 48.603 123.057 48.1536C123.52 47.7041 124.24 47.4538 125.217 47.4028L125.841 47.3645L125.943 48.5481L125.344 48.5734C124.959 48.5593 124.581 48.6784 124.274 48.9106C124.157 49.0402 124.069 49.1924 124.014 49.3577C123.959 49.523 123.939 49.6978 123.955 49.8711L123.955 50.1639ZM126.491 56.3858V47.4155H128.084V56.3858H126.491Z" fill="#D3D3D3"/>
<path d="M135.45 50.1638V56.3857H133.895V55.4315C133.71 55.7607 133.436 56.0317 133.105 56.214C132.761 56.3995 132.374 56.4936 131.983 56.4874C130.454 56.4874 129.69 55.6308 129.69 53.9174V50.1638H131.283V53.9301C131.255 54.2777 131.35 54.6241 131.55 54.9096C131.657 55.0223 131.789 55.1094 131.934 55.1644C132.08 55.2195 132.236 55.2412 132.391 55.2278C132.59 55.236 132.788 55.2009 132.972 55.1252C133.155 55.0494 133.32 54.9346 133.455 54.7889C133.734 54.4665 133.877 54.0498 133.857 53.6246V50.1638H135.45Z" fill="#D3D3D3"/>
<path d="M142.573 53.5611H138.33C138.339 54.0393 138.525 54.4972 138.852 54.8464C139.206 55.1463 139.663 55.2969 140.127 55.2663C140.812 55.267 141.478 55.0335 142.012 54.6046L142.471 55.6988C142.147 55.9553 141.777 56.1495 141.382 56.2714C140.956 56.4134 140.511 56.4864 140.063 56.4876C139.623 56.5114 139.182 56.4472 138.768 56.2986C138.353 56.15 137.972 55.9201 137.648 55.6225C137.345 55.3101 137.11 54.9386 136.958 54.5314C136.805 54.1242 136.739 53.69 136.762 53.2559C136.751 52.6692 136.882 52.0884 137.144 51.5634C137.385 51.0862 137.759 50.6886 138.221 50.4184C138.699 50.143 139.243 50.0023 139.795 50.0112C140.174 49.9925 140.552 50.0569 140.903 50.1998C141.254 50.3427 141.57 50.5606 141.828 50.8383C142.355 51.4765 142.621 52.29 142.573 53.1158L142.573 53.5611ZM138.807 51.538C138.524 51.8657 138.357 52.2768 138.33 52.7086H141.21C141.224 52.2837 141.089 51.8672 140.827 51.5317C140.701 51.3961 140.547 51.2898 140.375 51.2205C140.203 51.1513 140.018 51.1206 139.833 51.1308C139.643 51.1228 139.454 51.1549 139.277 51.2251C139.1 51.2953 138.94 51.4019 138.808 51.538H138.807Z" fill="#D3D3D3"/>
<path d="M149.161 50.6474C149.526 51.0715 149.709 51.7118 149.709 52.5684V56.3857H148.116V52.6577C148.147 52.2849 148.051 51.9124 147.842 51.6015C147.733 51.4849 147.599 51.3945 147.45 51.3372C147.301 51.2799 147.141 51.2572 146.982 51.2707C146.778 51.2615 146.575 51.2953 146.385 51.3698C146.195 51.4444 146.023 51.558 145.88 51.7033C145.738 51.8596 145.628 52.0424 145.557 52.2411C145.486 52.4398 145.455 52.6505 145.466 52.8612V56.3857H143.873V50.1638H145.427V51.0926C145.632 50.7517 145.928 50.4742 146.281 50.2909C146.656 50.1002 147.072 50.0042 147.492 50.0111C147.8 49.9868 148.11 50.0314 148.398 50.1414C148.687 50.2515 148.948 50.4243 149.161 50.6474Z" fill="#D3D3D3"/>
<path d="M152.468 56.0934C151.996 55.8389 151.612 55.4487 151.366 54.9735C151.111 54.4417 150.98 53.8591 150.983 53.2695C150.987 52.68 151.124 52.0989 151.385 51.57C151.644 51.0827 152.04 50.6822 152.525 50.4184C153.05 50.1392 153.638 49.999 154.233 50.0112C154.672 50.011 155.109 50.0818 155.526 50.221C155.901 50.3351 156.246 50.5282 156.539 50.7873L156.08 51.9072C155.83 51.7025 155.548 51.5392 155.246 51.4236C154.967 51.3162 154.672 51.2601 154.373 51.2582C154.134 51.2445 153.894 51.2835 153.672 51.3726C153.45 51.4616 153.249 51.5985 153.086 51.7735C152.787 52.2078 152.627 52.7224 152.627 53.2494C152.627 53.7764 152.787 54.291 153.086 54.7254C153.249 54.9003 153.45 55.0372 153.672 55.1263C153.894 55.2153 154.134 55.2544 154.373 55.2406C154.672 55.2389 154.968 55.1828 155.246 55.0752C155.548 54.9597 155.83 54.7965 156.08 54.5919L156.539 55.6989C156.235 55.9628 155.879 56.16 155.494 56.2778C155.067 56.4181 154.619 56.4889 154.169 56.4876C153.578 56.5026 152.992 56.3669 152.468 56.0934Z" fill="#D3D3D3"/>
<path d="M163.013 53.5611H158.769C158.778 54.0393 158.965 54.4972 159.292 54.8464C159.646 55.1463 160.103 55.2969 160.566 55.2663C161.252 55.267 161.918 55.0335 162.452 54.6046L162.911 55.6988C162.587 55.9553 162.217 56.1495 161.822 56.2714C161.396 56.4134 160.951 56.4864 160.503 56.4876C160.063 56.5114 159.622 56.4472 159.208 56.2986C158.793 56.15 158.412 55.9201 158.088 55.6225C157.785 55.3101 157.55 54.9386 157.398 54.5314C157.245 54.1242 157.179 53.69 157.202 53.2559C157.191 52.6692 157.322 52.0884 157.584 51.5634C157.825 51.0862 158.199 50.6886 158.661 50.4184C159.139 50.143 159.683 50.0023 160.235 50.0112C160.614 49.9925 160.992 50.0569 161.343 50.1998C161.694 50.3427 162.01 50.5606 162.267 50.8383C162.795 51.4765 163.061 52.29 163.013 53.1158L163.013 53.5611ZM159.247 51.538C158.964 51.8657 158.796 52.2768 158.769 52.7086H161.65C161.664 52.2837 161.529 51.8672 161.267 51.5317C161.141 51.3961 160.987 51.2898 160.815 51.2206C160.643 51.1513 160.458 51.1206 160.273 51.1308C160.083 51.1228 159.893 51.1549 159.717 51.2251C159.54 51.2953 159.38 51.4019 159.247 51.538Z" fill="#D3D3D3"/>
<path d="M176.75 50.6408C177.098 51.0607 177.272 51.7033 177.272 52.5685V56.3858H175.68V52.6322C175.708 52.2699 175.624 51.9075 175.437 51.5953C175.344 51.4824 175.224 51.3938 175.089 51.3373C174.953 51.2807 174.806 51.2579 174.66 51.2708C174.472 51.2613 174.285 51.2954 174.112 51.3704C173.94 51.4455 173.787 51.5594 173.666 51.7034C173.409 52.0523 173.283 52.4801 173.309 52.9123V56.3858H171.716V52.6322C171.745 52.2707 171.663 51.9091 171.481 51.5953C171.387 51.4812 171.266 51.392 171.129 51.3354C170.993 51.2788 170.844 51.2566 170.697 51.2708C170.511 51.2622 170.326 51.2967 170.155 51.3718C169.985 51.4468 169.835 51.5603 169.716 51.7034C169.459 52.0523 169.333 52.4801 169.359 52.9123V56.3858H167.766V50.1639H169.32V51.0417C169.497 50.7132 169.768 50.445 170.098 50.272C170.449 50.0935 170.838 50.0039 171.232 50.0111C172.175 50.0111 172.799 50.4013 173.105 51.1818C173.297 50.8208 173.589 50.5227 173.946 50.323C174.319 50.113 174.742 50.0054 175.17 50.0111C175.464 49.9889 175.759 50.034 176.033 50.1432C176.307 50.2523 176.552 50.4225 176.75 50.6408Z" fill="#D3D3D3"/>
<path d="M183.516 50.6476C183.941 51.0717 184.154 51.7248 184.154 52.6069V56.3859H182.637V55.4317C182.498 55.7562 182.259 56.028 181.955 56.2078C181.629 56.3986 181.257 56.4954 180.879 56.4876C180.486 56.493 180.097 56.4058 179.744 56.2331C179.419 56.076 179.142 55.8343 178.942 55.5334C178.747 55.2392 178.645 54.8935 178.649 54.5409C178.626 54.1494 178.751 53.7636 178.999 53.4594C179.311 53.1553 179.709 52.9553 180.14 52.8867C180.858 52.751 181.588 52.6913 182.319 52.7086H182.637V52.4161C182.668 52.0869 182.57 51.7585 182.363 51.5C182.237 51.3955 182.092 51.3169 181.936 51.2688C181.779 51.2208 181.615 51.2041 181.452 51.2199C181.099 51.2234 180.749 51.2814 180.413 51.3916C180.042 51.5109 179.685 51.6709 179.349 51.8689L178.903 50.7746C179.711 50.296 180.628 50.0331 181.567 50.0112C182.442 50.0112 183.092 50.2234 183.516 50.6476ZM182.236 54.9162C182.509 54.6163 182.654 54.2209 182.637 53.8156V53.5484H182.408C181.965 53.5404 181.522 53.566 181.083 53.6248C180.836 53.6473 180.602 53.74 180.407 53.892C180.338 53.9595 180.284 54.0409 180.249 54.1308C180.214 54.2208 180.198 54.3171 180.203 54.4136C180.199 54.5385 180.222 54.6628 180.271 54.7781C180.319 54.8933 180.392 54.9968 180.484 55.0816C180.678 55.2586 180.934 55.3523 181.197 55.3427C181.391 55.3495 181.583 55.315 181.763 55.2414C181.942 55.1678 182.103 55.057 182.236 54.9162Z" fill="#D3D3D3"/>
<path d="M189.875 51.3346L188.945 51.4236C187.892 51.5338 187.365 52.0682 187.365 53.0268V56.3859H185.772V50.164H187.289V51.2582C187.611 50.5117 188.278 50.1045 189.289 50.0366L189.774 49.9985L189.875 51.3346Z" fill="#D3D3D3"/>
<path d="M196.897 56.3861H194.922L192.246 53.5486V56.3861H190.653V47.4158H192.246V52.8869L194.756 50.1769H196.693L193.889 53.1541L196.897 56.3861Z" fill="#D3D3D3"/>
<path d="M202.861 53.5611H198.617C198.626 54.0393 198.812 54.4972 199.14 54.8464C199.494 55.1463 199.951 55.2969 200.414 55.2663C201.1 55.267 201.765 55.0335 202.3 54.6046L202.759 55.6988C202.434 55.9553 202.065 56.1495 201.669 56.2714C201.244 56.4134 200.799 56.4864 200.35 56.4876C199.91 56.5114 199.47 56.4472 199.055 56.2986C198.64 56.15 198.26 55.9201 197.935 55.6225C197.633 55.3101 197.398 54.9386 197.245 54.5314C197.093 54.1242 197.026 53.69 197.05 53.2559C197.038 52.6692 197.169 52.0884 197.432 51.5634C197.673 51.0862 198.047 50.6886 198.509 50.4184C198.987 50.143 199.531 50.0023 200.083 50.0112C200.461 49.9925 200.84 50.0569 201.191 50.1998C201.542 50.3427 201.857 50.5606 202.115 50.8383C202.642 51.4765 202.909 52.29 202.861 53.1158L202.861 53.5611ZM199.095 51.538C198.812 51.8657 198.644 52.2768 198.617 52.7086H201.497C201.512 52.2837 201.376 51.8672 201.115 51.5317C200.989 51.3961 200.834 51.2898 200.663 51.2205C200.491 51.1513 200.306 51.1206 200.121 51.1308C199.931 51.1228 199.741 51.1549 199.564 51.2251C199.388 51.2953 199.228 51.4019 199.095 51.538Z" fill="#D3D3D3"/>
<path d="M207.843 55.2531L207.767 56.4367C207.512 56.4621 207.279 56.4747 207.066 56.4747C206.191 56.4747 205.545 56.2733 205.129 55.8704C204.907 55.6288 204.737 55.3444 204.63 55.0347C204.523 54.725 204.48 54.3966 204.505 54.0698V51.3598H203.307V50.1638H204.505V48.3062H206.098V50.1638H207.742V51.3598H206.098V54.0445C206.098 54.8758 206.484 55.2915 207.257 55.2915C207.453 55.2909 207.649 55.2781 207.843 55.2531Z" fill="#D3D3D3"/>
<path d="M208.684 47.2754H210.443V48.8405H208.684V47.2754ZM208.774 56.3858V50.1639H210.366V56.3858H208.774Z" fill="#D3D3D3"/>
<path d="M217.299 50.6474C217.664 51.0715 217.847 51.7118 217.847 52.5684V56.3857H216.254V52.6577C216.285 52.2849 216.189 51.9124 215.98 51.6015C215.871 51.4849 215.737 51.3945 215.588 51.3372C215.439 51.2799 215.279 51.2572 215.12 51.2707C214.916 51.2615 214.713 51.2953 214.523 51.3698C214.333 51.4444 214.161 51.558 214.018 51.7033C213.876 51.8596 213.766 52.0424 213.695 52.2411C213.624 52.4398 213.593 52.6505 213.603 52.8612V56.3857H212.01V50.1638H213.565V51.0926C213.77 50.7517 214.066 50.4742 214.419 50.2909C214.794 50.1002 215.209 50.0042 215.63 50.0111C215.938 49.9868 216.247 50.0314 216.536 50.1414C216.825 50.2515 217.085 50.4243 217.299 50.6474Z" fill="#D3D3D3"/>
<path d="M225.531 50.1639V55.8132C225.531 56.7885 225.261 57.5266 224.721 58.0273C224.182 58.5275 223.386 58.7778 222.332 58.7781C221.802 58.78 221.275 58.7093 220.765 58.568C220.298 58.4436 219.854 58.2437 219.452 57.9763L219.898 56.8568C220.616 57.3073 221.446 57.5495 222.294 57.5565C223.398 57.5565 223.95 57.0136 223.95 55.9279V55.1135C223.766 55.4586 223.482 55.7401 223.135 55.9213C222.758 56.1172 222.337 56.2157 221.912 56.2078C221.402 56.2172 220.901 56.0827 220.465 55.8196C220.041 55.5564 219.698 55.1795 219.478 54.7317C219.232 54.2291 219.109 53.6751 219.121 53.1158C219.11 52.5552 219.23 51.9998 219.471 51.4936C219.688 51.0414 220.031 50.6614 220.459 50.3994C220.897 50.1369 221.401 50.0024 221.912 50.0112C222.337 50.0033 222.758 50.1016 223.135 50.2973C223.482 50.4787 223.766 50.7603 223.95 51.1054V50.1639L225.531 50.1639ZM223.524 54.4772C223.827 54.0903 223.979 53.6063 223.95 53.1158C223.98 52.6213 223.828 52.1329 223.524 51.7418C223.368 51.5846 223.183 51.4597 222.979 51.3745C222.775 51.2894 222.556 51.2455 222.335 51.2455C222.114 51.2455 221.895 51.2894 221.691 51.3745C221.487 51.4597 221.302 51.5846 221.147 51.7418C220.865 52.1411 220.714 52.6177 220.714 53.1063C220.714 53.5949 220.865 54.0715 221.147 54.4709C221.301 54.6294 221.486 54.7555 221.69 54.8418C221.894 54.9281 222.113 54.9729 222.334 54.9734C222.555 54.974 222.775 54.9304 222.979 54.8452C223.183 54.76 223.368 54.6349 223.524 54.4772Z" fill="#D3D3D3"/>
<path d="M5.84998 38.1361C5.85843 38.064 5.86669 37.9889 5.87524 37.9216C5.86669 37.9889 5.85843 38.0647 5.84998 38.1361Z" fill="#170D35"/>
<path d="M5.84827 38.1513L5.85007 38.1357L5.84827 38.1513Z" fill="#170D35"/>
<path d="M5.85157 38.1357C5.83457 38.1391 5.81584 38.1415 5.79885 38.1449L5.79688 38.163C5.81503 38.1594 5.83156 38.1549 5.84976 38.1513L5.85157 38.1357Z" fill="#170D35"/>
<path d="M21.0896 63.1217H21.0897C19.9683 62.2764 18.9105 61.3501 17.9248 60.3503C18.9105 61.3501 19.9683 62.2764 21.0896 63.1217Z" fill="url(#paint0_linear)"/>
<path d="M21.0896 63.1217H21.0897C19.9683 62.2764 18.9105 61.3501 17.9248 60.3503C18.9105 61.3501 19.9683 62.2764 21.0896 63.1217Z" fill="url(#paint1_linear)"/>
<path d="M16.4167 58.66C15.5184 57.5619 14.7146 56.3899 14.0139 55.1567C14.7146 56.3899 15.5184 57.5619 16.4167 58.66Z" fill="url(#paint2_linear)"/>
<path d="M16.4167 58.66C15.5184 57.5619 14.7146 56.3899 14.0139 55.1567C14.7146 56.3899 15.5184 57.5619 16.4167 58.66Z" fill="url(#paint3_linear)"/>
<path d="M4.96873 38.3655C5.24974 38.2997 5.50237 38.2215 5.79688 38.1622L5.81805 38.1575C4.37934 38.4403 2.96805 38.8479 1.60022 39.3754C2.62444 38.9898 3.67279 38.6713 4.73858 38.422C4.81561 38.4032 4.8906 38.3838 4.96873 38.3655Z" fill="url(#paint4_linear)"/>
<path d="M12.2007 51.2021C10.3889 46.1527 10.3797 41.2038 10.787 37.6043C11.1861 37.5911 11.5837 37.5767 12.0002 37.5777C13.3389 37.588 14.6761 37.6676 16.0066 37.8161C16.9032 37.912 17.8309 38.0409 18.7896 38.2027C13.5222 37.2879 9.23847 37.4783 5.86951 38.1471C7.49116 37.8331 9.13576 37.6515 10.787 37.6043C10.3796 41.2037 10.3888 46.1526 12.2007 51.2021Z" fill="url(#paint5_linear)"/>
<path d="M13.0381 60.2129C12.6175 59.9659 12.2008 59.7133 11.7976 59.4414C12.2009 59.7142 12.6173 59.9653 13.0381 60.2129Z" fill="url(#paint6_linear)"/>
<path d="M18.9426 38.2297C19.8567 38.3881 20.8027 38.5835 21.7807 38.816C20.8029 38.5826 19.8607 38.3923 18.9426 38.2297Z" fill="url(#paint7_linear)"/>
<path d="M14.8948 61.2078C14.6358 61.0845 14.3769 60.961 14.1229 60.8293C14.3774 60.9612 14.635 61.0853 14.8948 61.2078Z" fill="url(#paint8_linear)"/>
<path d="M8.89883 57.1105C8.64768 56.8752 8.38628 56.6505 8.14575 56.4043C8.38609 56.6512 8.64787 56.8745 8.89883 57.1105Z" fill="url(#paint9_linear)"/>
<path d="M10.9496 58.8262C10.5948 58.563 10.2382 58.3022 9.89929 58.0198C10.2379 58.3032 10.5949 58.5621 10.9496 58.8262Z" fill="url(#paint10_linear)"/>
<path d="M25.0496 63.4142C26.7972 63.3904 28.5365 63.1686 30.234 62.7529C29.1315 63.0103 28.0118 63.1881 26.8838 63.2848C26.2757 63.3406 25.6693 63.4028 25.0496 63.4142Z" fill="url(#paint11_linear)"/>
<path d="M22.4872 63.2947C22.1273 63.2573 21.7692 63.214 21.4138 63.1616C21.7699 63.2131 22.1261 63.2597 22.4872 63.2947Z" fill="url(#paint12_linear)"/>
<path d="M17.7949 62.3282C17.448 62.2203 17.094 62.1287 16.7546 62.0039C17.094 62.1288 17.4483 62.2188 17.7949 62.3282Z" fill="url(#paint13_linear)"/>
<path d="M23.3792 18.474C22.2762 16.475 19.6849 16.2889 16.9865 16.9322C15.6907 17.2427 14.4448 17.7325 13.2849 18.3876C9.89539 20.3234 5.93347 18.4766 5.93347 18.4766C7.88735 22.4475 10.384 27.713 18.8728 26.7646C19.4353 26.6947 20.0027 26.6724 20.5689 26.6982C21.7894 29.843 23.0226 33.2789 23.3222 38.5146C23.3395 38.8159 23.3184 38.5207 23.3395 38.8159C23.0705 38.7423 22.8293 38.9589 22.5644 38.8906C22.8455 42.0001 24.9498 56.0484 39.7812 58.7698C37.1672 60.9449 34.115 62.5326 30.8318 63.4252C34.1274 62.5355 37.1939 60.9509 39.8245 58.7782C42.4551 56.6054 44.5888 53.895 46.0818 50.8294C46.8538 49.2369 47.4436 47.5628 47.8404 45.8385C47.9914 45.1854 48.1175 44.5231 48.2132 43.8507C48.2567 43.5451 48.2991 43.2391 48.3308 42.9299C48.4137 42.1203 48.4553 41.3071 48.4552 40.4933C48.4552 40.3718 48.4479 40.252 48.446 40.1308C48.4146 40.1502 48.3811 40.169 48.3492 40.1883C48.3821 37.0974 47.8149 34.0294 46.6788 31.1539C44.1574 24.7675 39.5761 20.2255 33.6513 17.8205C37.8697 11.7745 34.8771 7.26662 32.6912 3.71045C32.6912 3.71045 32.3281 8.03339 28.8718 9.84815C26.3901 11.1511 23.8779 13.5326 23.258 15.8693C23.0146 16.7869 22.7814 17.4121 23.2426 18.2477" fill="url(#paint14_linear)"/>
<path d="M20.5157 63.0029C20.0085 62.91 19.5019 62.8147 19.0062 62.6907C19.5015 62.8173 20.0083 62.9089 20.5157 63.0029Z" fill="url(#paint15_linear)"/>
<path d="M21.0626 63.0998H21.0628C19.9514 62.2605 18.9026 61.3416 17.9248 60.3503C18.9026 61.3416 19.9513 62.2605 21.0626 63.0998Z" fill="url(#paint16_linear)"/>
<path d="M11.7976 59.4417C11.5079 59.2456 11.2297 59.035 10.9496 58.8264C11.2303 59.0346 11.5074 59.246 11.7976 59.4417Z" fill="url(#paint17_linear)"/>
<path d="M8.14575 56.4044C7.58133 55.8282 7.04716 55.2232 6.54541 54.5918C7.04674 55.2235 7.58092 55.8285 8.14575 56.4044Z" fill="url(#paint18_linear)"/>
<path d="M9.89921 58.0199C9.55329 57.7305 9.22716 57.4194 8.8988 57.1106C9.2279 57.419 9.55255 57.7309 9.89921 58.0199Z" fill="url(#paint19_linear)"/>
<path d="M13.0381 60.2129C13.1988 60.3072 13.349 60.417 13.512 60.5077C13.4829 60.4842 13.4589 60.4591 13.43 60.4356C13.299 60.3618 13.1675 60.2891 13.0381 60.2129Z" fill="url(#paint20_linear)"/>
<path d="M21.0896 63.1214C21.0802 63.1142 21.072 63.1066 21.0626 63.0994C20.8792 63.0701 20.6976 63.0364 20.5157 63.0027C20.7086 63.038 20.8952 63.0904 21.0896 63.1214Z" fill="url(#paint21_linear)"/>
<path d="M19.0063 62.6907C18.5958 62.5857 18.1963 62.4549 17.7949 62.3284C18.1971 62.4535 18.5949 62.5877 19.0063 62.6907Z" fill="url(#paint22_linear)"/>
<path d="M16.6092 61.9485L16.7138 61.9914C16.7271 61.9963 16.7413 61.9992 16.7546 62.0041C16.1187 61.77 15.5033 61.4951 14.8949 61.208C15.4556 61.4749 16.0237 61.7284 16.6092 61.9485Z" fill="url(#paint23_linear)"/>
<path d="M13.511 60.5072C13.6678 60.5943 13.8262 60.6783 13.9851 60.762C14.0303 60.7857 14.0776 60.806 14.123 60.8295C13.8862 60.7068 13.6612 60.5659 13.4292 60.4353C13.458 60.4588 13.482 60.4839 13.511 60.5072Z" fill="url(#paint24_linear)"/>
<path d="M5.84901 38.1509L5.81799 38.1577C5.83551 38.1542 5.85349 38.151 5.87099 38.1475C5.86414 38.1488 5.85586 38.1496 5.84901 38.1509Z" fill="url(#paint25_linear)"/>
<path d="M21.0897 63.1214C21.1968 63.1385 21.307 63.1458 21.4145 63.1616C21.296 63.1445 21.1806 63.1182 21.0627 63.0994C21.0722 63.1066 21.0802 63.1142 21.0897 63.1214Z" fill="url(#paint26_linear)"/>
<path d="M24.7305 63.4258C23.9716 63.4258 23.2275 63.3663 22.4872 63.2947C23.2322 63.3772 23.9809 63.421 24.7305 63.4258Z" fill="url(#paint27_linear)"/>
<path d="M24.9643 63.4186C24.9932 63.4183 25.0214 63.4149 25.0502 63.4143C24.943 63.4158 24.838 63.426 24.7305 63.426C24.809 63.426 24.8859 63.4194 24.9643 63.4186Z" fill="url(#paint28_linear)"/>
<path d="M10.5418 36.926C8.33515 36.7752 5.43021 37.5812 3.4699 37.5781C2.81787 37.5771 2.19536 37.5915 1.57053 37.6047C0.689863 42.2562 1.47318 47.0688 3.78375 51.2025C4.20535 51.9516 4.67111 52.6751 5.17859 53.3691C5.61492 53.9669 6.09622 54.5628 6.6225 55.1569C7.76806 56.4355 9.02713 57.608 10.3843 58.6601C11.1155 59.2317 11.9025 59.7951 12.7453 60.3504C14.3238 61.3684 15.9646 62.2866 17.6582 63.0998C17.8423 63.1186 18.0225 63.1448 18.2077 63.1619C18.764 63.2142 19.3247 63.2576 19.8882 63.2949C21.0472 63.3666 22.5229 64.6433 23.3127 63.7571C23.4912 63.5568 23.4112 64.0242 23.5787 64.0227C24.549 64.0114 26.0855 64.0785 27.0375 64.0227C10.539 56.1903 9.52311 43.701 10.5418 36.926Z" fill="url(#paint29_linear)"/>
<path d="M30.4974 62.6993C30.5783 62.6786 30.6537 62.6452 30.7343 62.6235C30.568 62.6681 30.4016 62.712 30.234 62.753C30.3207 62.7322 30.4111 62.7215 30.4974 62.6993Z" fill="#D8D8D8"/>
<path d="M22.7132 39.05C22.4483 38.9814 22.1795 38.9077 21.9192 38.8448C21.8713 38.8332 21.8284 38.8275 21.7806 38.8162C22.0868 38.8892 22.4015 38.9729 22.7135 39.0534L22.7132 39.05Z" fill="#D8D8D8"/>
<path d="M18.7897 38.2029C18.8406 38.2118 18.8917 38.2208 18.9429 38.2299C18.892 38.221 18.8405 38.2116 18.7897 38.2029Z" fill="#D8D8D8"/>
<path d="M23.3515 37.6233C23.0395 37.5429 22.2886 38.593 21.9824 38.5199C21.0046 38.2868 20.2359 38.147 19.3218 37.9886C19.2708 37.9796 18.3084 37.4662 18.2576 37.4573C17.299 37.2946 9.84219 37.2876 8.94553 37.1917C8.29483 43.9666 12.1382 57.647 24.9091 64.2883C26.0496 64.1838 29.146 63.5943 30.234 63.3334C30.4016 63.2924 30.5679 63.0476 30.7342 63.003C33.9784 62.1299 37.3905 60.1753 39.9082 58.0933C25.475 55.4449 23.6251 40.6494 23.3515 37.6233Z" fill="#D8D8D8"/>
<path d="M21.0897 63.1216H21.0896C21.2723 63.2612 21.4339 63.4074 21.6227 63.545H21.6228C21.4339 63.4074 21.2724 63.2612 21.0897 63.1216Z" fill="#170D35"/>
<path d="M49.4611 40.3074C49.4611 40.2948 49.4599 40.2826 49.4599 40.2702C49.459 39.8299 49.4429 39.3934 49.418 38.9591C49.4161 38.9235 49.4166 38.8872 49.4146 38.8517C49.4105 38.7829 49.4035 38.7149 49.3989 38.6462C49.3947 38.5838 49.3866 38.5227 49.382 38.4605C49.37 38.3043 49.3627 38.1467 49.348 37.9911C49.3384 37.8882 49.3223 37.7872 49.3114 37.6847C49.2914 37.4942 49.2679 37.3047 49.2434 37.1156C49.2172 36.9143 49.1899 36.7135 49.1589 36.5139C49.1459 36.4297 49.1373 36.3443 49.1233 36.2603C49.1035 36.1403 49.0767 36.0226 49.0545 35.9034C49.0328 35.7839 49.0164 35.6627 48.993 35.5439C48.9751 35.4525 48.9522 35.3628 48.9328 35.2719C48.9295 35.2565 48.926 35.2411 48.9226 35.2257C48.874 34.999 48.8265 34.7719 48.7724 34.5473C48.7479 34.4454 48.7169 34.3461 48.6912 34.2446C48.4115 33.0176 48.0403 31.8132 47.5806 30.6415C45.3118 24.846 40.942 20.1152 35.3397 17.3894C38.6841 11.2534 35.8093 6.57589 34.0357 3.69049L31.7673 0L31.2119 4.30538C31.1994 4.39171 30.6887 7.75637 28.1206 9.10481C25.7869 10.3302 22.7909 12.8068 21.9235 15.7944C21.921 15.8029 21.9174 15.8112 21.915 15.8199C21.8925 15.8132 21.8682 15.8087 21.8455 15.8022C21.1447 15.607 20.4199 15.5108 19.6924 15.5166C18.7541 15.5243 17.82 15.6415 16.909 15.8657C15.5067 16.2005 14.1587 16.7309 12.9046 17.4411C12.0891 17.8913 11.1691 18.1189 10.2374 18.101C9.17599 18.0896 8.12656 17.8752 7.14588 17.4695L3.18639 15.6236L5.13084 19.5751C5.69171 20.7802 6.34871 21.9384 7.09549 23.0383C7.39849 23.4693 7.72622 23.8824 8.07704 24.2756C9.91541 26.3272 12.6679 28.0311 17.0943 28.0311C17.8434 28.029 18.5917 27.9854 19.3359 27.9007C19.5579 27.8759 19.78 27.8573 20.0003 27.8452C20.7632 30.1567 21.2891 32.5396 21.5699 34.9572C21.6397 35.5122 21.7039 36.0743 21.7564 36.6512C18.6896 35.8596 15.5459 35.4019 12.3804 35.2861C8.81066 35.1288 5.24223 35.6249 1.85128 36.7498L1.85045 36.7571C1.27317 36.9342 0.722149 37.1219 0.188716 37.3165C0.185311 37.3448 0.180401 37.3726 0.177072 37.401C0.0801137 38.2311 0.0251177 39.0656 0.0122936 39.9012C0.0113676 39.958 0.00655937 40.0138 0.00600784 40.0705C0.00526226 40.1498 0 40.228 0 40.3074C0 41.0921 0.0409574 41.8674 0.112993 42.6336C0.190154 43.4548 0.30863 44.2716 0.467975 45.0808C0.534002 45.4159 0.609174 45.7473 0.688588 46.0774C1.69386 50.2868 3.79127 54.1577 6.76995 57.3011C9.74863 60.4445 13.5036 62.7495 17.6574 63.9845C21.8112 65.2194 26.2173 65.3407 30.433 64.3362C34.6486 63.3317 38.5251 61.2369 41.6727 58.2622C42.2766 57.6933 42.8538 57.0964 43.3984 56.4701L43.4034 56.4802C43.6237 56.2265 43.8378 55.9673 44.048 55.7047C44.0977 55.6426 44.1453 55.5788 44.1945 55.5161C44.4496 55.191 44.6967 54.8597 44.936 54.5223C44.9772 54.4641 45.0203 54.4074 45.061 54.3488C45.3057 53.9963 45.5386 53.635 45.7651 53.2695C45.8036 53.2075 45.8467 53.1485 45.8847 53.0861C45.9211 53.0263 45.9539 52.9641 45.9899 52.9038C46.0715 52.7669 46.15 52.6279 46.2291 52.4892C46.3186 52.3322 46.4098 52.1762 46.496 52.0172C46.6439 51.7437 46.7868 51.4673 46.9247 51.1879C46.99 51.0552 47.0509 50.9202 47.1139 50.7862C47.2008 50.6018 47.2869 50.4171 47.3694 50.2304C47.4257 50.1025 47.4797 49.9736 47.5339 49.8446C47.6216 49.6362 47.7065 49.4263 47.7886 49.215C47.8305 49.107 47.8725 48.9992 47.9128 48.8904C48.0158 48.6138 48.1138 48.3349 48.2068 48.0536C48.2221 48.0077 48.2386 47.9624 48.2536 47.9163C48.4824 47.2121 48.6793 46.4946 48.8443 45.7637C48.8524 45.728 48.8597 45.6921 48.8676 45.6564C48.9397 45.3317 49.0051 45.0047 49.064 44.6753C49.0692 44.6461 49.0763 44.6174 49.0815 44.588C49.0864 44.5603 49.0894 44.5321 49.0942 44.5044C49.1443 44.2137 49.189 43.9212 49.2285 43.627C49.2334 43.5908 49.2403 43.5552 49.2451 43.5189C49.2482 43.4949 49.2503 43.4705 49.2534 43.4464C49.2629 43.3718 49.2752 43.2984 49.2841 43.2237C49.2926 43.1511 49.2961 43.0771 49.3041 43.0044C49.3437 42.6545 49.3759 42.3025 49.4007 41.9484C49.4022 41.925 49.4045 41.9018 49.406 41.8784C49.4112 41.7968 49.4201 41.7163 49.4245 41.6345C49.442 41.3044 49.4472 40.9711 49.452 40.6377C49.4524 40.6097 49.4549 40.5822 49.4552 40.5541C49.4559 40.4749 49.4612 40.3967 49.4612 40.3173L49.461 40.3121L49.4611 40.3074ZM21.0658 26.2811C20.9204 26.2759 20.7725 26.2733 20.6221 26.2733C20.1361 26.2736 19.6506 26.3011 19.1676 26.3555C18.4793 26.4343 17.7871 26.4747 17.0943 26.4767C13.2052 26.4767 10.8361 25.0699 9.18758 23.1993C8.84183 22.8056 8.52125 22.3905 8.22776 21.9565C7.58254 20.9728 7.00667 19.9454 6.50434 18.8818C7.68577 19.3819 8.95428 19.6448 10.2374 19.6554C10.606 19.655 10.974 19.6283 11.3387 19.5757C12.1545 19.4648 12.9418 19.1999 13.6584 18.7952C14.7872 18.1578 15.9996 17.681 17.2606 17.3788C18.0565 17.1826 18.8726 17.0793 19.6924 17.071C20.3836 17.062 21.0712 17.1721 21.7249 17.3966C22.5249 17.6568 23.1986 18.2062 23.6136 18.9371L23.7224 19.1341C23.6845 19.0654 23.6482 18.9998 23.6137 18.9371C23.3305 18.4214 23.1963 17.8373 23.2258 17.25C23.2382 16.944 23.2845 16.6404 23.3637 16.3445C23.4277 16.1119 23.5076 15.8839 23.6028 15.6621C24.4604 13.6177 26.6533 11.6263 28.8268 10.485C32.1903 8.71897 32.7329 4.5121 32.7329 4.5121C34.7625 7.81398 36.983 11.8156 33.6174 17.2862C33.4555 17.5492 33.2852 17.8146 33.0968 18.0845C38.2432 20.1596 42.4885 23.9854 45.0816 28.8851C45.1259 28.9708 45.1698 29.0568 45.2132 29.1433C45.3286 29.3688 45.4398 29.5977 45.5484 29.8283C46.5262 31.9803 47.2058 34.2553 47.5686 36.5905C47.5664 36.575 47.5652 36.5596 47.563 36.5442C47.6085 36.8195 47.646 37.0974 47.6827 37.3754L47.6634 37.3878C44.4892 39.4984 38.9979 41.1624 29.8664 38.9826C28.5579 38.6702 27.1747 38.2791 25.7128 37.7988C24.8991 37.5315 24.1086 37.2955 23.3304 37.0756C23.2824 36.4787 23.2249 35.9011 23.1609 35.3369C22.8528 32.2413 22.1487 29.1979 21.0658 26.2811ZM47.8608 41.2494C47.8439 41.6714 47.8149 42.0903 47.7765 42.5065C47.774 42.5329 47.7729 42.5598 47.7704 42.5862C47.7289 43.0194 47.6754 43.449 47.6097 43.8749C47.5565 44.2178 47.484 44.5541 47.4157 44.8918C47.3189 45.3711 47.2072 45.8447 47.0805 46.3124L47.0768 46.3268C46.95 46.7955 46.809 47.2582 46.6538 47.7151C46.6114 47.8406 46.5713 47.9671 46.5268 48.0917L46.5257 48.095C46.429 48.3644 46.3248 48.6297 46.2184 48.8944C46.1445 49.0783 46.0697 49.2615 45.9913 49.4429C45.8881 49.6815 45.782 49.9181 45.6711 50.1524V50.1525C45.5232 50.4651 45.3729 50.7765 45.2116 51.0814L45.2108 51.0827C45.1467 51.2039 45.0785 51.3224 45.0122 51.4424C44.92 51.6091 44.8218 51.772 44.7257 51.9362C44.654 52.0591 44.5856 52.1841 44.5115 52.3054C44.4163 52.4614 44.3187 52.6152 44.2201 52.7687C44.0545 53.026 43.884 53.2797 43.7086 53.5301C43.5904 53.6987 43.4701 53.8657 43.3477 54.0308C43.2696 54.1364 43.1872 54.2386 43.1072 54.3427C43.01 54.4692 42.9147 54.5973 42.8149 54.7217C41.995 55.7435 41.0905 56.6946 40.1109 57.5649L40.1001 57.5744C39.8916 57.7596 39.6584 57.9153 39.4434 58.0931C35.9135 61.1087 31.5155 62.9267 26.8837 63.2849C26.2474 63.3432 25.6136 63.412 24.9637 63.4185C24.8855 63.4193 24.8088 63.4258 24.7304 63.4258C23.5107 63.4208 22.2933 63.3191 21.0897 63.1215L21.0896 63.1216L21.0896 63.1215C19.5974 62.889 18.1318 62.5104 16.7138 61.9913L16.6092 61.9483C15.7106 61.6076 14.8343 61.2114 13.9851 60.7618C13.8262 60.6782 13.6678 60.5942 13.511 60.5071C9.29784 58.1698 5.91497 54.5845 3.82919 50.246C2.58221 47.6316 1.83923 44.8063 1.63907 41.9175C1.60218 41.3848 1.57657 40.8491 1.57657 40.3074C1.57657 39.9948 1.58794 39.6849 1.60023 39.3753C2.62446 38.9897 3.67281 38.6712 4.73859 38.4219C4.81561 38.403 4.89061 38.3836 4.96874 38.3654C5.24975 38.2995 5.50237 38.2213 5.79688 38.1621L5.84819 38.1507C7.47679 37.8345 9.12857 37.6518 10.787 37.6045H10.7871C11.1862 37.5913 11.5838 37.5769 12.0003 37.5779C13.339 37.5883 14.6762 37.6678 16.0066 37.8163C17.9979 38.0294 19.9731 38.373 21.9192 38.8448C22.1795 38.9077 22.4484 38.9815 22.7132 39.0501C22.9704 39.1167 23.2233 39.178 23.4841 39.2493C24.409 39.5022 25.3566 39.7844 26.3324 40.105C27.6001 40.5214 28.8056 40.8678 29.9575 41.157C38.9369 43.4113 44.4794 42.0013 47.7838 40.0091C47.814 39.9908 47.8456 39.973 47.8755 39.9546C47.8771 40.0539 47.8814 40.1525 47.8831 40.2518V40.2522C47.8832 40.2721 47.8844 40.2918 47.8844 40.3117V40.3119L47.8845 40.3173C47.8844 40.63 47.8732 40.9398 47.8608 41.2494Z" fill="#170D35"/>
<path d="M58.3062 41.1384V23.8623H64.9637C71.4938 23.8623 74.8048 26.6981 74.8048 32.291C74.8048 34.9653 73.8942 37.134 72.0984 38.7371C70.313 40.3305 67.9126 41.1384 64.9637 41.1384L58.3062 41.1384ZM64.6527 37.4263C66.2923 37.4263 67.5906 36.9686 68.5115 36.0656C69.4301 35.1638 69.8961 33.9099 69.8961 32.3385C69.8961 30.8628 69.4369 29.6906 68.5316 28.8549C67.6185 28.0125 66.3051 27.5855 64.6279 27.5855H63.0036V37.4264L64.6527 37.4263Z" fill="#170D35"/>
<path d="M64.9636 24.2021C71.2974 24.2021 74.4643 26.8984 74.4643 32.291C74.4643 34.8761 73.6 36.9402 71.8714 38.4835C70.1428 40.0263 67.8402 40.7979 64.9636 40.7983H58.6466V24.2021H64.9636ZM62.6631 37.7662H64.6526C66.3939 37.7662 67.7597 37.2802 68.75 36.3081C69.7407 35.3355 70.2362 34.0123 70.2364 32.3383C70.2364 30.7569 69.7452 29.5125 68.7627 28.6052C67.78 27.6986 66.4017 27.2454 64.6278 27.2454H62.6631V37.7662V37.7662ZM64.9636 23.5222H57.9657V41.4782H64.9636C67.9988 41.4782 70.4756 40.6412 72.3252 38.9904C74.1964 37.3202 75.1452 35.0662 75.1452 32.291C75.1452 29.399 74.2656 27.1837 72.5309 25.7068C70.8283 24.2572 68.2823 23.5222 64.9637 23.5222H64.9636ZM63.344 27.9252H64.6278C66.2166 27.9252 67.4523 28.322 68.3006 29.1045C69.145 29.8839 69.5555 30.9418 69.5555 32.3383C69.5555 33.8359 69.1359 34.9759 68.2726 35.8232C67.4058 36.6731 66.2215 37.0863 64.6526 37.0863H63.344V27.9252V27.9252Z" fill="#EAEAEA"/>
<path d="M84.5209 23.8621H79.8241V41.1381H84.5209V23.8621Z" fill="#170D35"/>
<path d="M84.1805 24.2018V40.7981H80.1647V24.2018H84.1805H84.1805ZM84.8614 23.522H79.4838V41.4779H84.8614V23.522Z" fill="#EAEAEA"/>
<path d="M99.1197 41.4271C96.1779 41.4271 93.8193 40.6522 92.1094 39.124C90.3882 37.5868 89.5155 35.4478 89.5155 32.7665C89.5155 30.0705 90.4649 27.84 92.3373 26.1372C94.2003 24.4432 96.7042 23.5844 99.7794 23.5844C101.511 23.5563 103.236 23.8082 104.887 24.3305L105.118 24.4085V28.7288L104.616 28.4583C103.101 27.7035 101.422 27.336 99.73 27.3885C98.14 27.3885 96.8849 27.8516 95.8933 28.804C94.9048 29.7533 94.4243 30.9925 94.4243 32.5922C94.4243 34.1953 94.8655 35.4459 95.7354 36.3097C96.6054 37.1736 97.8071 37.6116 99.3071 37.6116C99.9669 37.6316 100.625 37.5398 101.255 37.3403V34.668H97.685V31.0021H105.952V39.8906L105.772 39.9869C103.991 40.9426 101.753 41.4271 99.1197 41.4271Z" fill="#170D35"/>
<path d="M99.7794 23.9244C101.474 23.895 103.162 24.1411 104.778 24.6528V28.1593C103.403 27.4184 101.72 27.0482 99.7299 27.0486C98.9847 27.0184 98.2409 27.1364 97.5417 27.3957C96.8426 27.655 96.202 28.0505 95.6572 28.5591C94.6083 29.5664 94.0838 30.9109 94.0838 32.5923C94.0838 34.2983 94.5543 35.6178 95.4953 36.5509C96.4359 37.4848 97.7065 37.9517 99.3071 37.9517C100.088 37.9834 100.867 37.8532 101.595 37.5695V34.3281H98.0253V31.3421H105.611V39.6876C103.871 40.6215 101.707 41.088 99.1198 41.0872C96.2513 41.0872 93.9901 40.3484 92.3365 38.8707C90.6828 37.3939 89.8559 35.3592 89.8559 32.7667C89.8559 30.1579 90.7595 28.0319 92.5666 26.3887C94.3741 24.745 96.7784 23.9235 99.7794 23.9244H99.7794ZM99.7794 23.2445C96.6166 23.2445 94.0356 24.1332 92.1081 25.886C90.1619 27.6558 89.175 29.9708 89.175 32.7667C89.175 35.5488 90.086 37.773 91.8826 39.3775C93.6565 40.963 96.0915 41.767 99.1198 41.767C101.81 41.767 104.103 41.2689 105.934 40.2864L106.292 40.094V30.6623H97.3444V35.008H100.914V37.0923C100.389 37.2229 99.8484 37.2833 99.3071 37.2719C97.8806 37.2719 96.7908 36.8783 95.9755 36.0688C95.1608 35.2599 94.7647 34.1227 94.7647 32.5923C94.7647 31.0899 95.211 29.9309 96.1292 29.049C97.0545 28.1604 98.2323 27.7285 99.7299 27.7285C101.366 27.6762 102.989 28.0298 104.455 28.7577L105.459 29.2986V24.1646L104.995 24.0086C103.31 23.4744 101.548 23.2164 99.7794 23.2445H99.7794Z" fill="#EAEAEA"/>
<path d="M116.178 23.8621H111.48V41.1381H116.178V23.8621Z" fill="#170D35"/>
<path d="M115.837 24.2018V40.7981H111.821V24.2018H115.837ZM116.518 23.522H111.14V41.4779H116.518V23.522Z" fill="#EAEAEA"/>
<path d="M125.699 41.1383V27.5856H120.637V23.8623H135.495V27.5856H130.408V41.1383H125.699Z" fill="#170D35"/>
<path d="M135.154 24.2018V27.2451H130.068V40.7981H126.039V27.2451H120.978V24.2018H135.154ZM135.835 23.522H120.297V27.925H125.358V41.4779H130.748V27.925H135.835V23.522Z" fill="#EAEAEA"/>
<path d="M149.576 41.1383L148.308 37.4463H142.453L141.197 41.1383H136.102L142.86 23.8623H148.09L154.691 41.1383H149.576ZM147.154 33.8962L145.394 28.7677C145.381 28.7281 145.367 28.6876 145.355 28.6466C145.346 28.672 143.544 33.8962 143.544 33.8962H147.154Z" fill="#170D35"/>
<path d="M147.855 24.2018L154.197 40.7981H149.819L148.551 37.106H142.209L140.953 40.7981H136.601L143.092 24.2018H147.855H147.855ZM143.067 34.2358H147.631L145.716 28.6572C145.561 28.1724 145.46 27.6715 145.418 27.1642H145.317C145.275 27.6575 145.17 28.1436 145.007 28.6112L143.067 34.2358ZM148.324 23.522H142.627L142.458 23.9545L135.966 40.5508L135.604 41.4779H141.441L141.598 41.0168L142.697 37.7859H148.065L149.175 41.0187L149.333 41.4779H155.186L154.833 40.5557L148.492 23.9595L148.324 23.522ZM144.022 33.5559L145.353 29.6962L146.678 33.5559H144.022Z" fill="#EAEAEA"/>
<path d="M158.822 41.1383V23.8623H163.519V37.4262H170.123V41.1383H158.822Z" fill="#170D35"/>
<path d="M163.179 24.2018V37.766H169.783V40.7981H159.162V24.2018H163.179ZM163.86 23.522H158.481V41.4779H170.464V37.0861H163.86V23.522Z" fill="#EAEAEA"/>
<path d="M191.524 41.1383L186.305 33.8988V41.1383H181.608V23.8623H186.305V30.8479L191.274 23.8623H196.938L190.451 32.1189L197.467 41.1383H191.524Z" fill="#170D35"/>
<path d="M196.238 24.2018L190.019 32.1177L196.772 40.7981H191.698L186.5 33.587C186.32 33.2949 186.162 32.9893 186.028 32.673H185.965V40.7981H181.949V24.2018H185.965V32.0479H186.028C186.127 31.8325 186.293 31.5241 186.526 31.1228L191.449 24.2018H196.238H196.238ZM197.637 23.522H191.098L190.894 23.8081L186.646 29.7796V23.522H181.268V41.4779H186.646V34.953L191.145 41.1952L191.349 41.4779H198.163L197.309 40.381L190.883 32.1197L196.773 24.6214L197.637 23.522Z" fill="#EAEAEA"/>
<path d="M205.573 23.8621H200.875V41.1381H205.573V23.8621Z" fill="#170D35"/>
<path d="M205.233 24.2018V40.7981H201.216V24.2018H205.233ZM205.914 23.522H200.535V41.4779H205.914V23.522Z" fill="#EAEAEA"/>
<path d="M215.094 41.1383V27.5856H210.033V23.8623H224.89V27.5856H219.804V41.1383H215.094Z" fill="#170D35"/>
<path d="M224.55 24.2018V27.2451H219.463V40.7981H215.434V27.2451H210.373V24.2018H224.55ZM225.231 23.522H209.692V27.925H214.754V41.4779H220.144V27.925H225.231V23.522Z" fill="#EAEAEA"/>
<defs>
<linearGradient id="paint0_linear" x1="2.53238" y1="60.0536" x2="49.0734" y2="64.6812" gradientUnits="userSpaceOnUse">
<stop stop-color="#CCCCCC"/>
<stop offset="1" stop-color="#F2F2F2"/>
</linearGradient>
<linearGradient id="paint1_linear" x1="319.976" y1="1239.23" x2="762.48" y2="1239.23" gradientUnits="userSpaceOnUse">
<stop stop-color="#CCCCCC"/>
<stop offset="1" stop-color="#F2F2F2"/>
</linearGradient>
<linearGradient id="paint2_linear" x1="157.553" y1="1583.4" x2="466.388" y2="1583.4" gradientUnits="userSpaceOnUse">
<stop stop-color="#CCCCCC"/>
<stop offset="1" stop-color="#F2F2F2"/>
</linearGradient>
<linearGradient id="paint3_linear" x1="243.329" y1="1495.6" x2="579.276" y2="1495.6" gradientUnits="userSpaceOnUse">
<stop stop-color="#CCCCCC"/>
<stop offset="1" stop-color="#F2F2F2"/>
</linearGradient>
<linearGradient id="paint4_linear" x1="1.57659" y1="38.7665" x2="47.8845" y2="38.7665" gradientUnits="userSpaceOnUse">
<stop stop-color="#FF00FF"/>
<stop offset="1" stop-color="#0000FF"/>
</linearGradient>
<linearGradient id="paint5_linear" x1="902.743" y1="5137.86" x2="2660.13" y2="5137.86" gradientUnits="userSpaceOnUse">
<stop stop-color="#FF00FF"/>
<stop offset="1" stop-color="#0000FF"/>
</linearGradient>
<linearGradient id="paint6_linear" x1="97.9064" y1="383.282" x2="266.633" y2="383.282" gradientUnits="userSpaceOnUse">
<stop stop-color="#FF00FF"/>
<stop offset="1" stop-color="#0000FF"/>
</linearGradient>
<linearGradient id="paint7_linear" x1="215.956" y1="247.581" x2="601.995" y2="247.581" gradientUnits="userSpaceOnUse">
<stop stop-color="#FF00FF"/>
<stop offset="1" stop-color="#0000FF"/>
</linearGradient>
<linearGradient id="paint8_linear" x1="67.7075" y1="221.015" x2="172.704" y2="221.015" gradientUnits="userSpaceOnUse">
<stop stop-color="#FF00FF"/>
<stop offset="1" stop-color="#0000FF"/>
</linearGradient>
<linearGradient id="paint9_linear" x1="60.4222" y1="346.468" x2="162.855" y2="346.468" gradientUnits="userSpaceOnUse">
<stop stop-color="#FF00FF"/>
<stop offset="1" stop-color="#0000FF"/>
</linearGradient>
<linearGradient id="paint10_linear" x1="82.811" y1="393.175" x2="225.678" y2="393.175" gradientUnits="userSpaceOnUse">
<stop stop-color="#FF00FF"/>
<stop offset="1" stop-color="#0000FF"/>
</linearGradient>
<linearGradient id="paint11_linear" x1="384.935" y1="346.654" x2="1090.11" y2="346.654" gradientUnits="userSpaceOnUse">
<stop stop-color="#FF00FF"/>
<stop offset="1" stop-color="#0000FF"/>
</linearGradient>
<linearGradient id="paint12_linear" x1="95.9238" y1="120.341" x2="241.923" y2="120.341" gradientUnits="userSpaceOnUse">
<stop stop-color="#FF00FF"/>
<stop offset="1" stop-color="#0000FF"/>
</linearGradient>
<linearGradient id="paint13_linear" x1="88.9669" y1="200.341" x2="230.463" y2="200.341" gradientUnits="userSpaceOnUse">
<stop stop-color="#FF00FF"/>
<stop offset="1" stop-color="#0000FF"/>
</linearGradient>
<linearGradient id="paint14_linear" x1="29.0017" y1="-7.96455" x2="66.5139" y2="75.2682" gradientUnits="userSpaceOnUse">
<stop stop-color="#C800FF"/>
<stop offset="1" stop-color="#2A00FF"/>
</linearGradient>
<linearGradient id="paint15_linear" x1="123.788" y1="196.535" x2="329.103" y2="196.535" gradientUnits="userSpaceOnUse">
<stop stop-color="#FF00FF"/>
<stop offset="1" stop-color="#0000FF"/>
</linearGradient>
<linearGradient id="paint16_linear" x1="235.755" y1="1229.79" x2="662.583" y2="1229.79" gradientUnits="userSpaceOnUse">
<stop stop-color="#FF00FF"/>
<stop offset="1" stop-color="#0000FF"/>
</linearGradient>
<linearGradient id="paint17_linear" x1="67.6528" y1="315.842" x2="165.333" y2="315.842" gradientUnits="userSpaceOnUse">
<stop stop-color="#CCCCCC"/>
<stop offset="1" stop-color="#F2F2F2"/>
</linearGradient>
<linearGradient id="paint18_linear" x1="113.552" y1="792.352" x2="297.889" y2="792.352" gradientUnits="userSpaceOnUse">
<stop stop-color="#CCCCCC"/>
<stop offset="1" stop-color="#F2F2F2"/>
</linearGradient>
<linearGradient id="paint19_linear" x1="75.791" y1="432.751" x2="191.024" y2="432.751" gradientUnits="userSpaceOnUse">
<stop stop-color="#CCCCCC"/>
<stop offset="1" stop-color="#F2F2F2"/>
</linearGradient>
<linearGradient id="paint20_linear" x1="44.7293" y1="184.405" x2="99.3225" y2="184.405" gradientUnits="userSpaceOnUse">
<stop stop-color="#CCCCCC"/>
<stop offset="1" stop-color="#F2F2F2"/>
</linearGradient>
<linearGradient id="paint21_linear" x1="65.3486" y1="113.969" x2="179.12" y2="113.969" gradientUnits="userSpaceOnUse">
<stop stop-color="#CCCCCC"/>
<stop offset="1" stop-color="#F2F2F2"/>
</linearGradient>
<linearGradient id="paint22_linear" x1="112.439" y1="217.264" x2="352.614" y2="217.264" gradientUnits="userSpaceOnUse">
<stop stop-color="#CCCCCC"/>
<stop offset="1" stop-color="#F2F2F2"/>
</linearGradient>
<linearGradient id="paint23_linear" x1="160.187" y1="399.559" x2="528.892" y2="399.559" gradientUnits="userSpaceOnUse">
<stop stop-color="#CCCCCC"/>
<stop offset="1" stop-color="#F2F2F2"/>
</linearGradient>
<linearGradient id="paint24_linear" x1="67.6325" y1="226.85" x2="205.183" y2="226.85" gradientUnits="userSpaceOnUse">
<stop stop-color="#CCCCCC"/>
<stop offset="1" stop-color="#F2F2F2"/>
</linearGradient>
<linearGradient id="paint25_linear" x1="9.95872" y1="41.8087" x2="20.4665" y2="41.8087" gradientUnits="userSpaceOnUse">
<stop stop-color="#CCCCCC"/>
<stop offset="1" stop-color="#F2F2F2"/>
</linearGradient>
<linearGradient id="paint26_linear" x1="54.6314" y1="89.8391" x2="103.809" y2="89.8391" gradientUnits="userSpaceOnUse">
<stop stop-color="#CCCCCC"/>
<stop offset="1" stop-color="#F2F2F2"/>
</linearGradient>
<linearGradient id="paint27_linear" x1="236.58" y1="119.695" x2="550.225" y2="119.695" gradientUnits="userSpaceOnUse">
<stop stop-color="#CCCCCC"/>
<stop offset="1" stop-color="#F2F2F2"/>
</linearGradient>
<linearGradient id="paint28_linear" x1="55.2492" y1="68.4333" x2="99.9591" y2="68.4333" gradientUnits="userSpaceOnUse">
<stop stop-color="#CCCCCC"/>
<stop offset="1" stop-color="#F2F2F2"/>
</linearGradient>
<linearGradient id="paint29_linear" x1="1751.12" y1="10692.1" x2="7461.72" y2="10692.1" gradientUnits="userSpaceOnUse">
<stop stop-color="#CCCCCC"/>
<stop offset="1" stop-color="#F2F2F2"/>
</linearGradient>
</defs>
</svg>
