<svg width="24" height="24" viewBox="0 0 24 24" fill="none" xmlns="http://www.w3.org/2000/svg">
<path d="M23.0625 16.5C23.5803 16.5 24 16.0803 24 15.5625V9.033C24 7.74839 23.3541 6.5678 22.2722 5.87498L20.0156 4.43002V0.9375C20.0156 0.419719 19.5959 0 19.0781 0H4.92188C4.40409 0 3.98438 0.419719 3.98438 0.9375V4.42608L1.72936 5.86856C0.6465 6.56119 0 7.74211 0 9.02756V20.25C0 22.3177 1.68225 24 3.75 24H20.25C22.3177 24 24 22.3177 24 20.25C24 19.7322 23.5803 19.3125 23.0625 19.3125C22.5447 19.3125 22.125 19.7322 22.125 20.25C22.125 21.2839 21.2839 22.125 20.25 22.125H3.75C2.71613 22.125 1.875 21.2839 1.875 20.25V10.2485L10.0198 15.3131C10.6305 15.6929 11.3153 15.8827 12 15.8827C12.6847 15.8827 13.3695 15.6928 13.9802 15.3131L22.125 10.2485V15.5625C22.125 16.0803 22.5447 16.5 23.0625 16.5ZM21.2611 7.45402C21.5441 7.63523 21.7667 7.88363 21.9154 8.17092L20.0156 9.35222V6.65644L21.2611 7.45402ZM2.73966 7.44811L3.98438 6.65189V9.35222L2.08252 8.16961C2.2313 7.8803 2.45489 7.63022 2.73966 7.44811ZM12.9901 13.7209C12.3794 14.1006 11.6205 14.1006 11.0099 13.7209L5.85938 10.5181V1.875H18.1406V10.5181L12.9901 13.7209ZM12.9375 7.45312V11.1094C12.9375 11.6272 12.5178 12.0469 12 12.0469C11.4822 12.0469 11.0625 11.6272 11.0625 11.1094V7.45312C11.0625 6.93534 11.4822 6.51562 12 6.51562C12.5178 6.51562 12.9375 6.93534 12.9375 7.45312ZM12.9375 4.40625C12.9375 4.92403 12.5178 5.34375 12 5.34375C11.4822 5.34375 11.0625 4.92403 11.0625 4.40625C11.0625 3.88847 11.4822 3.46875 12 3.46875C12.5178 3.46875 12.9375 3.88847 12.9375 4.40625Z" fill="url(#paint0_linear)"/>
<defs>
<linearGradient id="paint0_linear" x1="13.0201" y1="-4.69231" x2="24.7304" y2="31.7965" gradientUnits="userSpaceOnUse">
<stop stop-color="#C800FF"/>
<stop offset="1" stop-color="#2A00FF"/>
</linearGradient>
</defs>
</svg>
