<svg width="46" height="46" viewBox="0 0 46 46" fill="none" xmlns="http://www.w3.org/2000/svg">
<path d="M8.98438 14.375C11.9569 14.375 14.375 11.9569 14.375 8.98437C14.375 6.01181 11.9569 3.59375 8.98438 3.59375C6.01181 3.59375 3.59375 6.01181 3.59375 8.98438C3.59375 11.9569 6.01181 14.375 8.98438 14.375ZM8.98438 7.1875C9.97511 7.1875 10.7813 7.99364 10.7813 8.98437C10.7813 9.97511 9.97511 10.7812 8.98438 10.7812C7.99364 10.7812 7.1875 9.97511 7.1875 8.98437C7.1875 7.99364 7.99364 7.1875 8.98438 7.1875ZM37.0156 14.375C39.9882 14.375 42.4062 11.9569 42.4062 8.98437C42.4062 6.01181 39.9882 3.59375 37.0156 3.59375C34.0431 3.59375 31.625 6.01181 31.625 8.98437C31.625 11.9569 34.0431 14.375 37.0156 14.375ZM37.0156 7.1875C38.0064 7.1875 38.8125 7.99364 38.8125 8.98437C38.8125 9.97511 38.0064 10.7812 37.0156 10.7812C36.0249 10.7812 35.2188 9.97511 35.2188 8.98437C35.2188 7.99364 36.0249 7.1875 37.0156 7.1875ZM46 21.4727L46 29.3789C46 31.7215 44.4979 33.7198 42.4063 34.4617V44.2031C42.4063 45.1956 41.6019 46 40.6094 46C39.6169 46 38.8125 45.1956 38.8125 44.2031V32.9727C38.8125 31.9802 39.6169 31.1758 40.6094 31.1758C41.6001 31.1758 42.4063 30.3696 42.4063 29.3789L42.4062 21.4727C42.4062 20.4819 41.6001 19.6758 40.6094 19.6758H37.375C36.3825 19.6758 35.5781 18.8714 35.5781 17.8789C35.5781 16.8864 36.3825 16.082 37.375 16.082H40.6094C43.5819 16.082 46 18.5001 46 21.4727ZM35.2188 32.9727V44.2031C35.2188 45.1956 34.4144 46 33.4219 46C32.4294 46 31.625 45.1956 31.625 44.2031V34.4617C30.5651 34.0859 29.6572 33.3871 29.0188 32.4845C28.8163 32.5873 28.6068 32.6779 28.3906 32.7547L28.3906 44.2031C28.3906 45.1956 27.5862 46 26.5938 46C25.6013 46 24.7969 45.1956 24.7969 44.2031L24.7969 31.2656C24.7969 30.2731 25.6013 29.4687 26.5938 29.4687C27.5845 29.4687 28.3906 28.6626 28.3906 27.6719V17.8789C28.3906 16.8882 27.5845 16.082 26.5938 16.082H19.4063C18.4155 16.082 17.6094 16.8882 17.6094 17.8789V27.6719C17.6094 28.6626 18.4155 29.4687 19.4063 29.4687C20.3987 29.4687 21.2031 30.2731 21.2031 31.2656L21.2031 44.2031C21.2031 45.1956 20.3987 46 19.4063 46C18.4138 46 17.6094 45.1956 17.6094 44.2031L17.6094 32.7547C17.3932 32.6779 17.1837 32.5873 16.9812 32.4845C16.3428 33.3871 15.4349 34.0859 14.375 34.4617L14.375 44.2031C14.375 45.1956 13.5706 46 12.5781 46C11.5856 46 10.7813 45.1956 10.7813 44.2031L10.7813 32.9727C10.7813 31.9802 11.5856 31.1758 12.5781 31.1758C13.5022 31.1758 14.2648 30.4746 14.3634 29.5765C14.1392 28.9841 14.0156 28.3422 14.0156 27.6719L14.0156 17.8789C14.0156 14.9063 16.4337 12.4883 19.4063 12.4883H26.5938C29.5663 12.4883 31.9844 14.9063 31.9844 17.8789V27.6719C31.9844 28.3422 31.8608 28.9841 31.6366 29.5765C31.7352 30.4746 32.4978 31.1758 33.4219 31.1758C34.4144 31.1758 35.2188 31.9802 35.2188 32.9727ZM10.4219 17.8789C10.4219 18.8714 9.61749 19.6758 8.625 19.6758H5.39063C4.39989 19.6758 3.59375 20.4819 3.59375 21.4727L3.59375 29.3789C3.59375 30.3696 4.39989 31.1758 5.39063 31.1758C6.38312 31.1758 7.1875 31.9802 7.1875 32.9727L7.1875 44.2031C7.1875 45.1956 6.38312 46 5.39063 46C4.39813 46 3.59375 45.1956 3.59375 44.2031L3.59375 34.4617C1.50208 33.7198 0 31.7215 0 29.3789L0 21.4727C0 18.5001 2.41806 16.082 5.39063 16.082H8.625C9.61749 16.082 10.4219 16.8864 10.4219 17.8789ZM23 10.7812C25.9726 10.7812 28.3906 8.36319 28.3906 5.39062C28.3906 2.41806 25.9726 0 23 0C20.0274 0 17.6094 2.41806 17.6094 5.39062C17.6094 8.36319 20.0274 10.7812 23 10.7812ZM23 3.59375C23.9907 3.59375 24.7969 4.39989 24.7969 5.39062C24.7969 6.38136 23.9907 7.1875 23 7.1875C22.0093 7.1875 21.2031 6.38136 21.2031 5.39062C21.2031 4.39989 22.0093 3.59375 23 3.59375Z" fill="#C4C4C4"/>
</svg>
