<svg width="46" height="46" viewBox="0 0 46 46" fill="none" xmlns="http://www.w3.org/2000/svg">
<path d="M7.1875 31.2656V44.2031C7.1875 45.1956 6.38312 46 5.39062 46C4.39813 46 3.59375 45.1956 3.59375 44.2031V32.7547C1.50208 32.0128 0 30.0145 0 27.6719V17.8789C0 14.9063 2.41806 12.4883 5.39062 12.4883H12.5781C14.4964 12.4883 16.2852 13.5204 17.2465 15.1822C17.7434 16.0413 17.45 17.1405 16.5909 17.6375C15.7318 18.1344 14.6326 17.8407 14.1357 16.9819C13.8145 16.4267 13.2179 16.082 12.5781 16.082H5.39062C4.39989 16.082 3.59375 16.8882 3.59375 17.8789V27.6719C3.59375 28.6626 4.39989 29.4688 5.39062 29.4688C6.38312 29.4688 7.1875 30.2731 7.1875 31.2656ZM12.5781 36.6562C11.5856 36.6562 10.7812 37.4606 10.7812 38.4531V44.2031C10.7812 45.1956 11.5856 46 12.5781 46C13.5706 46 14.375 45.1956 14.375 44.2031V38.4531C14.375 37.4606 13.5706 36.6562 12.5781 36.6562ZM3.59375 5.39062C3.59375 2.41806 6.01181 0 8.98438 0C11.9569 0 14.375 2.41806 14.375 5.39062C14.375 8.36319 11.9569 10.7812 8.98438 10.7812C6.01181 10.7812 3.59375 8.36319 3.59375 5.39062ZM7.1875 5.39062C7.1875 6.38136 7.99364 7.1875 8.98438 7.1875C9.97511 7.1875 10.7812 6.38136 10.7812 5.39062C10.7812 4.39989 9.97511 3.59375 8.98438 3.59375C7.99364 3.59375 7.1875 4.39989 7.1875 5.39062ZM33.4219 36.6562C32.4294 36.6562 31.625 37.4606 31.625 38.4531V44.2031C31.625 45.1956 32.4294 46 33.4219 46C34.4144 46 35.2188 45.1956 35.2188 44.2031V38.4531C35.2188 37.4606 34.4144 36.6562 33.4219 36.6562ZM40.6094 12.4883H33.4219C31.5036 12.4883 29.7148 13.5204 28.7535 15.1822C28.2566 16.0413 28.55 17.1405 29.4091 17.6375C30.2679 18.1344 31.3674 17.8407 31.8643 16.9819C32.1855 16.4267 32.7821 16.082 33.4219 16.082H40.6094C41.6001 16.082 42.4062 16.8882 42.4062 17.8789V27.6719C42.4062 28.6626 41.6001 29.4688 40.6094 29.4688C39.6169 29.4688 38.8125 30.2731 38.8125 31.2656V44.2031C38.8125 45.1956 39.6169 46 40.6094 46C41.6019 46 42.4062 45.1956 42.4062 44.2031V32.7547C44.4979 32.0132 46 30.0145 46 27.6719V17.8789C46 14.9063 43.5819 12.4883 40.6094 12.4883ZM31.625 5.39062C31.625 2.41806 34.0431 0 37.0156 0C39.9882 0 42.4062 2.41806 42.4062 5.39062C42.4062 8.36319 39.9882 10.7812 37.0156 10.7812C34.0431 10.7812 31.625 8.36319 31.625 5.39062ZM35.2188 5.39062C35.2188 6.38136 36.0249 7.1875 37.0156 7.1875C38.0064 7.1875 38.8125 6.38136 38.8125 5.39062C38.8125 4.39989 38.0064 3.59375 37.0156 3.59375C36.0249 3.59375 35.2188 4.39989 35.2188 5.39062ZM31.7598 33.2166C31.3814 34.0185 30.4742 34.4242 29.6249 34.1729L27.5824 33.5686C27.0753 33.9897 26.5148 34.3375 25.9136 34.6035L25.583 36.6706C25.4433 37.5424 24.6912 38.1836 23.8086 38.1836H22.1914C21.3217 38.1836 20.577 37.561 20.423 36.705L20.0408 34.5821C19.5487 34.36 19.083 34.0824 18.6524 33.7546L16.6786 34.4642C15.8536 34.7608 14.9348 34.4189 14.5049 33.6549L13.7075 32.2388C13.2769 31.4737 13.4622 30.5097 14.1451 29.9587L15.8346 28.5959C15.8315 28.5563 15.83 28.5159 15.8276 28.4759C15.8251 28.438 15.8227 28.3997 15.8209 28.3615C15.8157 28.2516 15.8125 28.1414 15.8125 28.0312C15.8125 27.9144 15.8153 27.7975 15.8213 27.6806L14.0904 26.5155C13.3193 25.9964 13.0712 24.9755 13.5183 24.1606L14.355 22.6354C14.7614 21.8941 15.6297 21.5365 16.4404 21.7766L18.5362 22.3967C18.997 22.031 19.4996 21.7243 20.0345 21.4821L20.3222 19.4266C20.4461 18.539 21.2052 17.8789 22.1016 17.8789H23.8086C24.6783 17.8789 25.423 18.5015 25.577 19.3575L25.9592 21.4804C25.9943 21.4962 26.0284 21.5144 26.0631 21.5309C26.1003 21.5485 26.1368 21.5664 26.1737 21.5846C26.2491 21.6218 26.3246 21.6601 26.3986 21.7001C26.4235 21.7134 26.4478 21.7274 26.4723 21.7408C26.5562 21.7871 26.6394 21.8345 26.7215 21.8843C26.7261 21.8868 26.7303 21.8899 26.7345 21.8924C26.9282 22.0107 27.1174 22.1363 27.2995 22.2725L29.2396 21.5316C30.0412 21.2252 30.948 21.5292 31.4035 22.2567L32.3395 23.7514C32.8288 24.533 32.6473 25.5584 31.9187 26.1242L30.1668 27.4852C30.1696 27.521 30.1707 27.5571 30.1731 27.5933C30.1752 27.6298 30.1777 27.6666 30.1791 27.7031C30.1843 27.8126 30.1875 27.9218 30.1875 28.0312C30.1875 28.1246 30.1857 28.2183 30.1822 28.3117L31.8791 29.5561C32.5729 30.0647 32.8088 30.9936 32.4417 31.7717L31.7598 33.2166ZM19.4062 28.0312C19.4062 28.1 19.4087 28.1688 19.4126 28.2376C19.4136 28.2569 19.4154 28.2759 19.4168 28.2948C19.4206 28.3447 19.4252 28.3948 19.4308 28.4447C19.4333 28.4664 19.4361 28.4878 19.4389 28.5092C19.4452 28.557 19.4526 28.6047 19.461 28.6521C19.4649 28.6735 19.4684 28.6949 19.4726 28.7163C19.4821 28.7651 19.4929 28.8139 19.5042 28.8623C19.6551 29.4961 19.9737 30.065 20.411 30.5199C20.4423 30.5525 20.4742 30.5844 20.5065 30.6157C20.5289 30.6374 20.5514 30.6592 20.5742 30.6802C20.6212 30.7238 20.6697 30.7655 20.7188 30.8062C20.7451 30.828 20.7729 30.8487 20.7999 30.8701C20.8294 30.8929 20.8588 30.9154 20.889 30.9371C20.9192 30.9592 20.9494 30.981 20.9799 31.0021C21.015 31.0259 21.0505 31.0484 21.0863 31.0708C21.1333 31.1007 21.181 31.1291 21.2291 31.1568C21.2596 31.174 21.2898 31.1909 21.3203 31.207C21.3537 31.2249 21.3874 31.2421 21.4214 31.259C21.4586 31.2772 21.4962 31.2944 21.5337 31.3112C21.5783 31.3313 21.6232 31.3502 21.6685 31.3681C21.7113 31.3853 21.7545 31.4021 21.7983 31.4176C21.8275 31.4281 21.8566 31.4379 21.8861 31.4474C21.9359 31.4636 21.9857 31.4787 22.0359 31.4927C22.343 31.5783 22.6662 31.625 23 31.625C23.3046 31.625 23.6005 31.5864 23.883 31.5148C23.9585 31.4958 24.0329 31.4737 24.1062 31.4499C24.1322 31.4418 24.1574 31.433 24.1827 31.4239C24.2361 31.4057 24.2887 31.3857 24.3406 31.3646C24.3831 31.3474 24.4249 31.3295 24.4666 31.3109C24.507 31.2926 24.5473 31.274 24.587 31.2544C24.6235 31.2365 24.66 31.2179 24.6962 31.1986C24.7302 31.1803 24.7639 31.1607 24.7976 31.141C24.8523 31.1091 24.9064 31.0761 24.9594 31.0414C24.9888 31.0221 25.018 31.0028 25.0468 30.9828C25.0797 30.9599 25.1124 30.9371 25.1447 30.9129C25.1966 30.8743 25.2475 30.834 25.2973 30.7922C25.3219 30.7718 25.3458 30.7504 25.3696 30.7297C25.4146 30.6897 25.4591 30.6494 25.5023 30.6069C25.5146 30.595 25.5276 30.5834 25.5398 30.5714C25.5949 30.516 25.6479 30.4581 25.6999 30.3991C26.1021 29.9411 26.3902 29.381 26.5186 28.7626C26.5267 28.7244 26.533 28.6858 26.5397 28.6472C26.5432 28.6268 26.5474 28.6061 26.5509 28.5854C26.5594 28.5303 26.5664 28.4749 26.5723 28.4194C26.573 28.4141 26.5737 28.4089 26.5744 28.4036C26.5874 28.2797 26.5938 28.1555 26.5938 28.0312C26.5938 27.9625 26.5913 27.8937 26.5874 27.8245C26.586 27.8052 26.5843 27.7859 26.5829 27.7666C26.5794 27.7168 26.5748 27.667 26.5692 27.6171C26.5664 27.5954 26.5636 27.5736 26.5608 27.5518C26.5544 27.5041 26.5471 27.4567 26.5387 27.4094C26.5348 27.388 26.5313 27.3662 26.5271 27.3444C26.5176 27.2953 26.5064 27.2465 26.4948 27.1974C26.3439 26.5636 26.0242 25.9947 25.5862 25.5398C25.5483 25.5005 25.5097 25.4623 25.47 25.4247C25.4542 25.4096 25.4391 25.3945 25.423 25.3798C25.3728 25.3338 25.3212 25.2896 25.2686 25.2464C25.2464 25.2285 25.224 25.2113 25.2015 25.1938C25.1661 25.1664 25.1303 25.1398 25.0941 25.1134C25.0692 25.0955 25.0443 25.0773 25.019 25.0601C24.9664 25.0239 24.9127 24.9895 24.8583 24.9566C24.8302 24.9394 24.8018 24.9236 24.773 24.9074C24.739 24.8878 24.7046 24.8688 24.6702 24.8506C24.6393 24.8344 24.6088 24.8183 24.5779 24.8032C24.5347 24.7821 24.4908 24.7621 24.447 24.7425C24.408 24.7253 24.3691 24.7091 24.3294 24.6933C24.2862 24.6761 24.2427 24.6593 24.1985 24.6439C24.1701 24.6337 24.1413 24.6239 24.1129 24.6147C24.063 24.5982 24.0128 24.5831 23.962 24.5691C23.6556 24.4838 23.3331 24.4371 22.9996 24.4371C22.6729 24.4371 22.3567 24.4821 22.0556 24.5642C22.0047 24.5779 21.9545 24.5926 21.9043 24.6084C21.8682 24.6203 21.832 24.6326 21.7962 24.6453C21.765 24.6561 21.7341 24.6684 21.7036 24.68C21.6281 24.7095 21.5541 24.7407 21.4814 24.7748C21.4663 24.7821 21.4509 24.7888 21.4358 24.7958C21.3895 24.8183 21.3442 24.8418 21.2989 24.866C21.2881 24.872 21.2772 24.8783 21.2663 24.8843C21.1722 24.9362 21.0806 24.992 20.9922 25.0517L20.9919 25.052C20.9462 25.0829 20.9013 25.1148 20.8571 25.1478C20.8504 25.1531 20.8438 25.158 20.8371 25.1633C20.7567 25.224 20.6795 25.2879 20.6048 25.3549C20.5963 25.3623 20.5876 25.37 20.5791 25.3777C20.5416 25.4117 20.5051 25.4465 20.4693 25.4823C20.4566 25.4946 20.4444 25.5076 20.4321 25.5202C19.9776 25.9848 19.6484 26.572 19.4982 27.2269C19.4838 27.2886 19.4715 27.3508 19.4606 27.4129C19.4599 27.4164 19.4592 27.4202 19.4585 27.4238C19.4477 27.4866 19.4389 27.5494 19.4315 27.6122C19.4308 27.6175 19.4301 27.6227 19.4294 27.628C19.4227 27.6877 19.4178 27.7473 19.414 27.807C19.4133 27.8154 19.4126 27.8235 19.4119 27.8319C19.4084 27.8986 19.4062 27.9649 19.4062 28.0312Z" fill="#F6F6F6"/>
</svg>
