<svg width="46" height="46" viewBox="0 0 46 46" fill="none" xmlns="http://www.w3.org/2000/svg">
<path d="M18.8714 13.0333C19.6997 14.3904 20.4819 15.6721 20.4819 16.9313V19.1536C20.4819 20.8122 21.6397 22.2026 23.1853 22.5539C23.2674 23.4604 23.9536 24.168 24.8843 24.168C25.8161 24.168 26.6611 23.4587 26.7608 22.5508C28.3085 22.1939 29.4663 20.8069 29.4663 19.1536V16.9313C29.4663 15.7409 30.1405 14.6101 30.9214 13.3007C31.9121 11.64 33.0334 9.75998 33.0597 7.25909C33.0597 7.24506 33.0601 7.23137 33.0601 7.21733V7.16925C33.0601 7.15521 33.0597 7.14153 33.0597 7.12749C33.0148 2.86026 29.7727 0 24.9632 0C22.7368 0 20.7785 0.6082 19.3003 1.75897C17.6522 3.04205 16.7341 4.94492 16.7088 7.12503C16.7085 7.13977 16.7085 7.15451 16.7085 7.16925V7.21733C16.7085 7.23418 16.7085 7.25102 16.7092 7.26787C16.7411 9.54204 17.8719 11.3954 18.8714 13.0333ZM25.8726 17.25V19.0469H24.0757V17.25H25.8726ZM24.9632 3.59375C26.3137 3.59375 29.4502 3.94505 29.466 7.19312C29.4586 8.73766 28.7058 10 27.8347 11.4603C27.4266 12.1451 26.9942 12.8705 26.6394 13.6562H23.3152C22.9158 12.7624 22.4129 11.9373 21.9391 11.1613C21.1021 9.78946 20.311 8.49339 20.3022 7.19136C20.3177 4.53922 22.7171 3.59375 24.9632 3.59375ZM38.0913 5.92969C39.0834 5.92969 39.8878 6.73407 39.8878 7.72656C39.8878 8.71906 39.0834 9.52344 38.0913 9.52344C37.0988 9.52344 36.2944 8.71906 36.2944 7.72656C36.2944 6.73407 37.0988 5.92969 38.0913 5.92969ZM35.0366 1.79688C35.0366 0.804382 35.841 0 36.8335 0C37.8256 0 38.6304 0.804382 38.6304 1.79688C38.6304 2.78937 37.8256 3.59375 36.8335 3.59375C35.841 3.59375 35.0366 2.78937 35.0366 1.79688ZM34.3179 13.3867C34.3179 12.3942 35.1223 11.5898 36.1147 11.5898C37.1069 11.5898 37.9116 12.3942 37.9116 13.3867C37.9116 14.3792 37.1069 15.1836 36.1147 15.1836C35.1223 15.1836 34.3179 14.3792 34.3179 13.3867ZM9.88037 7.63672C9.88037 6.64423 10.6848 5.83984 11.6772 5.83984C12.6694 5.83984 13.4741 6.64423 13.4741 7.63672C13.4741 8.62921 12.6694 9.43359 11.6772 9.43359C10.6848 9.43359 9.88037 8.62921 9.88037 7.63672ZM11.1382 1.79688C11.1382 0.804382 11.9426 0 12.9351 0C13.9272 0 14.7319 0.804382 14.7319 1.79688C14.7319 2.78937 13.9272 3.59375 12.9351 3.59375C11.9426 3.59375 11.1382 2.78937 11.1382 1.79688ZM13.564 11.5898C14.5561 11.5898 15.3608 12.3942 15.3608 13.3867C15.3608 14.3792 14.5561 15.1836 13.564 15.1836C12.5715 15.1836 11.7671 14.3792 11.7671 13.3867C11.7671 12.3942 12.5715 11.5898 13.564 11.5898ZM42.4035 35.2188V33.3426C42.4035 31.0579 40.5445 29.1992 38.2594 29.1992H21.021C20.0299 29.1992 19.2241 30.0054 19.2241 30.9961C19.2241 31.4221 19.3736 31.8131 19.6221 32.1212L19.9867 32.4547C19.998 32.4648 20.0074 32.4761 20.0183 32.4866C20.3051 32.68 20.65 32.793 21.021 32.793H30.0054C30.9975 32.793 31.8022 33.5974 31.8022 34.5898C31.8022 35.5823 30.9975 36.3867 30.0054 36.3867H21.021C19.4589 36.3867 18.0502 35.7182 17.0647 34.653L6.69303 25.1756C6.67723 25.1612 6.66179 25.1464 6.6467 25.1317C6.30838 24.7993 5.86197 24.6172 5.38854 24.6172C5.38292 24.6172 5.37696 24.6172 5.37134 24.6172C4.89124 24.6217 4.44167 24.813 4.10581 25.1555C3.7696 25.4981 3.58675 25.9512 3.59131 26.4309C3.59588 26.9036 3.78118 27.3465 4.11388 27.681L13.2572 36.1467C13.2671 36.1558 13.2769 36.1649 13.2864 36.174C17.4371 40.1928 22.9049 42.4062 28.6826 42.4062H44.2003C45.1928 42.4062 45.9972 43.2106 45.9972 44.2031C45.9972 45.1956 45.1928 46 44.2003 46H28.6826C25.3584 46 22.1107 45.3676 19.0293 44.1203C15.9543 42.8758 13.186 41.0754 10.8013 38.77L1.6502 30.2977C1.63721 30.2858 1.62493 30.2738 1.61229 30.2616C-0.509212 28.1794 -0.541149 24.76 1.5407 22.6385C2.54898 21.6109 3.89734 21.0371 5.3373 21.0238C6.76497 21.0083 8.11403 21.5492 9.13881 22.5424L16.067 28.8728C16.8927 26.9531 18.8023 25.6055 21.021 25.6055H38.2594C42.5263 25.6055 45.9972 29.0764 45.9972 33.3426V35.2188C45.9972 36.2112 45.1928 37.0156 44.2003 37.0156C43.2082 37.0156 42.4035 36.2112 42.4035 35.2188Z" fill="#F6F6F6"/>
</svg>
