<svg width="40" height="45" viewBox="0 0 40 45" fill="none" xmlns="http://www.w3.org/2000/svg">
<path d="M19.6875 45C17.0166 45 14.4041 44.3712 11.9226 43.1309C9.60592 41.9731 7.50902 40.3388 5.69013 38.2736C2.07395 34.1677 0 28.8028 0 23.5547V9.66799C0 8.97269 0.409834 8.34278 1.04537 8.061L18.8872 0.150845C19.3388 -0.0493697 19.8539 -0.0503364 20.3063 0.148296L38.3238 8.05845C38.9625 8.33891 39.375 8.97049 39.375 9.66799V23.5547C39.375 27.4235 38.2745 31.3202 36.1925 34.8238C35.6965 35.6584 34.618 35.9329 33.7833 35.4369C32.9487 34.9409 32.6742 33.8624 33.1702 33.0277C34.9295 30.0674 35.8594 26.7916 35.8594 23.5547V10.816L19.6031 3.67913L3.51562 10.8115V23.5547C3.51562 32.9384 11.2237 41.4844 19.6875 41.4844C22.679 41.4844 25.6037 40.5066 28.1453 38.6569C28.9303 38.0857 30.0297 38.2588 30.601 39.0438C31.1723 39.8287 30.999 40.9281 30.2141 41.4994C27.0674 43.7895 23.4274 45 19.6875 45ZM17.3206 31.0226C18.2523 30.9852 19.108 30.5818 19.7301 29.8871C19.7517 29.863 19.7727 29.8382 19.793 29.8129L30.8158 16.0397C31.4224 15.2817 31.2996 14.1756 30.5417 13.5689C29.7837 12.9623 28.6776 13.085 28.0709 13.8431L17.172 27.4615L11.0623 21.5847C10.3626 20.9118 9.24979 20.9333 8.57681 21.633C7.90383 22.3327 7.92536 23.4455 8.62506 24.1184L14.82 30.0773C14.8225 30.0796 14.825 30.082 14.8275 30.0845C15.469 30.6943 16.2993 31.0255 17.1789 31.0255C17.2261 31.0255 17.2733 31.0245 17.3206 31.0226Z" fill="#F6F6F6"/>
</svg>
