<svg width="46" height="46" viewBox="0 0 46 46" fill="none" xmlns="http://www.w3.org/2000/svg">
<path d="M44.7731 43.9903C43.7344 45.2675 42.1943 46 40.5476 46H32.434C31.4416 46 30.6372 45.1955 30.6372 44.2031C30.6372 43.2107 31.4416 42.4062 32.434 42.4062H40.5476C41.3146 42.4062 41.7773 41.9781 41.985 41.7229C42.3434 41.2822 42.4821 40.7086 42.3656 40.149C42.1632 39.1774 42.7868 38.2259 43.7585 38.0236C44.7299 37.8214 45.6816 38.4449 45.8838 39.4164C46.2218 41.0396 45.8169 42.7067 44.7731 43.9903ZM28.2592 40.1332C28.3907 40.7317 28.2082 41.356 27.7748 41.7894L24.1813 45.3838C23.8443 45.7208 23.3872 45.9102 22.9106 45.9102C22.4339 45.9102 21.9768 45.7209 21.6399 45.3838L18.0459 41.7894C17.6126 41.3561 17.43 40.7317 17.5615 40.1331L20.9918 24.5264C12.5279 25.3964 5.39467 31.6975 3.63517 40.1489C3.51864 40.7086 3.65736 41.2821 4.01575 41.7229C4.22338 41.9781 4.68607 42.4062 5.45316 42.4062H13.2973C14.2897 42.4062 15.0942 43.2107 15.0942 44.2031C15.0942 45.1955 14.2897 46 13.2973 46H5.45334C3.80659 46 2.2664 45.2675 1.22781 43.9903C0.184004 42.7067 -0.220921 41.0396 0.117071 39.4164C1.19547 34.2364 4.05223 29.5223 8.16096 26.1426C10.4018 24.2995 12.9624 22.9025 15.691 22.0043C12.7126 19.7739 10.7817 16.2176 10.7817 12.2188C10.7817 5.48128 16.2631 0 23.0005 0C29.7378 0 35.2192 5.48128 35.2192 12.2188C35.2192 16.215 33.2907 19.7692 30.3155 22C35.1974 23.6065 39.479 26.8035 42.4275 31.201C42.9802 32.0253 42.7601 33.1415 41.9357 33.6942C41.1116 34.2469 39.9952 34.0266 39.4427 33.2024C36.0981 28.2144 30.7282 25.0503 24.8248 24.5066L28.2592 40.1332ZM22.5801 20.8334C22.7201 20.8309 22.8602 20.8288 23.0005 20.8288C23.1434 20.8288 23.2861 20.8305 23.4286 20.8331C27.9863 20.6092 31.6255 16.8311 31.6255 12.2188C31.6255 7.46287 27.7563 3.59375 23.0005 3.59375C18.2446 3.59375 14.3755 7.46287 14.3755 12.2188C14.3755 16.8337 18.0187 20.6134 22.5801 20.8334ZM24.538 39.944L22.9105 32.5385L21.2828 39.9439L22.9105 41.5719L24.538 39.944Z" fill="#F6F6F6"/>
</svg>
