<svg width="46" height="46" viewBox="0 0 46 46" fill="none" xmlns="http://www.w3.org/2000/svg">
<path d="M46 23C46 27.5398 44.6525 31.9551 42.1031 35.7682C41.5517 36.5932 40.4358 36.815 39.6107 36.2633C38.7857 35.7117 38.5641 34.5958 39.1156 33.7708C41.2684 30.5508 42.4062 26.8264 42.4062 23C42.4062 12.2993 33.7007 3.59375 23 3.59375C12.2993 3.59375 3.59375 12.2993 3.59375 23C3.59375 33.7007 12.2993 42.4062 23 42.4062C26.5493 42.4062 30.0208 41.4399 33.0389 39.6116C33.8877 39.0974 34.9925 39.3685 35.5068 40.2175C36.021 41.0662 35.7496 42.1711 34.9009 42.6854C31.3211 44.8538 27.2059 46 23 46C16.8565 46 11.0807 43.6076 6.73648 39.2635C2.39245 34.9193 0 29.1435 0 23C0 16.8565 2.39245 11.0807 6.73648 6.73648C11.0807 2.39245 16.8565 0 23 0C29.1435 0 34.9193 2.39245 39.2635 6.73648C43.6076 11.0807 46 16.8565 46 23ZM15.543 21.2031C13.066 21.2031 11.0508 19.1879 11.0508 16.7109C11.0508 14.2339 13.066 12.2188 15.543 12.2188C18.02 12.2188 20.0352 14.2339 20.0352 16.7109C20.0352 19.1879 18.02 21.2031 15.543 21.2031ZM16.4414 16.7109C16.4414 16.2155 16.0384 15.8125 15.543 15.8125C15.0476 15.8125 14.6445 16.2155 14.6445 16.7109C14.6445 17.2063 15.0476 17.6094 15.543 17.6094C16.0384 17.6094 16.4414 17.2063 16.4414 16.7109ZM25.875 29.2891C25.875 26.8121 27.8902 24.7969 30.3672 24.7969C32.8442 24.7969 34.8594 26.8121 34.8594 29.2891C34.8594 31.7661 32.8442 33.7812 30.3672 33.7812C27.8902 33.7812 25.875 31.7661 25.875 29.2891ZM29.4688 29.2891C29.4688 29.7845 29.8718 30.1875 30.3672 30.1875C30.8626 30.1875 31.2656 29.7845 31.2656 29.2891C31.2656 28.7937 30.8626 28.3906 30.3672 28.3906C29.8718 28.3906 29.4688 28.7937 29.4688 29.2891ZM17.4566 33.5651C17.7283 33.712 18.0209 33.7816 18.3095 33.7816C18.9482 33.7816 19.5668 33.4401 19.8918 32.8389L29.6046 14.8701C30.0765 13.997 29.7514 12.9068 28.8784 12.435C28.0052 11.9631 26.9149 12.2883 26.4433 13.1612L16.7304 31.13C16.2585 32.003 16.5836 33.0932 17.4566 33.5651Z" fill="#F6F6F6"/>
</svg>
