<svg width="46" height="46" viewBox="0 0 46 46" fill="none" xmlns="http://www.w3.org/2000/svg">
<path d="M17.4383 22.3018C15.5721 21.5401 13.1295 21.1206 10.5603 21.1206C7.99115 21.1206 5.54857 21.5401 3.68234 22.3018C0.478418 23.6096 0 25.4873 0 26.4902V40.4513C0 41.4543 0.478418 43.3321 3.68234 44.6398C5.54857 45.4015 7.99115 45.821 10.5603 45.821C13.1295 45.821 15.5721 45.4015 17.4383 44.6398C20.6422 43.3321 21.1206 41.4543 21.1206 40.4513V26.4902C21.1206 25.4873 20.6422 23.6096 17.4383 22.3018ZM17.5408 40.3946C17.2451 40.945 14.8387 42.2413 10.5603 42.2413C6.28197 42.2413 3.8755 40.945 3.57973 40.3946V37.5262C3.61423 37.5407 3.64712 37.5554 3.68234 37.5698C5.54857 38.3316 7.99115 38.751 10.5603 38.751C11.18 38.751 11.8003 38.7265 12.4039 38.6781C13.3892 38.599 14.124 37.7362 14.0449 36.7508C13.9658 35.7654 13.1034 35.0311 12.1176 35.1098C11.6089 35.1506 11.0849 35.1712 10.5604 35.1712C6.2808 35.1712 3.87451 33.8744 3.57982 33.3243V30.6352C3.61432 30.6497 3.64721 30.6644 3.68243 30.6788C5.54866 31.4405 7.99124 31.8599 10.5604 31.8599C11.1801 31.8599 11.8003 31.8354 12.404 31.787C13.3893 31.7079 14.1241 30.8451 14.045 29.8597C13.9659 28.8743 13.1035 28.1399 12.1177 28.2187C11.609 28.2595 11.085 28.2801 10.5605 28.2801C6.42212 28.2801 4.03578 27.0676 3.6163 26.4902C4.03641 25.9126 6.42293 24.7004 10.5605 24.7004C14.839 24.7004 17.2453 25.9966 17.541 26.547L17.5408 40.3946ZM42.2063 1.19447C40.3192 0.424242 37.8524 0 35.2607 0C32.669 0 30.2022 0.424242 28.3151 1.19447C25.6827 2.26891 24.8369 3.73202 24.602 4.81221C24.5499 4.98902 24.5214 5.17599 24.5214 5.36969C24.5214 5.3988 24.522 5.42872 24.5228 5.45918C24.522 5.48963 24.5214 5.51955 24.5214 5.54866V40.4513C24.5214 41.4991 25.0143 43.4582 28.3151 44.8055C30.2022 45.5758 32.669 46 35.2607 46C37.8524 46 40.3192 45.5758 42.2063 44.8055C45.5071 43.4583 46 41.4992 46 40.4513V5.54866C46 4.50081 45.5071 2.54168 42.2063 1.19447ZM42.0622 40.3355C41.9215 40.5145 41.3923 40.9546 40.1791 41.3586C38.8162 41.8124 37.0695 42.0622 35.2607 42.0622C33.4519 42.0622 31.7052 41.8124 30.3423 41.3585C29.1291 40.9546 28.5999 40.5145 28.4592 40.3354V37.7916C30.3272 38.5257 32.7337 38.93 35.2607 38.93C35.8852 38.93 36.5103 38.9053 37.1185 38.8564C38.2025 38.7695 39.0106 37.8203 38.9236 36.7364C38.8367 35.6525 37.8876 34.8444 36.8036 34.9312C36.2997 34.9717 35.7805 34.9922 35.2607 34.9922C33.4519 34.9922 31.7052 34.7423 30.3423 34.2885C29.1277 33.884 28.5991 33.4438 28.4592 33.2651V30.9005C30.3272 31.6346 32.7337 32.0389 35.2607 32.0389C35.8852 32.0389 36.5103 32.0142 37.1185 31.9653C38.2025 31.8784 39.0106 30.9292 38.9236 29.8453C38.8367 28.7614 37.8876 27.9532 36.8036 28.0401C36.2997 28.0806 35.7805 28.1011 35.2607 28.1011C33.4519 28.1011 31.7052 27.8512 30.3423 27.3974C29.1277 26.9929 28.5991 26.5527 28.4592 26.374V23.8304C30.3272 24.5645 32.7337 24.9688 35.2607 24.9688C35.8852 24.9688 36.5103 24.9441 37.1185 24.8953C38.2025 24.8083 39.0106 23.8591 38.9236 22.7752C38.8367 21.6913 37.8876 20.8832 36.8036 20.9701C36.2997 21.0105 35.7805 21.031 35.2607 21.031C33.4519 21.031 31.7052 20.7811 30.3423 20.3273C29.1277 19.9229 28.5991 19.4826 28.4592 19.3039V16.9393C30.3272 17.6734 32.7337 18.0777 35.2607 18.0777C35.8852 18.0777 36.5103 18.053 37.1185 18.0041C38.2025 17.9172 39.0106 16.968 38.9236 15.8841C38.8367 14.8002 37.8876 13.9921 36.8036 14.079C36.2997 14.1194 35.7805 14.1399 35.2607 14.1399C33.4519 14.1399 31.7052 13.89 30.3423 13.4362C29.1277 13.0317 28.5991 12.5915 28.4592 12.4128V9.77967C30.3272 10.5138 32.7337 10.9181 35.2607 10.9181C35.8852 10.9181 36.5103 10.8934 37.1185 10.8445C38.2025 10.7575 39.0106 9.80833 38.9236 8.72446C38.8367 7.64058 37.8876 6.83253 36.8036 6.91932C36.2997 6.95975 35.7805 6.98023 35.2607 6.98023C33.4519 6.98023 31.7052 6.73037 30.3423 6.27657C29.4682 5.98557 28.9506 5.67624 28.6761 5.45891C28.9505 5.24148 29.4683 4.93233 30.3423 4.64133C31.7052 4.18744 33.4519 3.93758 35.2607 3.93758C37.0695 3.93758 38.8162 4.18744 40.1791 4.64133C41.3924 5.04527 41.9215 5.48532 42.0622 5.66438V40.3355Z" fill="#F6F6F6"/>
</svg>
