<svg width="168" height="36" viewBox="0 0 168 36" fill="none" xmlns="http://www.w3.org/2000/svg">
<path d="M7.0395 24.1733V33.1437H5.45928V32.1385C5.27543 32.4833 4.99402 32.7666 4.65012 32.9529C4.28053 33.1521 3.86576 33.2529 3.44583 33.2454C2.93825 33.2534 2.43959 33.1117 2.01222 32.8382C1.58197 32.5556 1.24155 32.1562 1.03105 31.6869C0.788641 31.1494 0.668957 30.5648 0.680658 29.9754C0.667551 29.3921 0.787364 28.8134 1.03105 28.2831C1.23918 27.8211 1.57948 27.4309 2.00914 27.1615C2.4388 26.8921 2.93865 26.7555 3.44583 26.769C3.86226 26.7611 4.27405 26.8573 4.64377 27.0488C4.98338 27.2271 5.26267 27.5017 5.44658 27.8379V24.1733H7.0395ZM5.04509 31.4895C5.34737 31.0542 5.49334 30.5296 5.45927 30.001C5.49414 29.4742 5.34804 28.9513 5.04509 28.5186C4.90494 28.3473 4.72636 28.2114 4.5238 28.1219C4.32124 28.0323 4.10041 27.9917 3.87919 28.0033C3.6557 27.9911 3.43241 28.0307 3.22679 28.119C3.02117 28.2073 2.8388 28.3419 2.69395 28.5122C2.38745 28.9362 2.23872 29.4536 2.27342 29.9753C2.24061 30.5088 2.38875 31.0377 2.69394 31.4768C2.84046 31.6436 3.02075 31.7774 3.2229 31.8695C3.42505 31.9616 3.64446 32.0099 3.86666 32.0111C4.08886 32.0123 4.30878 31.9664 4.51191 31.8765C4.71505 31.7866 4.89677 31.6547 5.04509 31.4895V31.4895Z" fill="#F6F6F6"/>
<path d="M8.59424 24.0332H10.3527V25.5983H8.59424V24.0332ZM8.68343 33.1436V26.9217H10.2763V33.1436H8.68343Z" fill="#F6F6F6"/>
<path d="M17.9862 26.9218V32.571C17.9862 33.5463 17.7165 34.2844 17.1771 34.7852C16.6374 35.2853 15.841 35.5356 14.7877 35.5359C14.258 35.5378 13.7307 35.4671 13.2203 35.3258C12.7533 35.2014 12.3099 35.0015 11.9076 34.7342L12.3537 33.6146C13.0718 34.0651 13.9013 34.3074 14.7494 34.3143C15.8538 34.3143 16.406 33.7714 16.4062 32.6857V31.8713C16.2219 32.2164 15.9376 32.498 15.5905 32.6791C15.2131 32.8751 14.7925 32.9736 14.3672 32.9656C13.858 32.975 13.3566 32.8405 12.9209 32.5774C12.4961 32.3142 12.1539 31.9373 11.9332 31.4895C11.6871 30.9869 11.5648 30.4329 11.5764 29.8736C11.5653 29.313 11.6853 28.7576 11.9268 28.2514C12.1434 27.7992 12.4864 27.4192 12.9144 27.1572C13.3528 26.8947 13.8561 26.7602 14.3671 26.769C14.7924 26.761 15.213 26.8594 15.5905 27.0552C15.9376 27.2365 16.2218 27.5181 16.4062 27.8632V26.9217L17.9862 26.9218ZM15.9791 31.235C16.2825 30.8481 16.4343 30.3642 16.4061 29.8736C16.4355 29.379 16.2837 28.8907 15.9791 28.4996C15.8238 28.3424 15.6388 28.2176 15.4349 28.1324C15.2309 28.0472 15.012 28.0033 14.7908 28.0033C14.5697 28.0033 14.3508 28.0472 14.1468 28.1324C13.9428 28.2176 13.7578 28.3424 13.6026 28.4996C13.3206 28.8989 13.1692 29.3755 13.1692 29.8641C13.1692 30.3527 13.3206 30.8294 13.6026 31.2287C13.7569 31.3872 13.9414 31.5133 14.1452 31.5996C14.3491 31.6859 14.5681 31.7307 14.7895 31.7313C15.0109 31.7319 15.2302 31.6883 15.4345 31.603C15.6388 31.5178 15.8239 31.3927 15.9791 31.235Z" fill="#F6F6F6"/>
<path d="M19.5405 24.0332H21.299V25.5983H19.5405V24.0332ZM19.6297 33.1436V26.9217H21.2226V33.1436H19.6297Z" fill="#F6F6F6"/>
<path d="M26.6387 32.0109L26.5622 33.1945C26.3073 33.2199 26.0737 33.2326 25.8612 33.2326C24.9862 33.2326 24.3405 33.0311 23.9243 32.6282C23.7025 32.3866 23.5327 32.1022 23.4253 31.7925C23.3179 31.4828 23.2752 31.1545 23.2998 30.8277V28.1176H22.1021V26.9216H23.2998V25.064H24.8928V26.9216H26.5366V28.1176H24.8928V30.8023C24.8928 31.6336 25.2793 32.0493 26.0525 32.0493C26.2485 32.0487 26.4442 32.0359 26.6387 32.0109Z" fill="#F6F6F6"/>
<path d="M32.1947 27.4054C32.6195 27.8295 32.8319 28.4826 32.8319 29.3647V33.1437H31.3154V32.1895C31.1765 32.514 30.9378 32.7858 30.6337 32.9656C30.3075 33.1564 29.9348 33.2532 29.5568 33.2454C29.164 33.2507 28.7755 33.1636 28.4227 32.9909C28.0971 32.8338 27.8198 32.5922 27.6199 32.2912C27.4251 31.997 27.323 31.6514 27.3268 31.2987C27.3044 30.9072 27.4294 30.5214 27.6772 30.2172C27.9889 29.9131 28.3873 29.7131 28.8177 29.6445C29.5358 29.5089 30.2662 29.4492 30.9968 29.4664H31.3154V29.174C31.3461 28.8447 31.2479 28.5163 31.0414 28.2578C30.9156 28.1533 30.7703 28.0748 30.6139 28.0267C30.4576 27.9786 30.2932 27.962 30.1303 27.9777C29.7774 27.9812 29.427 28.0392 29.0917 28.1494C28.7205 28.2687 28.3636 28.4288 28.0277 28.6267L27.5816 27.5324C28.389 27.0538 29.3062 26.7909 30.2449 26.769C31.1198 26.7691 31.7698 26.9812 32.1947 27.4054ZM30.9139 31.674C31.1877 31.3742 31.3319 30.9787 31.3154 30.5734V30.3062H31.0861C30.643 30.2982 30.2 30.3238 29.7608 30.3826C29.5146 30.4051 29.2802 30.4978 29.0854 30.6498C29.0163 30.7173 28.9623 30.7987 28.9272 30.8886C28.892 30.9786 28.8764 31.075 28.8814 31.1714C28.8775 31.2963 28.9005 31.4206 28.9488 31.5358C28.9972 31.6511 29.0699 31.7546 29.1618 31.8394C29.3562 32.0164 29.6125 32.1102 29.8755 32.1005C30.069 32.1073 30.2617 32.0727 30.4408 31.9992C30.6199 31.9256 30.7812 31.8147 30.9139 31.674Z" fill="#F6F6F6"/>
<path d="M34.4502 33.1437V24.1733H36.0431V33.1437H34.4502Z" fill="#F6F6F6"/>
<path d="M47.5501 33.1436L46.6072 32.1765C46.2393 32.5122 45.8142 32.7795 45.3519 32.9655C44.8882 33.1522 44.3927 33.2472 43.8928 33.2454C43.3415 33.2557 42.7943 33.1495 42.2871 32.9335C41.8511 32.7509 41.474 32.4515 41.1976 32.0684C40.9366 31.6936 40.8006 31.2462 40.809 30.7898C40.8028 30.2747 40.9613 29.771 41.2614 29.352C41.6509 28.8533 42.1444 28.4453 42.7077 28.156C42.4221 27.856 42.1798 27.5177 41.9877 27.1509C41.841 26.854 41.7647 26.5274 41.7647 26.1964C41.7543 25.9059 41.8102 25.6169 41.9283 25.3512C42.0465 25.0856 42.2237 24.8503 42.4465 24.6632C42.9488 24.2609 43.5808 24.055 44.2241 24.0843C44.8125 24.0537 45.3913 24.2417 45.8489 24.6122C46.0493 24.7887 46.2077 25.0077 46.3124 25.2532C46.4171 25.4986 46.4656 25.7644 46.4542 26.0309C46.4596 26.4722 46.3209 26.9033 46.0592 27.2589C45.7 27.7016 45.2587 28.071 44.7594 28.3468L46.5307 30.1534C46.8945 29.403 47.0902 28.5824 47.1042 27.7488H48.4294C48.4125 28.937 48.083 30.0998 47.4737 31.1206L49.4489 33.1436H47.5501ZM45.7279 31.2733L43.536 29.0085C43.1855 29.2044 42.8796 29.4708 42.6375 29.7909C42.4534 30.063 42.3577 30.3851 42.3636 30.7134C42.3561 30.8936 42.3908 31.0731 42.4649 31.2377C42.539 31.4022 42.6505 31.5472 42.7905 31.6612C43.1218 31.9097 43.5302 32.0336 43.9439 32.0111C44.2752 32.0115 44.6034 31.9466 44.9096 31.82C45.2158 31.6934 45.4938 31.5076 45.7279 31.2733V31.2733ZM43.4851 25.452C43.3903 25.548 43.3164 25.6626 43.2682 25.7885C43.2199 25.9145 43.1983 26.049 43.2047 26.1837C43.205 26.3886 43.2577 26.5901 43.3577 26.769C43.5231 27.0373 43.7199 27.2851 43.9439 27.5071C44.2966 27.3276 44.6156 27.0886 44.8868 26.8007C45.0576 26.6048 45.1525 26.3543 45.1544 26.0946C45.1604 25.9718 45.1409 25.849 45.097 25.734C45.0532 25.619 44.9859 25.5144 44.8995 25.4266C44.8113 25.3431 44.7072 25.2782 44.5933 25.2355C44.4795 25.1929 44.3583 25.1735 44.2368 25.1785C44.0996 25.1717 43.9624 25.1923 43.8333 25.2393C43.7041 25.2863 43.5858 25.3586 43.4851 25.452V25.452Z" fill="#F6F6F6"/>
<path d="M53.1826 24.0332H54.9411V25.5983H53.1826V24.0332ZM53.2718 33.1436V26.9217H54.8647V33.1436H53.2718Z" fill="#F6F6F6"/>
<path d="M61.7972 27.4054C62.1625 27.8296 62.3451 28.4699 62.3452 29.3265V33.1438H60.7523V29.4158C60.7835 29.0429 60.6869 28.6705 60.4782 28.3596C60.3693 28.243 60.2353 28.1526 60.0863 28.0953C59.9373 28.038 59.7772 28.0153 59.6181 28.0288C59.4143 28.0196 59.2108 28.0534 59.0209 28.1279C58.831 28.2024 58.6589 28.316 58.5159 28.4613C58.374 28.6177 58.2645 28.8005 58.1934 28.9992C58.1223 29.1978 58.0912 29.4086 58.1017 29.6193V33.1438H56.5088V26.9219H58.0635V27.8507C58.2685 27.5099 58.564 27.2324 58.9172 27.0489C59.2918 26.8583 59.7075 26.7623 60.1279 26.7691C60.436 26.7449 60.7456 26.7894 61.0344 26.8995C61.3231 27.0095 61.5837 27.1824 61.7972 27.4054Z" fill="#F6F6F6"/>
<path d="M65.9894 26.9215H67.6333V28.1175H65.9894V33.1434H64.3965V28.1175H63.1987V26.9215H64.3965C64.3965 26.0307 64.628 25.3606 65.0911 24.9111C65.5539 24.4617 66.2739 24.2114 67.251 24.1604L67.8755 24.1221L67.9773 25.3057L67.3785 25.331C66.9934 25.3169 66.6153 25.436 66.3081 25.6682C66.1916 25.7978 66.1032 25.95 66.0484 26.1153C65.9936 26.2805 65.9735 26.4553 65.9894 26.6287L65.9894 26.9215ZM68.5253 33.1434V24.1731H70.1182V33.1434H68.5253Z" fill="#F6F6F6"/>
<path d="M77.4836 26.9219V33.1438H75.9289V32.1896C75.7436 32.5188 75.47 32.7897 75.1388 32.972C74.7946 33.1575 74.4084 33.2517 74.0173 33.2455C72.4882 33.2455 71.7236 32.3888 71.7236 30.6755V26.9219H73.3166V30.6882C73.2891 31.0358 73.3837 31.3821 73.5841 31.6677C73.6914 31.7803 73.8227 31.8674 73.9683 31.9225C74.1139 31.9776 74.2701 31.9992 74.4252 31.9859C74.6238 31.994 74.8218 31.959 75.0056 31.8832C75.1893 31.8074 75.3544 31.6927 75.4893 31.547C75.7676 31.2246 75.9113 30.8078 75.8907 30.3827V26.9219H77.4836Z" fill="#F6F6F6"/>
<path d="M84.6075 30.3191H80.3638C80.373 30.7973 80.5592 31.2552 80.8865 31.6044C81.2406 31.9043 81.6976 32.0549 82.1608 32.0243C82.8467 32.0251 83.5121 31.7916 84.0467 31.3626L84.5056 32.4569C84.181 32.7134 83.8116 32.9075 83.4161 33.0295C82.9908 33.1715 82.5455 33.2445 82.097 33.2456C81.6571 33.2695 81.2168 33.2052 80.802 33.0566C80.3873 32.9081 80.0065 32.6782 79.6821 32.3805C79.3793 32.0681 79.1444 31.6967 78.9921 31.2895C78.8397 30.8823 78.7731 30.448 78.7966 30.0139C78.7852 29.4272 78.9163 28.8465 79.1787 28.3214C79.4198 27.8442 79.7937 27.4466 80.2556 27.1765C80.7337 26.9011 81.2776 26.7603 81.8295 26.7693C82.2082 26.7506 82.5864 26.8149 82.9376 26.9578C83.2887 27.1007 83.6042 27.3187 83.862 27.5964C84.3892 28.2346 84.6554 29.048 84.6075 29.8739L84.6075 30.3191ZM80.8418 28.2961C80.5587 28.6237 80.3909 29.0348 80.3638 29.4667H83.2441C83.2586 29.0418 83.1232 28.6252 82.8616 28.2897C82.7356 28.1541 82.5812 28.0479 82.4094 27.9786C82.2376 27.9093 82.0526 27.8787 81.8676 27.8889C81.6775 27.8809 81.4879 27.913 81.3112 27.9832C81.1344 28.0533 80.9745 28.16 80.8418 28.2961H80.8418Z" fill="#F6F6F6"/>
<path d="M91.1957 27.4054C91.5609 27.8295 91.7435 28.4699 91.7435 29.3264V33.1437H90.1506V29.4158C90.1818 29.0429 90.0852 28.6705 89.8767 28.3596C89.7678 28.243 89.6338 28.1526 89.4848 28.0953C89.3358 28.038 89.1757 28.0152 89.0166 28.0288C88.8127 28.0196 88.6092 28.0534 88.4193 28.1279C88.2294 28.2024 88.0574 28.316 87.9143 28.4613C87.7725 28.6177 87.6629 28.8004 87.5918 28.9991C87.5207 29.1978 87.4896 29.4085 87.5001 29.6193V33.1437H85.9072V26.9219H87.4617V27.8507C87.6668 27.5098 87.9624 27.2323 88.3158 27.0489C88.6903 26.8583 89.1059 26.7622 89.5263 26.7691C89.8344 26.7449 90.144 26.7894 90.4328 26.8995C90.7215 27.0096 90.9821 27.1824 91.1957 27.4054Z" fill="#F6F6F6"/>
<path d="M94.502 32.8514C94.0304 32.5969 93.6464 32.2067 93.3997 31.7315C93.1449 31.1997 93.0143 30.6171 93.0176 30.0276C93.021 29.4381 93.1583 28.857 93.4191 28.3281C93.6777 27.8408 94.0743 27.4402 94.5594 27.1765C95.0844 26.8972 95.6722 26.757 96.2669 26.7693C96.7066 26.769 97.1435 26.8399 97.5605 26.9791C97.935 27.0931 98.2805 27.2863 98.5736 27.5454L98.1147 28.6653C97.8643 28.4605 97.5825 28.2972 97.2803 28.1817C97.0017 28.0742 96.7059 28.0182 96.4072 28.0163C96.1679 28.0025 95.9286 28.0416 95.7062 28.1306C95.4837 28.2197 95.2837 28.3566 95.1202 28.5315C94.8213 28.9659 94.6613 29.4805 94.6613 30.0075C94.6613 30.5345 94.8213 31.0491 95.1202 31.4834C95.2837 31.6584 95.4837 31.7953 95.7062 31.8843C95.9286 31.9734 96.1679 32.0124 96.4072 31.9987C96.7059 31.9969 97.0017 31.9409 97.2803 31.8333C97.5825 31.7177 97.8642 31.5546 98.1147 31.35L98.5736 32.4569C98.2697 32.7208 97.9136 32.9181 97.5285 33.0359C97.1009 33.1761 96.6535 33.247 96.2034 33.2457C95.612 33.2606 95.0264 33.125 94.502 32.8514Z" fill="#F6F6F6"/>
<path d="M105.047 30.3191H100.803C100.812 30.7973 100.999 31.2552 101.326 31.6044C101.68 31.9043 102.137 32.0549 102.6 32.0243C103.286 32.0251 103.952 31.7916 104.486 31.3626L104.945 32.4569C104.62 32.7134 104.251 32.9075 103.855 33.0295C103.43 33.1715 102.985 33.2445 102.536 33.2456C102.097 33.2695 101.656 33.2052 101.241 33.0566C100.827 32.9081 100.446 32.6782 100.122 32.3805C99.8188 32.0681 99.5839 31.6967 99.4315 31.2895C99.2791 30.8823 99.2126 30.448 99.236 30.0139C99.2246 29.4272 99.3557 28.8465 99.6182 28.3214C99.8592 27.8442 100.233 27.4466 100.695 27.1765C101.173 26.9011 101.717 26.7603 102.269 26.7693C102.648 26.7506 103.026 26.8149 103.377 26.9578C103.728 27.1007 104.044 27.3187 104.301 27.5964C104.829 28.2346 105.095 29.048 105.047 29.8739L105.047 30.3191ZM101.281 28.2961C100.998 28.6237 100.83 29.0349 100.803 29.4667H103.683C103.698 29.0418 103.563 28.6252 103.301 28.2897C103.175 28.1541 103.021 28.0479 102.849 27.9786C102.677 27.9093 102.492 27.8787 102.307 27.8889C102.117 27.8809 101.927 27.913 101.751 27.9832C101.574 28.0533 101.414 28.16 101.281 28.2961Z" fill="#F6F6F6"/>
<path d="M118.784 27.3989C119.133 27.8188 119.307 28.4613 119.307 29.3265V33.1439H117.714V29.3902C117.743 29.0279 117.658 28.6656 117.472 28.3534C117.378 28.2404 117.259 28.1519 117.123 28.0953C116.988 28.0388 116.841 28.016 116.694 28.0289C116.507 28.0193 116.319 28.0534 116.146 28.1285C115.974 28.2035 115.821 28.3175 115.7 28.4614C115.443 28.8103 115.317 29.2381 115.344 29.6704V33.1439H113.751V29.3902C113.779 29.0287 113.697 28.6672 113.515 28.3534C113.421 28.2393 113.3 28.15 113.164 28.0934C113.027 28.0369 112.879 28.0147 112.731 28.0289C112.545 28.0202 112.36 28.0548 112.19 28.1298C112.019 28.2049 111.869 28.3184 111.75 28.4614C111.493 28.8103 111.367 29.2381 111.393 29.6704V33.1439H109.8V26.9219H111.355V27.7997C111.531 27.4712 111.802 27.2031 112.132 27.03C112.483 26.8515 112.873 26.762 113.266 26.7692C114.209 26.7692 114.834 27.1594 115.14 27.9398C115.332 27.5789 115.623 27.2807 115.981 27.081C116.354 26.871 116.776 26.7635 117.204 26.7692C117.498 26.7469 117.793 26.7921 118.067 26.9012C118.341 27.0104 118.586 27.1806 118.784 27.3989Z" fill="#F6F6F6"/>
<path d="M125.551 27.4054C125.975 27.8295 126.188 28.4826 126.188 29.3648V33.1437H124.671V32.1895C124.532 32.514 124.294 32.7859 123.99 32.9656C123.663 33.1564 123.291 33.2532 122.913 33.2454C122.52 33.2508 122.131 33.1636 121.779 32.991C121.453 32.8338 121.176 32.5921 120.976 32.2912C120.781 31.997 120.679 31.6513 120.683 31.2987C120.66 30.9072 120.785 30.5214 121.033 30.2172C121.345 29.9131 121.743 29.7131 122.174 29.6445C122.892 29.5088 123.622 29.4491 124.353 29.4664H124.671V29.174C124.702 28.8447 124.604 28.5164 124.397 28.2578C124.272 28.1533 124.126 28.0747 123.97 28.0267C123.813 27.9786 123.649 27.9619 123.486 27.9777C123.133 27.9812 122.783 28.0392 122.448 28.1494C122.076 28.2687 121.719 28.4287 121.384 28.6267L120.938 27.5324C121.745 27.0538 122.662 26.7909 123.601 26.769C124.476 26.7691 125.126 26.9812 125.551 27.4054ZM124.27 31.674C124.544 31.3741 124.688 30.9787 124.671 30.5734V30.3062H124.442C123.999 30.2982 123.556 30.3238 123.117 30.3826C122.871 30.4051 122.636 30.4979 122.441 30.6498C122.372 30.7173 122.318 30.7987 122.283 30.8886C122.248 30.9786 122.232 31.075 122.237 31.1714C122.233 31.2963 122.256 31.4206 122.305 31.5359C122.353 31.6511 122.426 31.7547 122.518 31.8394C122.712 32.0164 122.968 32.1101 123.231 32.1005C123.425 32.1073 123.618 32.0728 123.797 31.9992C123.976 31.9257 124.137 31.8148 124.27 31.674Z" fill="#F6F6F6"/>
<path d="M131.91 28.0924L130.979 28.1814C129.926 28.2916 129.399 28.826 129.399 29.7846V33.1437H127.806V26.9218H129.323V28.016C129.645 27.2695 130.312 26.8623 131.323 26.7944L131.808 26.7563L131.91 28.0924Z" fill="#F6F6F6"/>
<path d="M138.931 33.1437H136.956L134.28 30.3062V33.1437H132.687V24.1733H134.28V29.6445L136.79 26.9344H138.727L135.924 29.9117L138.931 33.1437Z" fill="#F6F6F6"/>
<path d="M144.895 30.3191H140.651C140.661 30.7973 140.847 31.2552 141.174 31.6044C141.528 31.9043 141.985 32.0549 142.448 32.0243C143.134 32.0251 143.8 31.7916 144.334 31.3626L144.793 32.4569C144.469 32.7134 144.099 32.9075 143.704 33.0295C143.278 33.1715 142.833 33.2445 142.385 33.2456C141.945 33.2695 141.504 33.2052 141.09 33.0566C140.675 32.9081 140.294 32.6782 139.97 32.3805C139.667 32.0681 139.432 31.6967 139.28 31.2895C139.127 30.8823 139.061 30.448 139.084 30.0139C139.073 29.4272 139.204 28.8465 139.466 28.3214C139.707 27.8442 140.081 27.4466 140.543 27.1765C141.021 26.9011 141.565 26.7603 142.117 26.7693C142.496 26.7506 142.874 26.8149 143.225 26.9578C143.576 27.1007 143.892 27.3187 144.15 27.5964C144.677 28.2346 144.943 29.048 144.895 29.8739L144.895 30.3191ZM141.129 28.2961C140.846 28.6237 140.678 29.0348 140.651 29.4667H143.532C143.546 29.0418 143.411 28.6252 143.149 28.2897C143.023 28.1541 142.869 28.0479 142.697 27.9786C142.525 27.9093 142.34 27.8787 142.155 27.8889C141.965 27.8809 141.776 27.913 141.599 27.9832C141.422 28.0533 141.262 28.16 141.129 28.2961Z" fill="#F6F6F6"/>
<path d="M149.878 32.0109L149.801 33.1945C149.547 33.2199 149.313 33.2326 149.101 33.2326C148.225 33.2326 147.58 33.0311 147.163 32.6282C146.942 32.3866 146.772 32.1022 146.664 31.7925C146.557 31.4828 146.514 31.1544 146.539 30.8277V28.1176H145.341V26.9216H146.539V25.064H148.132V26.9216H149.776V28.1176H148.132V30.8023C148.132 31.6336 148.519 32.0493 149.292 32.0493C149.488 32.0487 149.684 32.0359 149.878 32.0109Z" fill="#F6F6F6"/>
<path d="M150.719 24.0332H152.477V25.5983H150.719V24.0332ZM150.808 33.1436V26.9217H152.401V33.1436H150.808Z" fill="#F6F6F6"/>
<path d="M159.333 27.4054C159.698 27.8295 159.881 28.4699 159.881 29.3264V33.1437H158.288V29.4158C158.319 29.0429 158.222 28.6705 158.014 28.3596C157.905 28.243 157.771 28.1526 157.622 28.0953C157.473 28.038 157.313 28.0152 157.154 28.0288C156.95 28.0196 156.746 28.0534 156.557 28.1279C156.367 28.2024 156.195 28.316 156.052 28.4613C155.91 28.6177 155.8 28.8004 155.729 28.9991C155.658 29.1978 155.627 29.4085 155.637 29.6193V33.1437H154.044V26.9219H155.599V27.8507C155.804 27.5098 156.1 27.2323 156.453 27.0489C156.828 26.8583 157.243 26.7622 157.664 26.7691C157.972 26.7449 158.281 26.7894 158.57 26.8995C158.859 27.0096 159.119 27.1824 159.333 27.4054Z" fill="#F6F6F6"/>
<path d="M167.565 26.9218V32.571C167.565 33.5463 167.295 34.2844 166.756 34.7852C166.216 35.2853 165.42 35.5356 164.366 35.5359C163.837 35.5378 163.309 35.4671 162.799 35.3258C162.332 35.2014 161.889 35.0015 161.486 34.7342L161.932 33.6146C162.651 34.0651 163.48 34.3074 164.328 34.3143C165.432 34.3143 165.984 33.7714 165.985 32.6857V31.8713C165.8 32.2164 165.516 32.4979 165.169 32.6791C164.792 32.875 164.371 32.9735 163.946 32.9656C163.437 32.9751 162.935 32.8405 162.499 32.5774C162.075 32.3143 161.732 31.9373 161.512 31.4895C161.266 30.9869 161.143 30.4329 161.155 29.8736C161.144 29.313 161.264 28.7576 161.505 28.2514C161.722 27.7992 162.065 27.4192 162.493 27.1572C162.931 26.8947 163.435 26.7602 163.946 26.769C164.371 26.7611 164.792 26.8595 165.169 27.0551C165.516 27.2365 165.8 27.5181 165.985 27.8632V26.9217L167.565 26.9218ZM165.558 31.235C165.861 30.8481 166.013 30.3641 165.985 29.8736C166.014 29.3791 165.862 28.8907 165.558 28.4996C165.402 28.3424 165.217 28.2176 165.013 28.1324C164.809 28.0472 164.591 28.0033 164.369 28.0033C164.148 28.0033 163.929 28.0472 163.725 28.1324C163.521 28.2176 163.336 28.3424 163.181 28.4996C162.899 28.8989 162.748 29.3755 162.748 29.8641C162.748 30.3527 162.899 30.8293 163.181 31.2287C163.336 31.3872 163.52 31.5133 163.724 31.5996C163.928 31.6859 164.147 31.7307 164.368 31.7313C164.59 31.7319 164.809 31.6883 165.013 31.603C165.217 31.5178 165.403 31.3927 165.558 31.235Z" fill="#F6F6F6"/>
<path d="M0.340332 17.8962V0.620117H6.99789C13.5279 0.620117 16.839 3.45592 16.839 9.04884C16.839 11.7231 15.9284 13.8919 14.1325 15.4949C12.3472 17.0883 9.94674 17.8962 6.99789 17.8962L0.340332 17.8962ZM6.68686 14.1842C8.32645 14.1842 9.62474 13.7264 10.5457 12.8234C11.4643 11.9217 11.9303 10.6677 11.9303 9.09631C11.9303 7.62057 11.4711 6.4484 10.5658 5.6127C9.65267 4.77035 8.33926 4.34328 6.6621 4.34328H5.03781V14.1842L6.68686 14.1842Z" fill="#F6F6F6"/>
<path d="M6.99794 0.959626C13.3317 0.959626 16.4986 3.65594 16.4986 9.04856C16.4986 11.6336 15.6343 13.6978 13.9057 15.241C12.1771 16.7839 9.87449 17.5555 6.99794 17.5559H0.680894V0.959626H6.99794ZM4.69736 14.5238H6.68687C8.42819 14.5238 9.794 14.0377 10.7843 13.0656C11.775 12.0931 12.2705 10.7699 12.2707 9.09588C12.2707 7.51445 11.7795 6.27007 10.797 5.36272C9.81429 4.4562 8.43599 4.00294 6.66211 4.00293H4.69736V14.5238V14.5238ZM6.99795 0.279785H0V18.2358H6.99795C10.0331 18.2358 12.5099 17.3987 14.3595 15.7479C16.2307 14.0778 17.1795 11.8238 17.1795 9.04858C17.1795 6.15653 16.2999 3.94128 14.5652 2.4644C12.8626 1.0148 10.3166 0.279785 6.99796 0.279785H6.99795ZM5.37826 4.6828H6.6621C8.25092 4.6828 9.48663 5.07957 10.3349 5.86209C11.1793 6.64151 11.5898 7.69933 11.5898 9.09588C11.5898 10.5935 11.1702 11.7334 10.3069 12.5808C9.44006 13.4306 8.25582 13.8439 6.68685 13.8439H5.37826V4.68277V4.6828Z" fill="#F6F6F6"/>
<path d="M26.5552 0.619629H21.8584V17.8957H26.5552V0.619629Z" fill="#F6F6F6"/>
<path d="M26.2148 0.959647V17.5559H22.199V0.959647H26.2148H26.2148ZM26.8957 0.279785H21.5181V18.2358H26.8957V0.279785Z" fill="#F6F6F6"/>
<path d="M41.154 18.1852C38.2122 18.1852 35.8536 17.4102 34.1437 15.882C32.4225 14.3448 31.5498 12.2059 31.5498 9.52458C31.5498 6.82854 32.4992 4.59808 34.3716 2.89526C36.2346 1.20125 38.7385 0.342448 41.8137 0.342448C43.5452 0.314345 45.27 0.566301 46.9209 1.08854L47.1526 1.16655V5.48689L46.6506 5.21634C45.1356 4.46158 43.4566 4.09401 41.7643 4.14657C40.1743 4.14657 38.9192 4.60966 37.9276 5.56207C36.9392 6.51132 36.4586 7.75055 36.4586 9.35026C36.4586 10.9533 36.8998 12.204 37.7697 13.0677C38.6397 13.9317 39.8415 14.3697 41.3414 14.3697C42.0012 14.3896 42.6597 14.2979 43.2888 14.0983V11.426H39.7193V7.76019H47.9861V16.6487L47.8068 16.745C46.0257 17.7007 43.7875 18.1852 41.154 18.1852Z" fill="#F6F6F6"/>
<path d="M41.8133 0.68194C43.508 0.652592 45.1962 0.898622 46.8118 1.41039V4.91691C45.4364 4.17601 43.7538 3.80577 41.7638 3.80618C41.0186 3.776 40.2748 3.89398 39.5757 4.15328C38.8765 4.41258 38.2359 4.80802 37.6911 5.31663C36.6422 6.32401 36.1177 7.66844 36.1177 9.3499C36.1177 11.0558 36.5882 12.3754 37.5293 13.3084C38.4698 14.2424 39.7404 14.7093 41.341 14.7093C42.1219 14.741 42.9009 14.6108 43.6289 14.327V11.0857H40.0593V8.0997H47.6454V16.4451C45.9047 17.379 43.7408 17.8456 41.1537 17.8448C38.2852 17.8448 36.0241 17.1059 34.3704 15.6283C32.7167 14.1514 31.8899 12.1168 31.8899 9.52422C31.8899 6.91549 32.7934 4.78949 34.6005 3.14622C36.4081 1.50254 38.8123 0.681115 41.8133 0.68194H41.8133ZM41.8133 0.00207849C38.6506 0.00207849 36.0696 0.890807 34.1421 2.64357C32.1958 4.41339 31.209 6.72838 31.209 9.52422C31.209 12.3064 32.1199 14.5306 33.9165 16.135C35.6904 17.7206 38.1255 18.5246 41.1537 18.5246C43.844 18.5246 46.1366 18.0265 47.9677 17.044L48.3263 16.8516V7.41983H39.3784V11.7656H42.948V13.8498C42.4227 13.9805 41.8823 14.0409 41.341 14.0294C39.9145 14.0294 38.8247 13.6359 38.0094 12.8264C37.1947 12.0174 36.7987 10.8803 36.7987 9.34989C36.7987 7.84745 37.245 6.68843 38.1632 5.80662C39.0884 4.91801 40.2662 4.48604 41.7638 4.48604C43.3997 4.43376 45.0231 4.78738 46.4886 5.51525L47.4928 6.05619V0.922178L47.0294 0.766176C45.3434 0.231964 43.5819 -0.0260761 41.8133 0.00207849H41.8133Z" fill="#F6F6F6"/>
<path d="M58.2121 0.619629H53.5146V17.8957H58.2121V0.619629Z" fill="#F6F6F6"/>
<path d="M57.8717 0.959647V17.5559H53.8552V0.959647H57.8717ZM58.5526 0.279785H53.1743V18.2358H58.5526V0.279785Z" fill="#F6F6F6"/>
<path d="M67.7329 17.8961V4.34338H62.6714V0.620117H77.529V4.34338H72.442V17.8961H67.7329Z" fill="#F6F6F6"/>
<path d="M77.1887 0.959647V4.00295H72.1019V17.5559H68.0734V4.00295H63.012V0.959647H77.1887ZM77.8696 0.279785H62.3311V4.68282H67.3925V18.2358H72.7828V4.68282H77.8696V0.279785Z" fill="#F6F6F6"/>
<path d="M91.6107 17.8962L90.3424 14.2041H84.4876L83.2312 17.8962H78.1367L84.8942 0.620117H90.1239L96.7258 17.8962H91.6107ZM89.1883 10.654L87.4283 5.52554C87.415 5.48587 87.4017 5.44537 87.389 5.40438C87.3804 5.42977 85.5787 10.654 85.5787 10.654H89.1883Z" fill="#F6F6F6"/>
<path d="M89.8893 0.959647L96.2311 17.5559H91.8534L90.585 13.8638H84.2432L82.9869 17.5559H78.6346L85.1263 0.959647H89.8893H89.8893ZM85.1008 10.9936H89.6645L87.75 5.41503C87.5945 4.93018 87.4944 4.42933 87.4516 3.92202H87.3513C87.3084 4.41534 87.2042 4.90141 87.0408 5.36896L85.1008 10.9936ZM90.3583 0.279785H84.6612L84.492 0.712313L78.0004 17.3086L77.6377 18.2358H83.4747L83.6316 17.7746L84.731 14.5437H90.0988L91.2094 17.7765L91.3671 18.2358H97.2197L96.8673 17.3135L90.5255 0.717272L90.3583 0.279785ZM86.0555 10.3137L87.3868 6.45398L88.7114 10.3137H86.0555Z" fill="#F6F6F6"/>
<path d="M100.856 17.8961V0.620117H105.553V14.184H112.157V17.8961H100.856Z" fill="#F6F6F6"/>
<path d="M105.213 0.959647V14.5238H111.817V17.5559H101.197V0.959647H105.213ZM105.894 0.279785H100.516V18.2358H112.498V13.8439H105.894V0.279785Z" fill="#F6F6F6"/>
<path d="M133.558 17.8961L128.339 10.6566V17.8961H123.642V0.620117H128.339V7.60569L133.307 0.620117H138.972L132.485 8.87669L139.501 17.8961H133.558Z" fill="#F6F6F6"/>
<path d="M138.272 0.959647L132.053 8.87549L138.806 17.5559H133.732L128.534 10.3448C128.354 10.0527 128.196 9.74712 128.062 9.43086H127.999V17.5559H123.983V0.959647H127.999V8.80576H128.062C128.161 8.59034 128.327 8.28194 128.56 7.88057L133.483 0.959647H138.272H138.272ZM139.671 0.279785H133.132L132.928 0.565948L128.68 6.53744V0.279785H123.302V18.2358H128.68V11.7108L133.18 17.953L133.383 18.2358H140.197L139.343 17.1389L132.917 8.87755L138.807 1.37925L139.671 0.279785Z" fill="#F6F6F6"/>
<path d="M147.607 0.619629H142.91V17.8957H147.607V0.619629Z" fill="#F6F6F6"/>
<path d="M147.267 0.959647V17.5559H143.25V0.959647H147.267ZM147.948 0.279785H142.569V18.2358H147.948V0.279785Z" fill="#F6F6F6"/>
<path d="M157.128 17.8961V4.34338H152.067V0.620117H166.924V4.34338H161.838V17.8961H157.128Z" fill="#F6F6F6"/>
<path d="M166.584 0.959647V4.00295H161.497V17.5559H157.468V4.00295H152.407V0.959647H166.584ZM167.265 0.279785H151.726V4.68282H156.787V18.2358H162.178V4.68282H167.265V0.279785Z" fill="#F6F6F6"/>
</svg>
