<svg width="112" height="34" viewBox="0 0 112 34" fill="none" xmlns="http://www.w3.org/2000/svg">
<g clip-path="url(#clip0)">
<path d="M10.3434 29.7502C7.11112 29.7502 4.36364 26.9714 4.36364 23.7021H0.161621C0.161621 29.4233 4.68687 34.0002 10.3434 34.0002C16 34.0002 20.5253 29.4233 20.5253 23.7021H16.3232C16.3232 27.1348 13.5758 29.7502 10.3434 29.7502Z" fill="#F6F6F6"/>
<path d="M24.4038 14.548C24.4038 13.4038 24.8887 12.5865 25.6967 11.7692C26.5048 11.1153 27.7977 10.4615 29.7371 10.1346L32.6462 9.64419C32.6462 9.31727 32.4846 8.99035 32.323 8.66342C32.1614 8.3365 31.6765 8.3365 31.1917 8.3365C30.8685 8.3365 30.5452 8.3365 30.3836 8.49996C30.222 8.66342 30.0604 8.66342 29.8988 8.82689C29.7371 8.99035 29.5755 8.99035 29.4139 9.15381C29.2523 9.15381 29.0907 9.15381 28.9291 9.15381H25.8584C25.6967 9.15381 25.5351 9.15381 25.3735 8.99035C25.2119 8.82689 25.2119 8.82689 25.2119 8.66342C25.2119 8.3365 25.3735 7.84612 25.6967 7.51919C26.02 7.02881 26.3432 6.70189 26.9897 6.37496C27.4745 6.04804 28.121 5.72112 28.7674 5.55765C29.5755 5.06727 30.3836 4.90381 31.1917 4.90381C32.1614 4.90381 33.1311 5.06727 33.7775 5.23073C34.5856 5.55765 35.0705 5.88458 35.5553 6.2115C36.0402 6.70189 36.3634 7.19227 36.6866 7.84612C36.8483 8.49996 37.0099 9.15381 37.0099 9.80766V17.3269C37.0099 17.4903 37.0099 17.6538 36.8483 17.8173C36.6866 17.9807 36.525 17.9807 36.3634 17.9807H33.2927C33.1311 17.9807 32.9695 17.9807 32.8078 17.8173C32.6462 17.6538 32.6462 17.4903 32.6462 17.3269V16.673C32.323 17.1634 31.8382 17.4903 31.1917 17.8173C30.5452 18.1442 29.8988 18.3077 28.9291 18.3077C28.2826 18.3077 27.6361 18.1442 26.9897 17.9807C26.5048 17.8173 26.02 17.4903 25.5351 17.1634C25.2119 16.8365 24.8887 16.3461 24.727 15.8557C24.5654 15.3653 24.4038 15.0384 24.4038 14.548ZM30.0604 15.0384C30.3836 15.0384 30.7068 15.0384 31.0301 14.875C31.3533 14.7115 31.6765 14.548 31.8382 14.3846C31.9998 14.0577 32.323 13.8942 32.323 13.5673C32.323 13.2403 32.4846 12.9134 32.4846 12.5865L30.3836 13.0769C29.8988 13.2403 29.5755 13.2403 29.2523 13.5673C28.9291 13.7307 28.7674 14.0577 28.7674 14.3846C28.7674 14.7115 28.9291 14.875 29.0907 15.0384C29.4139 15.0384 29.5755 15.0384 30.0604 15.0384Z" fill="#F6F6F6"/>
<path d="M51.2321 14.3848C51.3937 14.3848 51.5553 14.3848 51.7169 14.5483C51.8785 14.7117 51.8785 14.8752 51.8785 15.0387V17.4906C51.8785 17.654 51.8785 17.8175 51.7169 17.981C51.5553 18.1444 51.3937 18.1444 51.2321 18.1444H40.5654C40.4038 18.1444 40.2422 18.1444 40.0806 17.981C39.9189 17.8175 39.9189 17.654 39.9189 17.4906V15.0387C39.9189 14.8752 39.9189 14.7117 40.0806 14.5483C40.2422 14.3848 40.2422 14.2213 40.4038 14.2213L45.2523 9.15403H40.8886C40.727 9.15403 40.5654 9.15403 40.4038 8.99057C40.2422 8.82711 40.2422 8.66365 40.2422 8.50019V5.8848C40.2422 5.72134 40.2422 5.55788 40.4038 5.39442C40.5654 5.23096 40.727 5.23096 40.8886 5.23096H50.9088C51.0705 5.23096 51.2321 5.23096 51.3937 5.39442C51.5553 5.55788 51.5553 5.72134 51.5553 5.8848V8.33673C51.5553 8.50019 51.5553 8.66365 51.3937 8.66365C51.3937 8.82711 51.2321 8.82711 51.0705 8.99057L46.0604 14.2213H51.2321V14.3848Z" fill="#F6F6F6"/>
<path d="M59.3134 3.10577C59.3134 3.26923 59.3133 3.43269 59.1517 3.59615C58.9901 3.75962 58.8285 3.75962 58.6669 3.75962H55.5962C55.4346 3.75962 55.2729 3.75962 55.1113 3.59615C54.9497 3.43269 54.9497 3.26923 54.9497 3.10577V0.653846C54.9497 0.490385 54.9497 0.326923 55.1113 0.163462C55.1113 0 55.2729 0 55.4346 0H58.5053C58.6669 0 58.8285 0 58.9901 0.163462C59.1517 0.326923 59.1517 0.490385 59.1517 0.653846V3.10577H59.3134ZM59.3134 17.4904C59.3134 17.6538 59.3133 17.8173 59.1517 17.9808C58.9901 18.1442 58.8285 18.1442 58.6669 18.1442H55.5962C55.4346 18.1442 55.2729 18.1442 55.1113 17.9808C54.9497 17.8173 54.9497 17.6538 54.9497 17.4904V5.88462C54.9497 5.72115 54.9497 5.55769 55.1113 5.39423C55.2729 5.23077 55.4346 5.23077 55.5962 5.23077H58.6669C58.8285 5.23077 58.9901 5.23077 59.1517 5.39423C59.3133 5.55769 59.3134 5.72115 59.3134 5.88462V17.4904Z" fill="#F6F6F6"/>
<path d="M82.909 17.4903C82.909 17.6538 82.9091 17.8173 82.7474 17.9807C82.5858 18.1442 82.4242 18.1442 82.2626 18.1442H79.1919C79.0303 18.1442 78.8686 18.1442 78.707 17.9807C78.5454 17.8173 78.5454 17.6538 78.5454 17.4903V11.1153C78.5454 10.298 78.3838 9.64419 78.0606 9.31727C77.7373 8.99035 77.2525 8.82689 76.7676 8.82689C76.1212 8.82689 75.7979 8.99035 75.4747 9.31727C75.1515 9.64419 74.9899 10.298 74.9899 11.1153V17.4903C74.9899 17.6538 74.9899 17.8173 74.8282 17.9807C74.6666 18.1442 74.505 18.1442 74.3434 18.1442H71.4343C71.2727 18.1442 71.1111 18.1442 70.9495 17.9807C70.7878 17.8173 70.7878 17.6538 70.7878 17.4903V11.1153C70.7878 10.298 70.6262 9.64419 70.303 9.31727C69.9798 8.99035 69.4949 8.82689 69.0101 8.82689C68.3636 8.82689 68.0404 8.99035 67.7171 9.31727C67.3939 9.64419 67.2323 10.298 67.2323 10.9519V17.3269C67.2323 17.4903 67.2323 17.6538 67.0707 17.8173C66.9091 17.9807 66.7474 17.9807 66.5858 17.9807H63.5151C63.3535 17.9807 63.1919 17.9807 63.0303 17.8173C62.8686 17.6538 62.8687 17.4903 62.8687 17.3269V5.88458C62.8687 5.72112 62.8686 5.55765 63.0303 5.39419C63.1919 5.23073 63.3535 5.23073 63.5151 5.23073H66.4242C66.5858 5.23073 66.7474 5.23073 66.9091 5.39419C67.0707 5.55765 67.0707 5.72112 67.0707 5.88458V6.53842C67.3939 6.04804 67.8787 5.72112 68.3636 5.39419C68.8484 5.06727 69.4949 4.90381 70.1414 4.90381C70.9495 4.90381 71.7575 5.06727 72.404 5.39419C73.0505 5.72112 73.6969 6.2115 74.0202 6.86535C74.505 6.2115 75.1515 5.72112 75.7979 5.39419C76.4444 5.06727 77.2525 4.90381 78.0606 4.90381C78.707 4.90381 79.3535 5.06727 80 5.23073C80.6464 5.39419 81.1313 5.72112 81.6161 6.2115C82.101 6.70189 82.4242 7.19227 82.5858 8.00958C82.7474 8.66342 82.909 9.64419 82.909 10.625V17.4903Z" fill="#F6F6F6"/>
<path d="M86.1416 5.8848C86.1416 5.72134 86.1416 5.55788 86.3032 5.39442C86.4648 5.23096 86.6265 5.23096 86.7881 5.23096H89.8588C90.0204 5.23096 90.182 5.23096 90.3436 5.39442C90.5052 5.55788 90.5052 5.72134 90.5052 5.8848V12.2598C90.5052 12.9137 90.6669 13.5675 90.9901 14.0579C91.3133 14.5483 91.7982 14.7117 92.6062 14.7117C93.4143 14.7117 93.8992 14.5483 94.2224 14.0579C94.5456 13.5675 94.7073 13.0771 94.7073 12.2598V5.8848C94.7073 5.72134 94.7073 5.55788 94.8689 5.39442C95.0305 5.23096 95.1921 5.23096 95.3537 5.23096H98.4244C98.586 5.23096 98.7477 5.23096 98.9093 5.39442C99.0709 5.55788 99.0709 5.72134 99.0709 5.8848V17.4906C99.0709 17.654 99.0709 17.8175 98.9093 17.981C98.7477 18.1444 98.586 18.1444 98.4244 18.1444H95.5153C95.3537 18.1444 95.1921 18.1444 95.0305 17.981C94.8689 17.8175 94.8689 17.654 94.8689 17.4906V16.8367C94.7073 17.0002 94.5456 17.1637 94.384 17.3271C94.2224 17.4906 93.8992 17.654 93.7376 17.8175C93.4143 17.981 93.0911 18.1444 92.7679 18.1444C92.4446 18.3079 91.9598 18.3079 91.4749 18.3079C89.8588 18.3079 88.5658 17.8175 87.5961 17.0002C86.6265 16.0194 86.1416 14.7117 86.1416 12.7502V5.8848Z" fill="#F6F6F6"/>
<path d="M108.283 13.0768C108.283 13.4037 108.445 13.7306 108.606 13.8941C108.768 14.0575 109.091 14.221 109.414 14.221H111.354C111.515 14.221 111.677 14.221 111.839 14.3845C112 14.5479 112 14.7114 112 14.8748V17.3268C112 17.4902 112 17.6537 111.839 17.8172C111.677 17.9806 111.515 17.9806 111.354 17.9806H109.091C108.283 17.9806 107.637 17.8172 106.99 17.6537C106.344 17.4902 105.859 17.1633 105.374 16.6729C104.889 16.1825 104.566 15.6922 104.404 15.2018C104.081 14.5479 104.081 13.8941 104.081 13.0768V9.1537H102.303C102.142 9.1537 101.98 9.1537 101.818 8.99023C101.657 8.82677 101.657 8.66331 101.657 8.49985V5.88446C101.657 5.721 101.657 5.55754 101.818 5.39408C101.98 5.23062 102.142 5.23062 102.303 5.23062H104.081V1.14408C104.081 0.980619 104.081 0.817157 104.243 0.653696C104.404 0.490234 104.566 0.490234 104.727 0.490234H107.798C107.96 0.490234 108.121 0.490234 108.283 0.653696C108.283 0.817157 108.283 0.980619 108.283 1.14408V5.23062H111.03C111.192 5.23062 111.354 5.23062 111.515 5.39408C111.677 5.55754 111.677 5.721 111.677 5.88446V8.33639C111.677 8.49985 111.677 8.66331 111.515 8.82677C111.354 8.99023 111.192 8.99023 111.03 8.99023H108.283V13.0768Z" fill="#F6F6F6"/>
<path d="M28.9291 31.5479C29.4139 31.5479 29.7371 31.3845 30.0604 31.221C30.3836 31.0575 30.5452 30.7306 30.5452 30.4037V29.2595C30.3836 29.4229 30.3836 29.5864 30.222 29.5864C30.0604 29.7499 29.8988 29.7498 29.7371 29.9133C29.5755 30.0768 29.4139 30.0768 29.0907 30.0768C28.7674 30.0768 28.6058 30.2402 28.121 30.2402C27.6361 30.2402 27.1513 30.2402 26.6664 30.0768C26.1816 29.9133 25.8584 29.7499 25.5351 29.4229C25.2119 29.096 24.8887 28.7691 24.727 28.2787C24.5654 27.7883 24.4038 27.2979 24.4038 26.6441C24.4038 26.4806 24.4038 26.3172 24.4038 25.9902C24.4038 25.8268 24.4038 25.4998 24.4038 25.3364C24.4038 24.6825 24.5654 24.1922 24.727 23.7018C24.8887 23.2114 25.2119 22.8845 25.5351 22.5575C25.8584 22.2306 26.3432 22.0672 26.6664 21.9037C27.1513 21.7402 27.6361 21.7402 28.121 21.7402C28.4442 21.7402 28.7674 21.7402 29.0907 21.9037C29.4139 21.9037 29.5755 22.0672 29.7371 22.2306C29.8988 22.3941 30.0604 22.3941 30.222 22.5575C30.3836 22.721 30.3836 22.721 30.5452 22.8845V22.5575C30.5452 22.3941 30.5452 22.3941 30.7068 22.2306C30.8685 22.0672 30.8685 22.0672 31.0301 22.0672H32.9695C33.1311 22.0672 33.1311 22.0672 33.2927 22.2306C33.4543 22.3941 33.4543 22.3941 33.4543 22.5575V30.8941C33.4543 31.5479 33.2927 32.0383 33.1311 32.5287C32.9695 33.0191 32.6462 33.346 32.1614 33.6729C31.6765 33.9999 31.3533 34.1633 30.7068 34.3268C30.222 34.4902 29.5755 34.4902 28.9291 34.4902C28.121 34.4902 27.3129 34.3268 26.8281 34.1633C26.3432 33.9999 25.8584 33.6729 25.5351 33.346C25.2119 33.0191 25.0503 32.6922 24.8887 32.3652C24.727 32.0383 24.727 31.7114 24.727 31.5479C24.727 31.3845 24.727 31.3845 24.8887 31.221C25.0503 31.0575 25.0503 31.0575 25.2119 31.0575H27.4745C27.6361 31.0575 27.9594 31.221 27.9594 31.3845C27.9594 31.5479 28.121 31.7114 28.2826 31.7114C28.2826 31.3845 28.6058 31.5479 28.9291 31.5479ZM27.4745 25.3364C27.4745 25.4998 27.4745 25.6633 27.4745 25.8268C27.4745 25.9902 27.4745 26.1537 27.4745 26.3172C27.4745 26.6441 27.6361 26.971 27.9594 27.2979C28.121 27.6249 28.6058 27.6248 29.0907 27.6248C29.5755 27.6248 29.8988 27.4614 30.222 27.2979C30.3836 26.971 30.5452 26.8075 30.7068 26.4806C30.7068 26.1537 30.7068 25.8268 30.7068 25.3364C30.7068 25.0095 30.5452 24.6825 30.222 24.5191C29.8988 24.1922 29.5755 24.1922 29.0907 24.1922C28.6058 24.1922 28.2826 24.3556 27.9594 24.5191C27.6361 24.5191 27.4745 24.846 27.4745 25.3364Z" fill="#F6F6F6"/>
<path d="M42.0203 21.4136C42.1819 21.4136 42.1819 21.4136 42.3435 21.577C42.5052 21.7405 42.5052 21.7405 42.5052 21.904V23.702C42.5052 23.8655 42.5052 23.8655 42.3435 24.029C42.1819 24.1924 42.1819 24.1924 42.0203 24.1924H40.4042C39.4345 24.1924 38.788 24.6828 38.788 25.827V30.077C38.788 30.2405 38.788 30.2405 38.6264 30.404C38.4648 30.5674 38.4648 30.5674 38.3031 30.5674H36.2021C36.0405 30.5674 36.0405 30.5674 35.8789 30.404C35.7173 30.2405 35.7173 30.2405 35.7173 30.077V22.0674C35.7173 21.904 35.7173 21.904 35.8789 21.7405C36.0405 21.577 36.0405 21.577 36.2021 21.577H38.1415C38.3031 21.577 38.3031 21.577 38.4648 21.7405C38.6264 21.904 38.6264 21.904 38.6264 22.0674V22.3943C38.9496 22.0674 39.2728 21.904 39.5961 21.7405C39.9193 21.577 40.4042 21.577 40.889 21.577H42.0203V21.4136Z" fill="#F6F6F6"/>
<path d="M52.6867 25.1732C52.6867 25.3366 52.6867 25.5001 52.6867 25.827C52.6867 26.154 52.6867 26.3174 52.6867 26.4809C52.6867 26.9713 52.5251 27.4616 52.3635 27.952C52.2019 28.4424 51.8787 28.7693 51.3938 29.2597C51.0706 29.5866 50.5857 29.9136 49.9393 30.077C49.4544 30.2405 48.8079 30.404 47.9999 30.404C47.3534 30.404 46.7069 30.2405 46.0605 30.077C45.414 29.9136 45.2524 29.7501 44.9292 29.4232C44.6059 29.0963 44.2827 28.6059 43.9595 28.1155C43.7978 27.6251 43.6362 27.1347 43.6362 26.6443C43.6362 26.4809 43.6362 26.3174 43.6362 25.9905C43.6362 25.6636 43.6362 25.5001 43.6362 25.3366C43.6362 24.8463 43.7978 24.3559 43.9595 23.8655C44.1211 23.3751 44.4443 23.0482 44.9292 22.5578C45.2524 22.2309 45.7372 21.904 46.3837 21.7405C46.8686 21.577 47.515 21.4136 48.3231 21.4136C48.9696 21.4136 49.616 21.577 50.2625 21.7405C50.7473 21.904 51.2322 22.2309 51.717 22.5578C52.0403 22.8847 52.3635 23.3751 52.6867 23.8655C52.5251 24.1924 52.6867 24.6828 52.6867 25.1732ZM46.5453 26.4809C46.5453 26.9713 46.7069 27.2982 47.0302 27.4616C47.3534 27.7886 47.6766 27.7886 48.1615 27.7886C48.6463 27.7886 48.9696 27.6251 49.2928 27.4616C49.616 27.2982 49.7776 26.8078 49.7776 26.4809C49.7776 26.3174 49.7776 26.154 49.7776 25.827C49.7776 25.6636 49.7776 25.3366 49.7776 25.1732C49.7776 24.6828 49.616 24.3559 49.2928 24.1924C48.9696 24.029 48.6463 23.8655 48.1615 23.8655C47.6766 23.8655 47.3534 24.029 47.0302 24.1924C46.7069 24.3559 46.5453 24.8463 46.5453 25.1732C46.5453 25.3366 46.5453 25.5001 46.5453 25.827C46.5453 26.154 46.5453 26.3174 46.5453 26.4809Z" fill="#F6F6F6"/>
<path d="M54.6265 21.904C54.6265 21.7405 54.6265 21.7405 54.7881 21.577C54.9497 21.4136 54.9497 21.4136 55.1113 21.4136H57.2123C57.3739 21.4136 57.3739 21.4136 57.5356 21.577C57.6972 21.7405 57.6972 21.7405 57.6972 21.904V26.154C57.6972 26.6443 57.8588 26.9713 58.0204 27.2982C58.182 27.7886 58.6669 27.7886 59.1517 27.7886C59.6366 27.7886 59.9598 27.6251 60.283 27.2982C60.4446 26.9713 60.6063 26.6443 60.6063 26.154V21.904C60.6063 21.7405 60.6063 21.7405 60.7679 21.577C60.9295 21.4136 60.9295 21.4136 61.0911 21.4136H63.0305C63.1921 21.4136 63.1921 21.4136 63.3537 21.577C63.5153 21.7405 63.5153 21.7405 63.5153 21.904V29.9136C63.5153 30.077 63.5153 30.077 63.3537 30.2405C63.1921 30.404 63.1921 30.404 63.0305 30.404H61.0911C60.9295 30.404 60.9295 30.404 60.7679 30.2405C60.6063 30.077 60.6063 30.077 60.6063 29.9136V29.4232C60.4446 29.5866 60.4446 29.7501 60.283 29.7501C60.1214 29.9136 59.9598 29.9136 59.7982 30.077C59.6366 30.2405 59.3133 30.2405 59.1517 30.2405C58.8285 30.2405 58.6669 30.404 58.182 30.404C57.0507 30.404 56.2426 30.077 55.5962 29.4232C54.9497 28.7693 54.6265 27.7886 54.6265 26.4809V21.904Z" fill="#F6F6F6"/>
<path d="M71.1112 30.5673C70.7879 30.5673 70.4647 30.5673 70.3031 30.4038C69.9798 30.4038 69.8182 30.2404 69.6566 30.0769C69.495 29.9135 69.3334 29.9135 69.1718 29.75C69.0102 29.5865 69.0102 29.5865 68.8485 29.4231V33.0192C68.8485 33.1827 68.8485 33.1827 68.6869 33.3462C68.5253 33.5096 68.5253 33.5096 68.3637 33.5096H66.2627C66.1011 33.5096 66.1011 33.5096 65.9394 33.3462C65.7778 33.1827 65.7778 33.1827 65.7778 33.0192V21.9038C65.7778 21.7404 65.7778 21.7404 65.9394 21.5769C66.1011 21.4135 66.1011 21.4135 66.2627 21.4135H68.3637C68.5253 21.4135 68.5253 21.4135 68.6869 21.5769C68.8485 21.7404 68.8485 21.7404 68.8485 21.9038V22.2308C69.0102 22.0673 69.0102 22.0673 69.1718 21.9038C69.3334 21.7404 69.495 21.7404 69.6566 21.5769C69.8182 21.4135 69.9798 21.4135 70.3031 21.4135C70.6263 21.4135 70.7879 21.25 71.2728 21.25C71.7576 21.25 72.2425 21.25 72.7273 21.4135C73.2122 21.5769 73.5354 21.7404 73.8586 22.0673C74.1819 22.3942 74.5051 22.7212 74.6667 23.2115C74.8283 23.7019 74.99 24.3558 74.99 25.0096C74.99 25.1731 74.99 25.3365 74.99 25.6635C74.99 25.9904 74.99 26.1538 74.99 26.3173C74.99 26.9712 74.8283 27.625 74.6667 28.1154C74.5051 28.6058 74.1819 28.9327 73.8586 29.2596C73.5354 29.5865 73.0506 29.75 72.7273 29.9135C72.0809 30.4038 71.596 30.5673 71.1112 30.5673ZM71.9192 26.3173C71.9192 25.9904 71.9192 25.6635 71.9192 25.3365C71.9192 25.0096 71.7576 24.5192 71.596 24.3558C71.4344 24.0288 70.9495 23.8654 70.4647 23.8654C70.1415 23.8654 69.9799 23.8654 69.8182 24.0288C69.6566 24.0288 69.495 24.1923 69.3334 24.3558C69.1718 24.5192 69.1718 24.6827 69.0102 24.8462C69.0102 25.0096 68.8485 25.1731 68.8485 25.3365C68.8485 25.5 68.8485 25.6635 68.8485 25.9904C68.8485 26.3173 68.8485 26.4808 68.8485 26.6442C68.8485 26.8077 68.8485 26.9712 69.0102 27.1346C69.0102 27.2981 69.1718 27.4615 69.3334 27.625C69.495 27.7885 69.6566 27.7885 69.8182 27.9519C69.9799 27.9519 70.1415 28.1154 70.4647 28.1154C70.9495 28.1154 71.4344 27.9519 71.596 27.625C71.7576 27.1346 71.9192 26.8077 71.9192 26.3173Z" fill="#F6F6F6"/>
<path d="M20.5253 10.2981C20.5253 8.5 20.0404 6.70192 19.0707 5.23077C18.2626 3.92308 17.2929 2.77885 16 1.79808C14.3838 0.653846 12.4444 0 10.1818 0C8.08081 0 6.14141 0.653846 4.52525 1.79808C3.23232 2.61538 2.10101 3.75962 1.45455 5.23077C0.484848 6.70192 0 8.5 0 10.2981C0 16.0192 4.52525 20.5962 10.1818 20.5962C12.4444 20.5962 14.5455 19.7788 16.1616 18.6346V20.5962H20.3636V10.2981C20.5253 10.2981 20.5253 10.2981 20.5253 10.2981ZM10.1818 16.5096C6.78788 16.5096 4.20202 13.7308 4.20202 10.4615C4.20202 9.80769 4.36364 9.31731 4.52525 8.66346C5.0101 7.19231 5.81818 6.04808 7.11111 5.23077C8.08081 4.74038 9.0505 4.25 10.3434 4.25C11.4747 4.25 12.6061 4.57692 13.5758 5.23077C14.8687 6.04808 15.6768 7.19231 16.1616 8.66346C16.1616 9.15385 16.3232 9.80769 16.3232 10.2981C16.3232 13.7308 13.5758 16.5096 10.1818 16.5096Z" fill="#F6F6F6"/>
</g>
<defs>
<clipPath id="clip0">
<rect width="112" height="34" fill="white"/>
</clipPath>
</defs>
</svg>
