<svg width="77" height="73" viewBox="0 0 77 73" fill="none" xmlns="http://www.w3.org/2000/svg">
<g clip-path="url(#clip0)">
<path d="M8.68277 48.3078C7.12515 48.1404 5.99285 48.0568 5.28586 48.0571C4.57887 48.0571 4.1674 48.0766 4.05143 48.1155C3.99901 48.1291 3.95294 48.1607 3.92119 48.2049C3.88943 48.2492 3.87397 48.3032 3.87748 48.3577C3.87869 48.4196 3.89826 48.4797 3.93366 48.5304C3.96907 48.581 4.0187 48.6198 4.07615 48.6417C4.20882 48.7085 4.6259 48.82 5.32737 48.9761C5.90908 49.0998 6.4842 49.2532 7.05054 49.4356C7.48534 49.5794 7.89395 49.7939 8.26025 50.0705C8.60033 50.3169 8.85063 50.6692 8.9726 51.0731C9.08873 51.4687 9.14679 52.0006 9.14679 52.6689C9.14679 54.0506 8.78218 55.0365 8.05296 55.6265C7.32405 56.2172 6.22493 56.5124 4.75562 56.5121C4.01032 56.5096 3.26593 56.4595 2.52693 56.3621C1.74812 56.2614 1.14886 56.1611 0.729141 56.0611L0.082778 55.9106L0.248566 52.9529C1.93863 53.1984 3.32501 53.321 4.40772 53.3207C4.9818 53.3207 5.269 53.1926 5.26931 52.9364C5.26746 52.8796 5.24693 52.8249 5.21092 52.781C5.17492 52.7372 5.12549 52.7067 5.07041 52.6942C4.71685 52.5985 4.3569 52.5285 3.99337 52.485C2.44671 52.2404 1.39455 51.859 0.836868 51.3407C0.278878 50.8225 -7.77983e-05 49.973 1.62752e-08 48.7922C1.62752e-08 47.2882 0.359013 46.2578 1.07704 45.7009C1.79498 45.1441 2.89969 44.8655 4.39117 44.8652C5.62885 44.8811 6.86378 44.9872 8.0863 45.1827L8.7821 45.2998L8.68277 48.3078Z" fill="#F6F6F6"/>
<path d="M11.0522 56.2784V45.0825H14.8302L17.382 49.3269H17.614V45.0825H21.4582V56.2784H17.6637L15.1449 51.7165H14.8964V56.2784H11.0522Z" fill="#F6F6F6"/>
<path d="M23.6948 56.2784V45.0825H32.0129V48.1738H27.539V49.1266H31.0186V52.1845H27.539V53.1871H32.0129V56.2784L23.6948 56.2784Z" fill="#F6F6F6"/>
<path d="M33.4546 56.2784L35.9071 45.0825H41.723L44.2255 56.2784H40.3477L40.033 54.9916H37.4979L37.2325 56.2784H33.4546ZM38.6246 48.1239L37.995 52.034H39.6356L39.0387 48.1239H38.6246Z" fill="#F6F6F6"/>
<path d="M49.7094 52.5522V56.2784H45.8652V45.0825H49.7094V49.0429H50.372L51.6149 45.0825H55.4259L53.6533 50.4966L55.5919 56.2784H51.731L50.3888 52.5522H49.7094Z" fill="#F6F6F6"/>
<path d="M57.1992 56.2784V45.0825H65.5175V48.1738H61.0434V49.1266H64.5233V52.1845H61.0434V53.1871H65.5175V56.2784L57.1992 56.2784Z" fill="#F6F6F6"/>
<path d="M72.3271 53.3875H71.3827V56.2784H67.5386V45.0825H72.2114C73.9234 45.0825 75.1496 45.3694 75.89 45.9432C76.6296 46.5169 76.9996 47.5807 76.9999 49.1346C76.9999 50.6889 76.5912 51.8002 75.7739 52.4685L76.8675 56.2784H72.9571L72.3271 53.3875ZM72.3107 50.3296C72.8517 50.3296 73.1223 49.9648 73.1227 49.2352C73.1227 48.5053 72.8189 48.1404 72.2114 48.1404H71.3664V50.3296H72.3107Z" fill="#F6F6F6"/>
<path d="M21.8969 70.3935H21.3832V72.7661H17.5391V61.5703H21.8969C23.6534 61.5703 24.9321 61.8766 25.7329 62.4893C26.5338 63.1021 26.9343 64.2522 26.9342 65.9398C26.9342 67.6277 26.531 68.792 25.7247 69.4327C24.9181 70.0732 23.6422 70.3935 21.8969 70.3935ZM21.3832 67.3352H21.7313C22.2061 67.3352 22.5457 67.2294 22.7503 67.0177C22.9546 66.8066 23.0568 66.4446 23.0569 65.9318C23.0569 65.4192 22.9603 65.0739 22.7669 64.8958C22.5736 64.7175 22.2284 64.6283 21.7313 64.6282H21.3832L21.3832 67.3352Z" fill="#F6F6F6"/>
<path d="M28.9229 72.7661V61.5703H37.2409V64.6616H32.767V65.6144H36.2469V68.6722H32.767V69.6749H37.2409V72.7661H28.9229Z" fill="#F6F6F6"/>
<path d="M43.62 70.3935H43.1064V72.7661H39.2622V61.5703H43.62C45.3766 61.5703 46.6553 61.8766 47.4563 62.4893C48.2565 63.1021 48.657 64.2522 48.6576 65.9398C48.6576 67.6277 48.2543 68.792 47.4479 69.4327C46.6413 70.0732 45.3654 70.3935 43.62 70.3935ZM43.1064 67.3352H43.4545C43.9292 67.3352 44.2689 67.2294 44.4735 67.0177C44.6777 66.8066 44.7799 66.4446 44.7801 65.9318C44.7801 65.4192 44.6834 65.0739 44.49 64.8958C44.2967 64.7175 43.9515 64.6283 43.4545 64.6282H43.1064V67.3352Z" fill="#F6F6F6"/>
<path d="M58.9975 64.7956C57.4398 64.6282 56.3075 64.5446 55.6006 64.5449C54.8936 64.5449 54.4821 64.5644 54.3661 64.6032C54.3137 64.6169 54.2676 64.6485 54.2359 64.6927C54.2041 64.7369 54.1887 64.791 54.1922 64.8454C54.1934 64.9074 54.213 64.9675 54.2484 65.0182C54.2838 65.0688 54.3334 65.1076 54.3908 65.1295C54.5233 65.1963 54.9404 65.3077 55.6421 65.4639C56.2238 65.5876 56.7989 65.7409 57.3652 65.9233C57.8 66.0673 58.2086 66.2817 58.5749 66.5582C58.9149 66.8048 59.1653 67.157 59.2875 67.5609C59.4181 68.0822 59.4766 68.6192 59.4615 69.1566C59.4615 70.5383 59.0969 71.5242 58.3679 72.1143C57.6385 72.705 56.5393 73.0002 55.0703 72.9999C54.325 72.9974 53.5806 72.9473 52.8416 72.8498C52.0628 72.7492 51.4636 72.6489 51.0438 72.5489L50.3975 72.3984L50.563 69.4407C52.2536 69.6862 53.64 69.8088 54.7224 69.8084C55.2965 69.8084 55.5836 69.6804 55.5838 69.4242C55.5819 69.3674 55.5614 69.3127 55.5255 69.2689C55.4895 69.225 55.4401 69.1945 55.3851 69.182C55.0316 69.0862 54.6718 69.0163 54.3083 68.9727C52.7614 68.7282 51.7092 68.3468 51.1516 67.8285C50.5934 67.3102 50.3145 66.4607 50.3149 65.28C50.3149 63.776 50.6739 62.7456 51.3917 62.1887C52.1099 61.6319 53.2146 61.3533 54.7056 61.353C55.9434 61.3689 57.1784 61.475 58.401 61.6705L59.0968 61.7876L58.9975 64.7956Z" fill="#F6F6F6"/>
<path d="M57.8877 35.997L31.6182 32.4865C40.8415 26.8488 54.6513 16.3386 56.1058 15.2764C58.1248 13.8021 57.9159 13.3808 57.8463 12.3979C57.7767 11.415 55.34 10.0108 55.34 10.0108C53.6778 4.20108 48.6739 0.999252 48.6739 0.999252C46.6123 -0.424214 45.4858 -0.00613575 45.0292 0.321515C44.9736 0.359085 44.9322 0.4144 44.9117 0.478562C44.8911 0.542724 44.8925 0.612001 44.9157 0.675248C45.0112 0.909167 45.0812 1.56975 44.81 3.42C44.3662 6.44775 41.0766 8.02744 41.0766 8.02744C41.0766 8.02744 41.5988 7.34288 39.9018 4.23616C38.2048 1.12945 35.9857 4.02554 35.9857 4.02554C26.3782 24.6141 20.095 24.9125 19.2074 30.6169C18.3197 36.3214 23.9415 36.0121 23.9415 36.0121C24.087 36.0225 24.2333 36.0168 24.3776 35.9951L24.3756 35.997H57.8877Z" fill="#F6F6F6"/>
</g>
<defs>
<clipPath id="clip0">
<rect width="77" height="73" fill="white"/>
</clipPath>
</defs>
</svg>
