<svg width="112" height="69" viewBox="0 0 112 69" fill="none" xmlns="http://www.w3.org/2000/svg">
<path d="M74.6665 26.2383C74.8475 25.7844 74.8174 25.4212 74.3043 25.3304C73.1574 25.1186 72.7953 24.3015 72.5236 23.3028C72.1011 21.7291 71.3768 20.1857 71.1655 18.5818C70.7128 15.2528 69.3245 12.1962 68.5096 8.98833C68.4493 8.71596 68.6002 8.41333 68.6907 7.89886C67.4533 6.29491 66.0348 4.47912 64.6465 2.66333C64.2843 2.17912 64.0429 1.63438 63.7411 0.998856C61.4776 0.302804 59.0933 -0.0300912 56.6487 0.0304351L37.2124 43.3975H45.1801C46.0855 41.4607 48.7715 35.166 51.5482 28.6291H65.1294C63.6506 25.966 62.2019 23.3331 60.723 20.7002H54.9284C56.6789 16.6146 58.1275 13.2554 58.7311 11.9239C58.882 11.591 59.0329 11.2581 59.2744 10.7739C61.1154 14.1028 62.9564 17.4015 64.7672 20.6699C66.2461 23.3331 67.6947 25.966 69.1736 28.5989C69.4754 29.1133 69.747 29.6278 70.0488 30.1423C70.4412 29.6883 70.7732 29.3252 71.1052 28.962C71.1353 28.9923 71.1655 29.0225 71.1957 29.0528C70.9844 29.416 70.6826 29.7791 70.5921 30.1725C70.3808 31.0804 69.8376 31.4739 68.9925 31.7765C66.8195 32.5028 64.6767 33.3199 62.5037 34.1068C62.1717 34.2278 61.7794 34.2581 61.4474 34.1975C60.6325 34.1068 59.8176 33.9554 59.0329 33.8344C58.7613 33.8041 58.4595 33.7133 58.1879 33.7133C56.9807 33.8041 55.7433 34.016 54.6869 33.1081C54.536 32.987 54.1135 33.2594 53.8117 33.3199C53.9324 33.562 53.9928 33.8647 54.1739 34.016C57.4635 36.891 60.7834 39.766 64.0731 42.641C64.3145 42.8528 64.6163 43.0647 65.0389 43.3673C65.1294 43.337 65.1898 43.3068 65.2803 43.2765C67.906 42.2475 70.2601 40.7949 72.2218 38.9791C72.5538 37.7686 72.8556 36.5883 73.1574 35.4383C73.248 35.1054 73.3385 34.7725 73.4291 34.4397C73.7007 33.5015 73.9421 32.5331 74.2137 31.5949C74.4552 30.7173 74.425 29.9304 73.8516 29.2041C73.7309 29.0528 73.7007 28.7199 73.7912 28.5081C74.0628 27.7515 74.3345 26.9949 74.6665 26.2383ZM71.2259 23.5752C69.7772 19.1568 68.3285 14.7383 66.8799 10.3199C66.8195 10.1081 66.8195 9.86596 66.7893 9.65412C66.8497 9.65412 66.9402 9.62386 67.0006 9.62386C67.3024 10.3804 67.6042 11.137 67.8758 11.8936C68.5096 13.7396 68.8718 15.7673 69.8376 17.4015C71.0448 19.4896 71.3164 21.8502 72.1615 23.9989C72.1917 24.0897 72.2218 24.2107 72.252 24.362C71.6484 24.362 71.3768 24.0897 71.2259 23.5752ZM71.7088 30.8383C71.6786 30.5357 71.92 30.0212 72.1615 29.9304C72.4331 29.8094 72.8556 30.0515 73.2178 30.112C73.248 30.2331 73.3083 30.3239 73.3385 30.4449C73.1272 30.7475 72.9462 31.1712 72.6444 31.3225C72.252 31.5647 71.7691 31.3225 71.7088 30.8383ZM64.2542 35.3173C63.0771 35.862 61.9001 36.3765 60.723 36.891C60.0289 37.1936 59.3951 37.1028 58.7915 36.6186C58.1577 36.1041 57.5239 35.5896 56.8298 35.0146C57.8257 34.6515 58.7009 34.5607 59.6064 34.9541C60.8136 35.4383 61.9604 35.3778 63.1978 34.8633C65.1596 34.0462 67.1817 33.3502 69.2038 32.6239C69.4452 32.5331 69.6867 32.4725 69.9583 32.5331C68.0569 33.4712 66.1555 34.4094 64.2542 35.3173ZM72.8254 28.4778C72.4633 27.3278 72.1313 26.3594 71.7691 25.2397C72.4935 25.5423 73.0971 25.7844 73.761 26.0568C73.4592 26.8436 73.1876 27.5699 72.8254 28.4778Z" fill="#F6F6F6"/>
<path d="M2.20318 48.1489H5.16087L7.33387 59.9213H4.94961L4.55726 57.4397H2.83697L2.44462 59.9213H0L2.20318 48.1489ZM4.31582 55.866L3.68203 51.266L3.04823 55.866H4.31582Z" fill="#F6F6F6"/>
<path d="M20.0399 58.0752C20.5832 58.0752 20.9755 58.0147 21.1566 57.8634C21.3679 57.7121 21.4886 57.3792 21.5792 56.895C21.6697 56.4107 21.7602 55.4423 21.8508 53.9897L21.881 53.3844L22.2431 48.1187H28.4603V59.9213H25.895V50.1463H24.5972L24.3558 53.8989C24.235 55.7147 24.0841 56.9857 23.9634 57.7121C23.8125 58.4384 23.5107 59.0134 23.058 59.3765C22.5751 59.7397 21.8206 59.9213 20.7341 59.9213C20.4021 59.9213 20.1607 59.9213 20.0098 59.9213V58.0752H20.0399Z" fill="#F6F6F6"/>
<path d="M42.7357 48.1489H45.3313V53.1121H45.9047C48.1984 53.1121 49.3453 54.2318 49.3453 56.5016C49.3453 57.4094 49.1944 58.1055 48.8624 58.62C48.5606 59.1042 48.1381 59.4673 47.5948 59.6489C47.0516 59.8305 46.4178 59.9213 45.6331 59.9213H42.7056V48.1489H42.7357ZM45.6633 58.1963C46.116 58.1963 46.448 58.0752 46.6592 57.8029C46.8705 57.5305 46.961 57.1371 46.961 56.5621C46.961 56.0173 46.8705 55.6239 46.6894 55.3213C46.5083 55.0187 46.1461 54.8976 45.6331 54.8976H45.3011V58.1963H45.6633Z" fill="#F6F6F6"/>
<path d="M64.6468 54.6858C64.1941 54.4134 63.8018 53.9897 63.5302 53.4752C63.2585 52.9608 63.1076 52.3555 63.1076 51.6594C63.1076 50.3581 63.4396 49.4502 64.1036 48.9358C64.7676 48.4213 65.7635 48.1489 67.0915 48.1489H70.1095V59.9213H67.5442V55.2608H67.0915H66.9406L65.1901 59.9213H62.3833L64.6468 54.6858ZM67.5442 53.4147V49.9344H67.1518C66.0955 49.9344 65.5523 50.5095 65.5523 51.6897C65.5523 52.87 66.0955 53.445 67.182 53.445H67.5442V53.4147Z" fill="#F6F6F6"/>
<path d="M84.2944 48.1489H86.89V52.9002H88.6103V48.1489H91.1756V59.9213H88.6103V54.7766H86.89V59.9213H84.2944V48.1489Z" fill="#F6F6F6"/>
<path d="M105.934 59.0739C105.39 58.4081 105.119 57.4397 105.119 56.1686V51.9318C105.119 50.6305 105.39 49.662 105.934 48.9962C106.477 48.3304 107.382 47.9976 108.65 47.9976C109.887 47.9976 110.732 48.3002 111.245 48.8752C111.758 49.4805 112 50.2976 112 51.387V52.416H109.465V51.2357C109.465 50.9331 109.465 50.691 109.434 50.5094C109.404 50.3278 109.344 50.1765 109.223 50.0252C109.102 49.9041 108.921 49.8436 108.65 49.8436C108.288 49.8436 108.046 49.9647 107.925 50.237C107.805 50.4791 107.744 50.8423 107.744 51.2962V56.8344C107.744 57.2883 107.805 57.6515 107.925 57.8936C108.046 58.1357 108.288 58.2568 108.62 58.2568C108.982 58.2568 109.193 58.1357 109.314 57.8936C109.434 57.6515 109.465 57.2883 109.465 56.8344V55.5936H112V56.6226C112 57.712 111.758 58.5897 111.245 59.1949C110.732 59.8002 109.857 60.1028 108.62 60.1028C107.382 60.0726 106.477 59.7397 105.934 59.0739Z" fill="#F6F6F6"/>
<path d="M7.75647 67.4566H6.82087L6.66997 68.304H5.73438L6.85106 63.4922H7.69611L8.81279 68.304H7.87719L7.75647 67.4566ZM7.66593 66.8211L7.30376 64.6422L6.9416 66.8211H7.66593Z" fill="#F6F6F6"/>
<path d="M14.6982 65.1567C14.6378 66.1856 13.7928 66.7304 12.7365 66.8817V68.3343H11.8311V63.5225H12.7365C13.7626 63.5225 14.7586 63.8251 14.6982 65.1567ZM12.7365 64.0672V66.3369C13.3099 66.1856 13.6721 65.8527 13.7626 65.2475C13.823 64.5817 13.5513 64.1883 12.7365 64.0672Z" fill="#F6F6F6"/>
<path d="M18.6515 64.158V65.6106H19.9191V66.2461H18.6515V67.6988H20.1002V68.3343H17.7461V63.5225H20.1002V64.158H18.6515Z" fill="#F6F6F6"/>
<path d="M26.1366 63.5225V68.3343H25.2312V66.2461H24.1447V68.3343H23.2393V63.5225H24.1447V65.6106H25.2312V63.5225H26.1366Z" fill="#F6F6F6"/>
<path d="M32.2027 67.6988V69.0001H31.2973V68.3343H29.7882V69.0001H28.8828V67.6988H29.245C29.2752 67.5172 29.3053 67.3356 29.3355 67.0935C29.4261 66.4277 29.4864 63.5527 29.4864 63.5527H31.8405V67.7291H32.2027V67.6988ZM30.9351 67.6988V64.158H30.3617C30.3315 65.0356 30.3013 66.5791 30.2409 67.033C30.2108 67.2751 30.1504 67.5172 30.1202 67.6685H30.9351V67.6988Z" fill="#F6F6F6"/>
<path d="M36.8805 67.4566H35.9449L35.794 68.304H34.8584L35.9751 63.4922H36.8201L37.9368 68.304H37.0012L36.8805 67.4566ZM36.79 66.8211L36.4278 64.6422L36.0656 66.8211H36.79Z" fill="#F6F6F6"/>
<path d="M48.1986 67.0935L48.7418 67.6988C48.3495 68.1224 47.8062 68.3948 47.1423 68.3948C45.8143 68.3948 44.8184 67.3053 44.8184 65.9435C44.8184 64.5817 45.8445 63.4922 47.1423 63.4922C47.8062 63.4922 48.3797 63.7646 48.772 64.2185L48.2288 64.8238C48.0175 64.3396 47.6252 64.0369 47.1423 64.0369C46.3576 64.0369 45.8445 64.9146 45.8445 65.9435C45.8445 67.0027 46.3576 67.8501 47.1423 67.8501C47.595 67.8501 47.9571 67.5474 48.1986 67.0935Z" fill="#F6F6F6"/>
<path d="M54.5965 63.5224V68.3343H53.6911V64.158H52.6046V68.304H51.6992V63.4922H54.5965V63.5224Z" fill="#F6F6F6"/>
<path d="M58.7013 64.158V65.6106H59.9689V66.2461H58.7013V67.6988H60.15V68.3343H57.7959V63.5225H60.15V64.158H58.7013Z" fill="#F6F6F6"/>
<path d="M66.5481 67.6988V69.0001H65.6427V68.3343H63.2886V63.5225H64.194V67.6988H65.2805V63.5225H66.1859V67.6988H66.5481Z" fill="#F6F6F6"/>
<path d="M71.5582 63.5225V64.158H70.8339V68.304H69.9284V64.158H69.2041V63.5225H71.5582Z" fill="#F6F6F6"/>
<path d="M75.5421 64.158V65.6106H76.8097V66.2461H75.5421V67.6988H76.9908V68.3343H74.6367V63.5225H76.9908V64.158H75.5421Z" fill="#F6F6F6"/>
<path d="M81.5177 65.9435L82.4835 68.304H81.578L81.065 66.6698L80.5519 68.304H79.6465L80.6123 65.9435L79.6767 63.5225H80.5821L81.065 65.2172L81.5479 63.5225H82.4533L81.5177 65.9435Z" fill="#F6F6F6"/>
<path d="M88.3085 63.5225V68.3343H87.403V66.2461H86.3165V68.3343H85.4111V63.5225H86.3165V65.6106H87.403V63.5225H88.3085Z" fill="#F6F6F6"/>
<path d="M92.443 63.5225V66.3672L93.5899 63.5225H94.3746V68.3343H93.4692V65.429L92.3223 68.3343H91.5376V63.5225H92.443Z" fill="#F6F6F6"/>
<path d="M98.6905 66.2461H98.5094V68.3343H97.604V63.5225H98.5094V65.6106H98.6905L99.4148 63.5225H100.381L99.445 65.9133L100.532 68.304H99.5657L98.6905 66.2461Z" fill="#F6F6F6"/>
<path d="M104.334 63.5225V66.3672L105.481 63.5225H106.266V68.3343H105.36V65.429L104.213 68.3343H103.429V63.5225H104.334Z" fill="#F6F6F6"/>
</svg>
