<svg width="73" height="69" viewBox="0 0 73 69" fill="none" xmlns="http://www.w3.org/2000/svg">
<path d="M48.3933 14.2953L44.6144 15.3441V7.23505L31.3248 0L24.6849 2.39873V27.231L23.2202 26.9493L21.9118 26.6968L14.4321 30.7659V49.5673H17.1467L21.9118 46.9744V48.703L20.3299 49.5576H22.8883V27.8622L24.5482 28.173L24.6752 28.2021V49.5673H26.384V3.27277L29.5868 2.1171V49.5285H44.6047V16.6843L47.0556 16.0433V49.5285H47.6512V49.5673H48.3836V48.4602L50.4048 49.5673H53.9982L48.3933 46.5179V45.0418L56.703 49.5673H58.4118L58.568 19.8405L48.3933 14.2953ZM21.9118 45.0321L15.3988 48.5768V47.1006L21.9118 43.5559V45.0321ZM21.9118 41.6137L15.3988 45.1583V43.6822L21.9118 40.1472V41.6137ZM21.9118 38.1952L15.3988 41.7302V40.2638L21.9118 36.7191V38.1952ZM21.9118 34.7671L15.3988 38.3118V36.5831L21.9118 33.0384V34.7671ZM21.9118 31.0864L15.3988 34.6311V33.1647L21.9118 29.62V31.0864ZM42.8959 48.1203L31.3248 41.8176V40.3512L42.8959 46.6539V48.1203ZM42.8959 44.7019L31.3248 38.3992V36.9327L42.8959 43.2355V44.7019ZM42.8959 41.2738L31.3248 34.971V33.5046L42.8959 39.8073V41.2738ZM42.8959 37.8553L31.3248 31.5526V29.8142L42.8959 36.1267V37.8553ZM42.8959 34.1747L31.3248 27.8719V26.4055L42.8959 32.7082V34.1747ZM42.8959 30.7562L31.3248 24.4535V22.9871L42.8959 29.2898V30.7562ZM42.8959 27.3378L31.3248 21.035V19.5686L42.8959 25.8714V27.3378ZM42.8959 23.9096L31.3248 17.6069V15.8783L42.8959 22.181V23.9096ZM42.8959 20.229L31.3248 13.9262V12.4598L42.8959 18.7626V20.229ZM42.8959 16.8106L31.3248 10.5078V9.04138L42.8959 15.3441V16.8106ZM42.8959 13.3921L31.3248 7.08937V5.61323L42.8959 11.916V13.3921ZM42.8959 9.97368L31.3248 3.67094V1.95201L42.8959 8.25475V9.97368ZM57.2498 47.9164L48.3836 43.0898V41.3612L57.2498 46.1878V47.9164ZM57.2498 44.2357L48.3836 39.4091V37.9427L57.2498 42.7693V44.2357ZM57.2498 40.8173L48.3836 35.9907V34.5243L57.2498 39.3509V40.8173ZM57.2498 37.3989L48.3836 32.5723V31.1058L57.2498 35.9324V37.3989ZM57.2498 33.9707L48.3836 29.1441V27.4155L57.2498 32.2421V33.9707ZM57.2498 30.2901L48.3836 25.4635V23.997L57.2498 28.8236V30.2901ZM57.2498 26.8716L48.3933 22.045V20.5786L57.2596 25.4052V26.8716H57.2498Z" fill="#F6F6F6"/>
<path d="M4.59912 60.8425H3.70078L0.742108 57.6183V60.8425H0V54.4814H0.742108V57.56L3.62266 54.4814H4.47218L1.64045 57.5697L4.59912 60.8425Z" fill="#F6F6F6"/>
<path d="M13.5238 57.657C13.5238 58.6767 13.2601 59.4731 12.7426 60.0558C12.2251 60.6385 11.5025 60.9298 10.5846 60.9298C9.64725 60.9298 8.9149 60.6482 8.40714 60.0752C7.89939 59.5022 7.63574 58.6962 7.63574 57.6473C7.63574 56.6082 7.88962 55.8119 8.40714 55.2389C8.92467 54.6659 9.64725 54.3843 10.5944 54.3843C11.5123 54.3843 12.2349 54.6756 12.7426 55.2583C13.2699 55.8313 13.5238 56.6373 13.5238 57.657ZM8.42667 57.657C8.42667 58.5214 8.6122 59.172 8.98326 59.6188C9.35431 60.0655 9.89136 60.2888 10.5944 60.2888C11.3072 60.2888 11.8345 60.0655 12.1958 59.6188C12.5571 59.172 12.7426 58.5214 12.7426 57.657C12.7426 56.8024 12.5669 56.1518 12.2056 55.705C11.8443 55.2583 11.317 55.0447 10.6042 55.0447C9.89136 55.0447 9.35431 55.268 8.98326 55.7147C8.6122 56.1615 8.42667 56.8024 8.42667 57.657Z" fill="#F6F6F6"/>
<path d="M22.3022 60.8425H21.5601V57.8513H18.1913V60.8425H17.4492V54.4814H18.1913V57.1909H21.5601V54.4814H22.3022V60.8425Z" fill="#F6F6F6"/>
<path d="M28.5124 60.8425H27.7703V55.1418H25.749V54.4814H30.5434V55.1418H28.5124V60.8425Z" fill="#F6F6F6"/>
<path d="M34.0103 54.4814H34.7035V58.0164C34.7035 58.667 34.684 59.2594 34.645 59.7838H34.684L38.2676 54.4717H39.0781V60.8327H38.375V57.3268C38.375 56.7442 38.4043 56.1323 38.4531 55.4914H38.4141L34.8207 60.8327H34.0103V54.4814Z" fill="#F6F6F6"/>
<path d="M48.1787 60.8425H47.4366V57.8513H44.0678V60.8425H43.3257V54.4814H44.0678V57.1909H47.4366V54.4814H48.1787V60.8425Z" fill="#F6F6F6"/>
<path d="M55.9903 60.8425H52.4263V54.4814H55.9903V55.1418H53.1684V57.1909H55.8243V57.8416H53.1684V60.1821H55.9903V60.8425Z" fill="#F6F6F6"/>
<path d="M64.749 60.8425H64.0069V57.8513H60.6381V60.8425H59.896V54.4814H60.6381V57.1909H64.0069V54.4814H64.749V60.8425Z" fill="#F6F6F6"/>
<path d="M70.9689 60.8425H70.2268V55.1418H68.1958V54.4814H72.9902V55.1418H70.9592V60.8425H70.9689Z" fill="#F6F6F6"/>
<path d="M36.9686 64.8438V65.8537H36.0215C36.0996 65.5236 36.1777 65.1837 36.2461 64.8438H36.9686Z" fill="#F6F6F6"/>
<path d="M26.843 49.373H1.38669C1.30858 49.7032 1.23046 50.0431 1.16211 50.383H36.3439H36.8614H71.8284C71.76 50.0431 71.6819 49.7032 71.6038 49.373H46.294" fill="#F6F6F6"/>
<path d="M1.14258 64.8438C1.21093 65.1837 1.28905 65.5235 1.36716 65.8537H26.8429C26.8429 67.5921 28.2588 68.9905 29.9969 68.9905H43.1693C44.9172 68.9905 46.3233 67.5824 46.3233 65.8537H71.6233C71.7014 65.5235 71.7795 65.1837 71.8479 64.8438H1.14258Z" fill="#F6F6F6"/>
</svg>
