<svg width="103" height="73" viewBox="0 0 103 73" fill="none" xmlns="http://www.w3.org/2000/svg">
<path d="M20.1241 12.5876V18.6483H26.142C25.3705 15.6957 23.0688 13.3646 20.1241 12.5876ZM20.1241 12.5876V18.6483H26.142C25.3705 15.6957 23.0688 13.3646 20.1241 12.5876ZM20.1241 12.5876V18.6483H26.142C25.3705 15.6957 23.0688 13.3646 20.1241 12.5876ZM17.9509 2.84912L2.43018 11.8624V29.889L17.9509 38.9153L33.4588 29.889V11.8624L17.9509 2.84912ZM14.0804 32.9323C9.25827 31.3524 5.69634 26.9364 5.37487 21.6398C5.36201 21.3808 5.34915 21.1218 5.34915 20.8498C5.34915 20.5779 5.36201 20.3189 5.37487 20.0599C5.69634 14.7633 9.25827 10.3473 14.0804 8.76734V13.2092C11.9458 14.2971 10.3384 16.2655 9.70833 18.6354H11.6243V23.0643H9.70833C10.3384 25.4342 11.9458 27.3897 14.0804 28.4904V32.9323ZM30.3212 23.0773H20.1241V29.1379C22.4772 28.5034 24.4318 26.8846 25.5119 24.7349H29.9097C28.3538 29.5912 23.956 33.1784 18.6967 33.5021C18.4395 33.5151 18.1824 33.528 17.9123 33.528C17.6423 33.528 17.3851 33.5151 17.1279 33.5021C16.6393 33.4762 16.1764 33.4244 15.7006 33.3338V29.1379C15.7134 29.1379 15.7134 29.1379 15.7134 29.1379V23.0773H14.0546V18.6483H15.7134V12.5876C15.7134 12.5876 15.7134 12.5876 15.7006 12.6006V8.37884C16.4207 8.24933 17.1536 8.18458 17.8995 8.18458C24.8433 8.18458 30.4884 13.8697 30.4884 20.8628C30.5141 21.6139 30.4498 22.3521 30.3212 23.0773ZM20.1241 12.5876V18.6483H26.142C25.3705 15.6957 23.0688 13.3646 20.1241 12.5876ZM20.1241 12.5876V18.6483H26.142C25.3705 15.6957 23.0688 13.3646 20.1241 12.5876ZM20.1241 12.5876V18.6483H26.142C25.3705 15.6957 23.0688 13.3646 20.1241 12.5876ZM20.1241 12.5876V18.6483H26.142C25.3705 15.6957 23.0688 13.3646 20.1241 12.5876ZM20.1241 12.5876V18.6483H26.142C25.3705 15.6957 23.0688 13.3646 20.1241 12.5876Z" fill="#F6F6F6"/>
<path d="M53.8018 43.9787V41.7124L35.8636 31.2876V10.4378L17.9253 0L0 10.4378V31.2876L17.9253 41.7124V62.5751L35.8507 73L53.7889 62.5751V60.3348H49.9055L35.8636 68.5063L21.7959 60.3218V43.9658L35.8636 35.7942L49.9312 43.9658V43.9787H53.8018ZM34.4105 30.4458L17.9511 40.0289L1.47878 30.4458V11.3055L17.9511 1.73532L34.4105 11.3055V30.4458Z" fill="#F6F6F6"/>
<path d="M28.071 52.6296L30.7714 46.4005V45.3257H33.4717V58.9622H30.7714L30.7585 53.2123L28.2767 58.9622H25.3706V45.3257H28.071V52.6296Z" fill="#F6F6F6"/>
<path d="M37.3166 50.7909H40.017V45.3389H42.7173V58.9495H40.017V53.4975H37.3166V58.9495H34.6162V45.3389H37.3166V50.7909Z" fill="#F6F6F6"/>
<path d="M43.8618 45.3257H51.9758V58.9622H49.2754V48.0452H46.5751V58.9492H43.8747V45.3257H43.8618Z" fill="#F6F6F6"/>
<path d="M58.5209 54.8699H55.8205V58.9492H53.1201V45.3257H58.5337C58.8938 45.3257 59.241 45.3904 59.5753 45.5329C59.9096 45.6753 60.1925 45.8696 60.4369 46.1156C60.6812 46.3617 60.8741 46.6466 61.0155 46.9833C61.157 47.3071 61.2341 47.6697 61.2341 48.0452V52.1504C61.2341 52.526 61.157 52.8756 61.0155 53.2123C60.8741 53.5361 60.6812 53.8339 60.4369 54.08C60.1925 54.326 59.9096 54.5203 59.5753 54.6627C59.2281 54.8052 58.8938 54.8699 58.5209 54.8699ZM58.5209 48.0452H55.8205V52.1504H58.5209V48.0452Z" fill="#F6F6F6"/>
<path d="M76.9219 48.0452V45.3257H85.0487V48.0452H82.3226V58.9492H79.6223V48.0452H76.9219Z" fill="#F6F6F6"/>
<path d="M86.7207 45.3257H93.4845V48.0452H89.4339V50.7906H92.8287V53.5102H89.4339V56.2297H93.4845V58.9492H86.7207V45.3257Z" fill="#F6F6F6"/>
<path d="M100.286 46.1027V45.3257H102.987V46.7243L100.158 52.1504L102.987 57.5636V58.9622H100.286V58.1852L98.9234 55.3232L97.5861 58.1852V58.9622H94.8857V57.5636L97.4447 52.1504L94.8857 46.7243V45.3257H97.5861V46.1027L98.9363 48.9647L100.286 46.1027Z" fill="#F6F6F6"/>
<path d="M62.1084 53.018C62.1341 52.9791 62.1598 52.9403 62.1856 52.9273C62.4042 52.8237 62.6099 52.7201 62.8285 52.6295C62.8799 52.6036 62.8928 52.5906 62.8928 52.5259C62.8928 52.2669 62.8928 51.9949 62.8928 51.7359C62.8928 51.6841 62.8799 51.6582 62.8285 51.6323C62.6099 51.5287 62.3913 51.4251 62.1856 51.3345C62.1341 51.3086 62.1213 51.2827 62.1341 51.2309C62.1984 50.9071 62.2627 50.5963 62.327 50.2726C62.3399 50.2337 62.3527 50.2078 62.4042 50.2078C62.6485 50.1949 62.8799 50.1819 63.1243 50.1819C63.1757 50.1819 63.2014 50.169 63.2271 50.1171C63.33 49.8711 63.4329 49.6121 63.5357 49.366C63.5486 49.3272 63.5486 49.3013 63.5229 49.2624C63.3557 49.0811 63.1885 48.8998 63.0214 48.7185C62.9957 48.6797 62.9828 48.6538 63.0085 48.6149C63.1885 48.343 63.3686 48.071 63.5486 47.7991C63.5743 47.7602 63.6129 47.7473 63.6515 47.7602C63.8701 47.8509 64.1015 47.9286 64.3201 48.0063C64.3716 48.0192 64.3973 48.0192 64.4359 47.9804C64.6159 47.7861 64.8088 47.6048 65.0017 47.4106C65.0402 47.3717 65.0402 47.3458 65.0274 47.294C64.9374 47.0609 64.8602 46.8408 64.7831 46.6077C64.7702 46.5818 64.7831 46.53 64.8088 46.517C65.0788 46.3228 65.3617 46.1415 65.6317 45.9602C65.6575 45.9472 65.696 45.9602 65.7218 45.9731C65.9018 46.1285 66.0689 46.2969 66.249 46.4652C66.2876 46.5041 66.3133 46.517 66.3776 46.4911C66.6219 46.3875 66.8662 46.2839 67.1105 46.1933C67.162 46.1674 67.1877 46.1415 67.1877 46.0897C67.2005 45.8436 67.2134 45.6105 67.2134 45.3644C67.2134 45.3126 67.2391 45.2867 67.2777 45.2867C67.5606 45.2349 67.8306 45.1702 68.1135 45.1184C68.2935 45.0925 68.2935 45.0925 68.3707 45.2608C68.4607 45.4421 68.5379 45.6234 68.615 45.8177C68.6407 45.8695 68.6536 45.8825 68.7179 45.8825C68.9879 45.8825 69.2451 45.8825 69.5151 45.8825C69.5666 45.8825 69.5923 45.8695 69.618 45.8177C69.7209 45.5975 69.8238 45.3644 69.9266 45.1443C69.9395 45.1054 69.9652 45.0925 70.0038 45.1054C70.3253 45.1702 70.6339 45.2349 70.9553 45.2997C71.0068 45.3126 71.0325 45.3385 71.0325 45.3903C71.0454 45.6234 71.0582 45.8695 71.0582 46.1026C71.0582 46.1544 71.0711 46.1803 71.1225 46.2062C71.3668 46.3098 71.6111 46.4005 71.8555 46.517C71.9198 46.5429 71.9455 46.53 71.9841 46.4911C72.1512 46.3357 72.3312 46.1674 72.4984 46.012C72.537 45.9731 72.5627 45.9602 72.6141 45.999C72.8713 46.1803 73.1414 46.3487 73.3985 46.53C73.45 46.5688 73.4628 46.5947 73.4371 46.6595C73.3471 46.8796 73.2699 47.1127 73.1928 47.3329C73.1799 47.3847 73.1799 47.4106 73.2185 47.4365C73.4114 47.6307 73.5914 47.812 73.7843 48.0063C73.8229 48.0451 73.8486 48.0451 73.9 48.0322C74.1186 47.9415 74.3501 47.8638 74.5687 47.7861C74.6201 47.7732 74.6459 47.7732 74.6716 47.812C74.8516 48.084 75.0316 48.3559 75.2116 48.6279C75.2374 48.6667 75.2374 48.6926 75.1988 48.7185C75.0316 48.8998 74.8645 49.0811 74.6973 49.2624C74.6587 49.3013 74.6587 49.3272 74.6716 49.379C74.7744 49.6121 74.8773 49.8581 74.9673 50.0912C74.993 50.156 75.0316 50.1819 75.0959 50.1819C75.3274 50.1949 75.5588 50.2078 75.7903 50.2207C75.8417 50.2207 75.8546 50.2466 75.8674 50.2855C75.9317 50.6093 75.996 50.933 76.0603 51.2438C76.0732 51.2956 76.0475 51.3215 76.0089 51.3345C75.7903 51.4381 75.5717 51.5417 75.3531 51.6323C75.3017 51.6582 75.2888 51.6841 75.2888 51.7359C75.2888 51.9949 75.2888 52.2669 75.2888 52.5259C75.2888 52.5906 75.3017 52.6036 75.3531 52.6295C75.5717 52.7331 75.7774 52.8237 75.996 52.9273C76.0475 52.9532 76.0732 52.9791 76.0603 53.0309C75.996 53.3547 75.9317 53.6655 75.8674 53.9892C75.8546 54.0281 75.8289 54.054 75.7903 54.054C75.5588 54.0669 75.3145 54.0799 75.0831 54.0928C75.0316 54.0928 74.993 54.1058 74.9802 54.1705C74.8773 54.4166 74.7744 54.6627 74.6716 54.9087C74.6459 54.9605 74.6587 54.9864 74.6973 55.0253C74.8645 55.2066 75.0188 55.3879 75.1859 55.5562C75.2245 55.5951 75.2245 55.621 75.1988 55.6598C75.0188 55.9318 74.8387 56.1908 74.6587 56.4627C74.633 56.5145 74.5944 56.5145 74.543 56.5016C74.3244 56.4109 74.1058 56.3332 73.8872 56.2555C73.8357 56.2296 73.7972 56.2426 73.7586 56.2814C73.5786 56.4627 73.3985 56.657 73.2056 56.8383C73.1671 56.8771 73.1542 56.916 73.1799 56.9678C73.2699 57.1879 73.3471 57.421 73.4243 57.6412C73.4371 57.693 73.4371 57.7189 73.3857 57.7448C73.1156 57.9261 72.8585 58.1074 72.5884 58.2757C72.5498 58.3016 72.5113 58.3016 72.4727 58.2628C72.2927 58.0944 72.1255 57.939 71.9455 57.7707C71.9069 57.7318 71.8812 57.7318 71.8297 57.7448C71.5854 57.8484 71.3411 57.952 71.0968 58.0426C71.0325 58.0685 71.0196 58.0944 71.0196 58.1592C71.0068 58.3923 70.9939 58.6383 70.9939 58.8714C70.9939 58.9232 70.9811 58.9492 70.9296 58.9492C70.6596 59.001 70.3767 59.0657 70.1067 59.1175C70.0424 59.1305 69.9652 59.1564 69.9266 59.1305C69.8752 59.1046 69.8623 59.0268 69.8238 58.9621C69.7466 58.7808 69.6566 58.5995 69.5794 58.4182C69.5537 58.3664 69.5409 58.3534 69.4766 58.3534C69.2065 58.3534 68.9493 58.3534 68.6793 58.3534C68.6279 58.3534 68.6022 58.3664 68.5764 58.4182C68.4736 58.6383 68.3707 58.8585 68.2678 59.0916C68.2421 59.1304 68.2164 59.1564 68.1778 59.1434C67.8563 59.0787 67.5477 59.0139 67.2262 58.9492C67.1748 58.9362 67.162 58.9232 67.162 58.8714C67.1491 58.6254 67.1362 58.3923 67.1362 58.1462C67.1362 58.0944 67.1234 58.0556 67.0591 58.0426C66.8148 57.939 66.5704 57.8354 66.3261 57.7318C66.2747 57.7059 66.249 57.7189 66.2233 57.7577C66.0432 57.9261 65.8632 58.0815 65.696 58.2498C65.6575 58.2887 65.6317 58.2887 65.5803 58.2628C65.3103 58.0815 65.0402 57.9002 64.7831 57.7189C64.7445 57.693 64.7316 57.6671 64.7573 57.6153C64.8474 57.3822 64.9245 57.1491 65.0145 56.9289C65.0274 56.8771 65.0274 56.8512 64.9888 56.8124C64.7959 56.6311 64.6159 56.4368 64.423 56.2426C64.3844 56.2037 64.3587 56.2037 64.3073 56.2167C64.0887 56.3073 63.8572 56.385 63.6257 56.4627C63.5743 56.4757 63.5486 56.4757 63.5229 56.4239C63.3429 56.1519 63.1628 55.88 62.9828 55.608C62.9571 55.5692 62.9571 55.5433 62.9957 55.5044C63.1628 55.3231 63.33 55.1418 63.4972 54.9605C63.5357 54.9217 63.5357 54.8958 63.5229 54.844C63.42 54.6108 63.3171 54.3648 63.2271 54.1187C63.2014 54.054 63.1757 54.0281 63.0985 54.0281C62.8671 54.0281 62.6228 54.0022 62.3913 53.9892C62.3399 53.9892 62.327 53.9633 62.3141 53.9245C62.2498 53.6655 62.1856 53.3547 62.1084 53.018ZM69.1037 56.5016C71.444 56.5016 73.4242 54.6238 73.4371 52.1633C73.45 49.7416 71.5211 47.7991 69.1294 47.7991C66.7762 47.7861 64.8088 49.6898 64.7959 52.1374C64.7831 54.5461 66.7119 56.4757 69.1037 56.5016Z" fill="#F6F6F6"/>
</svg>
