<svg width="102" height="102" viewBox="0 0 102 102" fill="none" xmlns="http://www.w3.org/2000/svg">
<path d="M71.5351 51.5746C71.5022 51.5412 71.4675 51.5097 71.4318 51.4791L59.6077 41.4111C57.9357 39.9874 55.8078 39.2046 53.6126 39.2046C53.602 39.2046 53.5913 39.2046 53.5807 39.2046C51.1228 39.2132 48.8119 40.1748 47.0737 41.9131L45.4789 43.5078C44.8064 44.1804 43.7026 44.1914 43.018 43.5322C42.6894 43.2163 42.5061 42.7803 42.5016 42.3055C42.4968 41.807 42.6939 41.3212 43.042 40.9727C43.0554 40.9593 43.0688 40.9456 43.0819 40.9319L46.5402 37.2408C49.2146 34.3864 52.937 32.689 56.833 32.528L70.1299 43.3695C70.8821 43.983 71.9897 43.8704 72.6029 43.1181C73.2164 42.3656 73.1038 41.2584 72.3516 40.6448L58.5537 29.3952C58.2399 29.1397 57.8479 29 57.4431 29C54.1358 29 50.9028 29.9012 48.0899 31.5519C45.2523 29.8806 42.0313 29 38.7265 29C38.2602 29 37.8132 29.1851 37.4836 29.5143L28.5153 38.4788C27.8287 39.1655 27.8283 40.2782 28.5146 40.9648C28.858 41.3085 29.3077 41.4802 29.7578 41.4802C30.2076 41.4802 30.6573 41.3085 31.0003 40.9655L39.4375 32.5325C41.3508 32.6227 43.2175 33.0801 44.9485 33.8738C44.6131 34.1821 44.288 34.5028 43.9748 34.8368L40.5337 38.5097C39.5364 39.5194 38.9726 40.9133 38.9864 42.3391C38.9997 43.7657 39.5659 45.0892 40.5801 46.0652C41.5798 47.0272 42.8954 47.5498 44.2835 47.5378C45.6739 47.5254 46.9813 46.9771 47.9646 45.9935L49.5597 44.3987C50.6367 43.3214 52.0694 42.7254 53.5927 42.7199H53.6126C54.9732 42.7199 56.2923 43.2054 57.3287 44.0877L69.089 54.1014C69.6314 54.6864 69.6184 55.6045 69.0491 56.1734C68.7697 56.4532 68.3944 56.607 67.9927 56.607C67.591 56.607 67.2158 56.4532 66.9363 56.1734L66.5758 55.8125C65.8892 55.1262 64.7761 55.1259 64.0898 55.8125C63.4035 56.4988 63.4032 57.6119 64.0898 58.2985L64.4506 58.659C64.5567 58.7655 64.6676 58.8657 64.7816 58.9608C64.8321 59.0288 64.886 59.0947 64.9474 59.1562C65.5301 59.7388 65.5301 60.6867 64.9474 61.2693C64.3652 61.8519 63.4172 61.8519 62.8346 61.2693C62.8302 61.2649 62.8254 61.2601 62.8209 61.2556L62.2383 60.6771C61.5516 59.9908 60.4389 59.9908 59.7526 60.6774C59.066 61.3637 59.066 62.4768 59.7526 63.1631L60.154 63.5644L60.1543 63.5648C60.4585 63.869 60.6422 64.3026 60.6576 64.7541C60.6659 65.0002 60.6281 65.4644 60.2803 65.8122C59.7303 66.3625 58.7779 66.3055 58.1579 65.6855C58.1249 65.6525 58.0909 65.6209 58.0552 65.5907L57.7915 65.3659C57.0737 64.7537 56.0001 64.8179 55.3601 65.5111C54.7198 66.2043 54.7411 67.2792 55.4082 67.9466C55.7014 68.2398 55.8655 68.6237 55.8703 69.0271C55.8748 69.4181 55.7268 69.7837 55.4539 70.0567C54.8712 70.6393 53.9117 70.6273 53.3088 70.0248L53.0602 69.7783C53.7781 67.948 53.3998 65.783 51.9228 64.306V64.3057C51.2615 63.6448 50.4558 63.1816 49.5827 62.9495C49.7997 61.4396 49.3283 59.849 48.1692 58.6896C47.3006 57.821 46.1896 57.34 45.0518 57.2439C44.966 56.1129 44.4826 55.0033 43.5989 54.1196C42.7251 53.2458 41.6063 52.7642 40.4616 52.6722C40.3696 51.5275 39.8879 50.4086 39.0142 49.5349C37.0651 47.5858 33.8959 47.5817 31.9417 49.5225L29.4852 51.8942C29.478 51.9014 29.4705 51.9086 29.4632 51.9158C28.5198 52.8593 28 54.1175 28 55.4582C28 56.7986 28.5198 58.0568 29.4632 59.0003C30.21 59.7474 31.1363 60.2074 32.1041 60.3832C32.0588 61.7225 32.5449 63.0766 33.5649 64.0966C34.4747 65.0064 35.6887 65.5035 36.9937 65.5035C37.0184 65.5035 37.0435 65.5032 37.0682 65.5028C37.2103 66.5476 37.68 67.5539 38.4793 68.3528C39.4512 69.3247 40.7291 69.8102 42.0103 69.8102C42.1181 69.8102 42.2256 69.8054 42.3334 69.7985C42.5195 70.8216 43.0077 71.7627 43.7544 72.5094C44.7483 73.503 46.0533 73.9998 47.359 73.9998C48.6334 73.9998 49.9078 73.5243 50.8925 72.5767C51.8727 73.5243 53.1416 73.9998 54.4084 73.9998C55.6897 73.9998 56.9679 73.5143 57.9395 72.5427C58.7171 71.7647 59.2026 70.7753 59.343 69.7024C60.5944 69.7003 61.8301 69.2341 62.766 68.2978C63.5882 67.4756 64.0713 66.3955 64.1588 65.211C65.3986 65.1465 66.5528 64.6356 67.4334 63.755C68.4535 62.735 68.9396 61.3806 68.8943 60.0409C69.8906 59.8617 70.8066 59.3876 71.5351 58.659C73.4883 56.7059 73.4883 53.5277 71.5351 51.5746ZM34.084 56.493C34.0768 56.5002 34.0693 56.5074 34.0621 56.5146C33.7826 56.7944 33.4073 56.9482 33.0057 56.9482C32.604 56.9482 32.2287 56.7944 31.9492 56.5146C31.6694 56.2348 31.5156 55.8599 31.5156 55.4582C31.5156 55.0607 31.6664 54.6895 31.9403 54.4107L34.3934 52.0422C34.4009 52.0349 34.4081 52.0277 34.4153 52.0205C34.6952 51.7411 35.0704 51.5869 35.4721 51.5869C35.8734 51.5869 36.2487 51.7411 36.5285 52.0205C36.808 52.3003 36.9621 52.6756 36.9621 53.0773C36.9621 53.411 36.8547 53.7258 36.6579 53.9837C36.6119 54.0259 36.5659 54.0685 36.5213 54.1131L34.7182 55.8809L34.084 56.493ZM38.1225 61.5412C37.5077 62.1087 36.581 62.141 36.0509 61.6109C35.47 61.03 35.4683 60.0855 36.0458 59.5026L37.1715 58.3988L38.9922 56.6413C38.9997 56.6341 39.007 56.6269 39.0142 56.6197C39.0615 56.5723 39.1065 56.5242 39.1511 56.4755C39.7365 56.0285 40.5783 56.0707 41.1132 56.6056C41.6921 57.1845 41.6955 58.0222 41.1225 58.6003L38.1225 61.5412ZM43.1107 65.8345C43.1086 65.8366 43.1062 65.839 43.1042 65.841C42.5071 66.4381 41.5475 66.4497 40.9649 65.8671C40.3833 65.2855 40.3943 64.328 40.9886 63.7306L43.5639 61.1821C43.5663 61.1801 43.5683 61.1777 43.5704 61.1756C43.8502 60.8958 44.2255 60.742 44.6272 60.742C45.0285 60.742 45.4038 60.8958 45.6836 61.1756C46.2652 61.7572 46.2662 62.703 45.6863 63.286L43.1107 65.8345ZM49.4371 69.0291C49.4296 69.0363 49.422 69.0439 49.4148 69.0518L48.4683 70.0327C47.851 70.6403 46.854 70.6372 46.2404 70.0237C45.9373 69.7206 45.768 69.3141 45.7636 68.8794C45.7591 68.4537 45.916 68.0603 46.2051 67.7708L47.2598 66.7161C47.5413 66.4346 47.9066 66.2952 48.2801 66.2952C48.6887 66.2952 49.1072 66.4621 49.4368 66.7917C50.0537 67.4086 50.0537 68.4122 49.4371 69.0291Z" fill="#F6F6F6"/>
<rect x="100" y="2" width="98" height="98" rx="49" transform="rotate(90 100 2)" stroke="url(#paint0_linear)" stroke-width="4"/>
<defs>
<linearGradient id="paint0_linear" x1="157.335" y1="-19.9423" x2="207.104" y2="135.135" gradientUnits="userSpaceOnUse">
<stop stop-color="#C800FF"/>
<stop offset="1" stop-color="#2A00FF"/>
</linearGradient>
</defs>
</svg>
