<svg width="38" height="46" viewBox="0 0 38 46" fill="none" xmlns="http://www.w3.org/2000/svg">
<path d="M19.5393 46H18.4612C17.8448 46 17.2715 45.6841 16.9423 45.1632C14.9727 42.0472 12.5065 39.3464 10.1215 36.7346C7.68907 34.0707 5.3915 31.5547 3.62292 28.6708C1.5805 25.3405 0.585934 21.9809 0.58252 18.4003C0.58818 13.4813 2.50652 8.86138 5.98402 5.38748C9.46178 1.91331 14.0844 0 19.0002 0C23.916 0 28.5387 1.91331 32.0164 5.38739C35.494 8.86129 37.4123 13.4812 37.4179 18.3963C37.4141 22.423 36.2038 26.0628 33.609 29.8546C33.0485 30.6735 31.9304 30.8831 31.1113 30.3228C30.2923 29.7624 30.0827 28.6441 30.6432 27.8251C32.8102 24.6582 33.8209 21.6622 33.8241 18.3967C33.8147 10.2361 27.1648 3.59375 19.0002 3.59375C10.8357 3.59375 4.1857 10.2361 4.17627 18.4005C4.18256 24.9011 8.16461 29.2619 12.7753 34.3112C14.896 36.6337 17.0781 39.0233 19.0002 41.7716C20.9223 39.0234 23.1043 36.6338 25.2249 34.3115L25.5025 34.0075C26.1714 33.2745 27.308 33.2226 28.0409 33.8916C28.774 34.5605 28.8259 35.6971 28.1569 36.4301L27.8787 36.7349C25.4938 39.3466 23.0276 42.0474 21.0582 45.1633C20.7289 45.6841 20.1556 46 19.5393 46ZM20.7971 27.582V17.8789C20.7971 16.8865 19.9926 16.082 19.0002 16.082C18.0078 16.082 17.2033 16.8865 17.2033 17.8789V27.582C17.2033 28.5744 18.0078 29.3789 19.0002 29.3789C19.9926 29.3789 20.7971 28.5744 20.7971 27.582ZM19.0002 9.88281C18.0078 9.88281 17.2033 10.6873 17.2033 11.6797C17.2033 12.6721 18.0078 13.4766 19.0002 13.4766C19.9926 13.4766 20.7971 12.6721 20.7971 11.6797C20.7971 10.6873 19.9926 9.88281 19.0002 9.88281Z" fill="#C4C4C4"/>
</svg>
