<svg width="42" height="41" viewBox="0 0 42 41" fill="none" xmlns="http://www.w3.org/2000/svg">
<path d="M14.4443 14.9749L20.1042 17.0175C20.4704 17.1498 20.8553 17.2158 21.2401 17.2158C21.6249 17.2158 22.0098 17.1498 22.376 17.0175L28.0359 14.9749C29.3189 14.512 30.1812 13.302 30.1812 11.9645V5.33174C30.1812 3.99419 29.3189 2.78426 28.0359 2.3213L22.3764 0.278685C21.6435 0.0143642 20.8367 0.0143642 20.1042 0.278685L14.4446 2.3213C13.1613 2.78426 12.2993 3.99419 12.2993 5.33174V11.9645C12.2993 13.302 13.1613 14.512 14.4443 14.9749ZM26.898 11.9707L22.8807 13.4215V7.96807L26.8996 6.54386L26.898 11.9707ZM21.2382 3.28287L23.835 4.22253L21.2436 5.14062L18.6609 4.21378L21.2382 3.28287ZM15.5803 6.52072L19.5995 7.96306V13.419L15.5803 11.9645V6.52072ZM33.3801 8.56803C33.3801 7.68341 34.1145 6.96646 35.0204 6.96646H37.1532C38.0594 6.96646 38.7938 7.68341 38.7938 8.56803V18.0166C38.7938 18.9012 38.0594 19.6182 37.1532 19.6182C36.247 19.6182 35.5126 18.9012 35.5126 18.0166V10.1696H35.0204C34.1145 10.1696 33.3801 9.45233 33.3801 8.56803ZM41.4925 35.1515L38.7938 30.333V26.1042C38.7938 25.2196 38.0594 24.5026 37.1532 24.5026C36.2473 24.5026 35.5129 25.2196 35.5129 26.1042V29.0627H6.6395V10.1696H7.29575C8.20162 10.1696 8.93605 9.45233 8.93605 8.56803C8.93605 7.68341 8.20162 6.96646 7.29575 6.96646H4.99887C4.09301 6.96646 3.35825 7.68341 3.35825 8.56803V30.0402L0.495488 35.1518C-0.193446 36.3817 -0.162364 37.8444 0.578802 39.0644C1.34304 40.3228 2.69046 41.0738 4.18273 41.0738H37.8876C39.3536 41.0738 40.6748 40.3397 41.4217 39.11C42.167 37.8829 42.1936 36.4033 41.4925 35.1515ZM38.5996 37.4762C38.5275 37.5948 38.3138 37.871 37.8876 37.871H26.6494C26.6045 37.0258 25.8902 36.3536 25.0132 36.3536H16.8928C16.0157 36.3536 15.3015 37.0258 15.2566 37.871H4.18241C3.7056 37.871 3.46367 37.5341 3.40119 37.4309C3.31499 37.2892 3.19739 37.0045 3.37427 36.6883L5.85123 32.2658H36.1368L38.6137 36.6883C38.8076 37.0346 38.6881 37.3305 38.5996 37.4762Z" fill="#C4C4C4"/>
</svg>
