<svg width="218" height="63" viewBox="0 0 218 63" fill="none" xmlns="http://www.w3.org/2000/svg">
<path d="M62.8348 45.8325V54.5033H61.3074V53.5317C61.1297 53.865 60.8577 54.1388 60.5252 54.3189C60.168 54.5115 59.7671 54.6089 59.3612 54.6017C58.8705 54.6094 58.3885 54.4725 57.9754 54.208C57.5595 53.9349 57.2305 53.5488 57.027 53.0952C56.7927 52.5756 56.677 52.0105 56.6883 51.4408C56.6756 50.877 56.7915 50.3177 57.027 49.8051C57.2282 49.3585 57.5571 48.9813 57.9724 48.7209C58.3878 48.4605 58.8709 48.3285 59.3612 48.3415C59.7637 48.3339 60.1617 48.4269 60.5191 48.612C60.8474 48.7844 61.1173 49.0497 61.2951 49.3747V45.8325H62.8348ZM60.907 52.9044C61.1992 52.4836 61.3403 51.9766 61.3074 51.4656C61.3411 50.9564 61.1998 50.4509 60.907 50.0327C60.7715 49.8671 60.5989 49.7357 60.4031 49.6492C60.2073 49.5627 59.9939 49.5234 59.78 49.5346C59.564 49.5228 59.3482 49.5611 59.1494 49.6464C58.9507 49.7318 58.7744 49.8619 58.6344 50.0265C58.3381 50.4363 58.1944 50.9365 58.2279 51.4408C58.1962 51.9564 58.3394 52.4677 58.6344 52.8921C58.776 53.0533 58.9503 53.1827 59.1457 53.2717C59.3411 53.3608 59.5532 53.4074 59.7679 53.4086C59.9827 53.4097 60.1953 53.3654 60.3916 53.2785C60.588 53.1915 60.7636 53.064 60.907 52.9044V52.9044Z" fill="#D3D3D3"/>
<path d="M64.3376 45.6968H66.0374V47.2097H64.3376V45.6968ZM64.4239 54.503V48.4888H65.9636V54.503H64.4239Z" fill="#D3D3D3"/>
<path d="M73.4157 48.4889V53.9495C73.4157 54.8923 73.155 55.6057 72.6336 56.0897C72.112 56.5732 71.3421 56.8151 70.324 56.8154C69.812 56.8172 69.3023 56.7489 68.8089 56.6123C68.3576 56.4921 67.929 56.2989 67.5401 56.0404L67.9713 54.9582C68.6654 55.3937 69.4672 55.6279 70.287 55.6346C71.3545 55.6346 71.8883 55.1099 71.8884 54.0604V53.2732C71.7103 53.6068 71.4355 53.8789 71.1 54.054C70.7352 54.2435 70.3286 54.3386 69.9175 54.3309C69.4254 54.3401 68.9407 54.21 68.5195 53.9557C68.1089 53.7013 67.7782 53.337 67.5648 52.9041C67.327 52.4183 67.2087 51.8828 67.22 51.3422C67.2092 50.8003 67.3251 50.2634 67.5587 49.7742C67.768 49.3371 68.0995 48.9698 68.5132 48.7165C68.937 48.4628 69.4235 48.3328 69.9175 48.3413C70.3286 48.3336 70.7351 48.4286 71.1 48.6178C71.4355 48.7931 71.7102 49.0654 71.8884 49.3989V48.4889L73.4157 48.4889ZM71.4756 52.6581C71.7688 52.2842 71.9156 51.8164 71.8884 51.3422C71.9168 50.8641 71.7701 50.3921 71.4756 50.014C71.3256 49.8621 71.1467 49.7414 70.9496 49.6591C70.7524 49.5767 70.5408 49.5343 70.327 49.5343C70.1133 49.5343 69.9017 49.5767 69.7045 49.6591C69.5074 49.7414 69.3285 49.8621 69.1785 50.014C68.9059 50.4 68.7595 50.8607 68.7595 51.333C68.7595 51.8053 68.9059 52.266 69.1785 52.652C69.3276 52.8052 69.506 52.9271 69.703 53.0106C69.9 53.094 70.1117 53.1373 70.3258 53.1378C70.5398 53.1384 70.7517 53.0963 70.9492 53.0139C71.1467 52.9315 71.3256 52.8106 71.4756 52.6581Z" fill="#D3D3D3"/>
<path d="M74.9186 45.6968H76.6183V47.2097H74.9186V45.6968ZM75.0048 54.503V48.4888H76.5445V54.503H75.0048Z" fill="#D3D3D3"/>
<path d="M81.7794 53.4081L81.7055 54.5522C81.4591 54.5767 81.2333 54.5889 81.0279 54.5889C80.1821 54.5889 79.558 54.3942 79.1557 54.0048C78.9413 53.7713 78.7772 53.4963 78.6733 53.197C78.5695 52.8976 78.5283 52.5802 78.5521 52.2643V49.6448H77.3943V48.4887H78.5521V46.6931H80.0918V48.4887H81.6808V49.6448H80.0918V52.2398C80.0918 53.0434 80.4655 53.4452 81.2128 53.4452C81.4023 53.4446 81.5915 53.4323 81.7794 53.4081Z" fill="#D3D3D3"/>
<path d="M87.1499 48.9564C87.5605 49.3664 87.7657 49.9977 87.7657 50.8503V54.5031H86.3V53.5808C86.1657 53.8944 85.9349 54.1572 85.641 54.3309C85.3257 54.5154 84.9654 54.609 84.6001 54.6014C84.2204 54.6066 83.8448 54.5223 83.5038 54.3554C83.1891 54.2036 82.921 53.97 82.7278 53.6791C82.5395 53.3947 82.4409 53.0606 82.4445 52.7197C82.4228 52.3413 82.5436 51.9684 82.7832 51.6743C83.0845 51.3804 83.4696 51.187 83.8856 51.1208C84.5797 50.9896 85.2857 50.9319 85.992 50.9486H86.3V50.6659C86.3296 50.3476 86.2347 50.0303 86.0351 49.7804C85.9135 49.6794 85.773 49.6034 85.6219 49.557C85.4707 49.5105 85.3119 49.4944 85.1544 49.5096C84.8132 49.513 84.4746 49.569 84.1505 49.6756C83.7916 49.7909 83.4467 49.9456 83.122 50.1369L82.6908 49.0792C83.4713 48.6166 84.3579 48.3625 85.2652 48.3413C86.1109 48.3413 86.7391 48.5464 87.1499 48.9564ZM85.9119 53.0824C86.1764 52.7927 86.3159 52.4104 86.3 52.0186V51.7604H86.0783C85.65 51.7527 85.2218 51.7773 84.7972 51.8342C84.5593 51.856 84.3326 51.9456 84.1444 52.0924C84.0776 52.1577 84.0254 52.2364 83.9914 52.3234C83.9575 52.4103 83.9424 52.5034 83.9472 52.5966C83.9434 52.7174 83.9656 52.8375 84.0124 52.9489C84.0592 53.0603 84.1294 53.1604 84.2183 53.2423C84.4062 53.4135 84.6539 53.5041 84.9081 53.4947C85.0951 53.5013 85.2815 53.4679 85.4546 53.3968C85.6277 53.3257 85.7836 53.2185 85.9119 53.0824Z" fill="#D3D3D3"/>
<path d="M89.3301 54.5033V45.8325H90.8698V54.5033H89.3301Z" fill="#D3D3D3"/>
<path d="M101.992 54.5031L101.081 53.5683C100.725 53.8928 100.315 54.1511 99.8677 54.331C99.4195 54.5114 98.9405 54.6033 98.4573 54.6015C97.9244 54.6115 97.3955 54.5088 96.9053 54.3001C96.4837 54.1235 96.1193 53.8341 95.8521 53.4638C95.5998 53.1015 95.4683 52.669 95.4764 52.2279C95.4705 51.73 95.6237 51.2432 95.9137 50.8381C96.2903 50.3561 96.7673 49.9616 97.3117 49.6821C97.0357 49.3921 96.8015 49.0651 96.6158 48.7105C96.474 48.4235 96.4003 48.1078 96.4003 47.7879C96.3902 47.5071 96.4442 47.2277 96.5584 46.9709C96.6726 46.7141 96.8439 46.4867 97.0593 46.3059C97.5448 45.917 98.1557 45.718 98.7775 45.7463C99.3462 45.7167 99.9058 45.8985 100.348 46.2566C100.542 46.4272 100.695 46.6389 100.796 46.8761C100.897 47.1134 100.944 47.3703 100.933 47.6279C100.938 48.0545 100.804 48.4711 100.551 48.8149C100.204 49.2428 99.7776 49.5999 99.2949 49.8665L101.007 51.6128C101.359 50.8874 101.548 50.0942 101.561 49.2885H102.842C102.826 50.4369 102.508 51.5609 101.919 52.5476L103.828 54.5031H101.992ZM100.231 52.6953L98.1125 50.5061C97.7736 50.6954 97.4779 50.9529 97.244 51.2624C97.0659 51.5253 96.9735 51.8367 96.9792 52.154C96.9719 52.3283 97.0055 52.5018 97.0771 52.6608C97.1487 52.8199 97.2565 52.96 97.3918 53.0702C97.712 53.3104 98.1068 53.4301 98.5067 53.4084C98.827 53.4088 99.1442 53.346 99.4401 53.2237C99.7361 53.1013 100.005 52.9217 100.231 52.6953V52.6953ZM98.0632 47.0683C97.9716 47.1612 97.9002 47.2719 97.8535 47.3936C97.8069 47.5154 97.786 47.6454 97.7922 47.7756C97.7925 47.9737 97.8434 48.1684 97.94 48.3414C98.1 48.6007 98.2902 48.8402 98.5067 49.0548C98.8476 48.8813 99.156 48.6503 99.4181 48.372C99.5832 48.1826 99.6749 47.9405 99.6767 47.6895C99.6826 47.5707 99.6637 47.452 99.6213 47.3409C99.5789 47.2298 99.5139 47.1286 99.4304 47.0438C99.3451 46.9631 99.2445 46.9003 99.1344 46.8591C99.0244 46.8179 98.9072 46.7992 98.7898 46.804C98.6572 46.7974 98.5245 46.8173 98.3997 46.8627C98.2749 46.9081 98.1605 46.9781 98.0632 47.0683V47.0683Z" fill="#D3D3D3"/>
<path d="M107.437 45.6968H109.137V47.2097H107.437V45.6968ZM107.523 54.503V48.4888H109.063V54.503H107.523Z" fill="#D3D3D3"/>
<path d="M115.764 48.9562C116.117 49.3662 116.294 49.9852 116.294 50.8131V54.503H114.754V50.8995C114.784 50.539 114.691 50.179 114.489 49.8786C114.384 49.7658 114.254 49.6785 114.11 49.6231C113.966 49.5677 113.811 49.5457 113.658 49.5588C113.461 49.5499 113.264 49.5826 113.08 49.6546C112.897 49.7266 112.73 49.8364 112.592 49.9769C112.455 50.128 112.349 50.3047 112.28 50.4967C112.212 50.6888 112.182 50.8925 112.192 51.0961V54.503H110.652V48.4888H112.155V49.3866C112.353 49.0572 112.639 48.789 112.98 48.6117C113.342 48.4274 113.744 48.3345 114.15 48.3412C114.448 48.3177 114.747 48.3608 115.027 48.4672C115.306 48.5736 115.558 48.7406 115.764 48.9562Z" fill="#D3D3D3"/>
<path d="M119.816 48.4889H121.405V49.6449H119.816V54.5031H118.277V49.6449H117.119V48.4889H118.277C118.277 47.6279 118.5 46.9801 118.948 46.5457C119.395 46.1112 120.091 45.8693 121.036 45.82L121.639 45.783L121.738 46.927L121.159 46.9515C120.787 46.9379 120.421 47.053 120.124 47.2775C120.012 47.4027 119.926 47.5498 119.873 47.7096C119.82 47.8693 119.801 48.0383 119.816 48.2059L119.816 48.4889ZM122.267 54.5031V45.8323H123.807V54.5031H122.267Z" fill="#D3D3D3"/>
<path d="M130.927 48.4888V54.5029H129.424V53.5806C129.245 53.8988 128.98 54.1607 128.66 54.3369C128.328 54.5162 127.954 54.6072 127.576 54.6012C126.098 54.6012 125.359 53.7732 125.359 52.117V48.4888H126.899V52.1293C126.872 52.4653 126.964 52.8001 127.158 53.0761C127.261 53.185 127.388 53.2692 127.529 53.3224C127.67 53.3757 127.821 53.3966 127.971 53.3837C128.163 53.3916 128.354 53.3577 128.532 53.2845C128.709 53.2112 128.869 53.1003 128.999 52.9594C129.268 52.6478 129.407 52.2449 129.387 51.834V48.4888H130.927Z" fill="#D3D3D3"/>
<path d="M137.812 51.7725H133.711C133.719 52.2348 133.899 52.6774 134.216 53.0149C134.558 53.3048 135 53.4504 135.448 53.4208C136.11 53.4215 136.754 53.1958 137.27 52.7812L137.714 53.8389C137.4 54.0868 137.043 54.2745 136.661 54.3924C136.25 54.5296 135.819 54.6002 135.386 54.6013C134.961 54.6243 134.535 54.5622 134.134 54.4186C133.733 54.275 133.365 54.0528 133.052 53.7651C132.759 53.4631 132.532 53.1041 132.385 52.7105C132.237 52.3168 132.173 51.8971 132.196 51.4775C132.185 50.9104 132.311 50.3491 132.565 49.8415C132.798 49.3802 133.159 48.9959 133.606 48.7348C134.068 48.4686 134.594 48.3325 135.127 48.3412C135.493 48.3231 135.859 48.3853 136.198 48.5235C136.538 48.6616 136.843 48.8723 137.092 49.1407C137.601 49.7575 137.859 50.5439 137.812 51.3421L137.812 51.7725ZM134.173 49.817C133.899 50.1337 133.737 50.5311 133.711 50.9485H136.495C136.509 50.5378 136.378 50.1352 136.125 49.8109C136.003 49.6798 135.854 49.5771 135.688 49.5101C135.522 49.4432 135.343 49.4136 135.164 49.4234C134.98 49.4157 134.797 49.4467 134.626 49.5145C134.455 49.5824 134.301 49.6854 134.173 49.817H134.173Z" fill="#D3D3D3"/>
<path d="M144.181 48.9562C144.534 49.3662 144.71 49.9851 144.71 50.8131V54.5029H143.17V50.8995C143.201 50.539 143.107 50.1791 142.906 49.8785C142.8 49.7658 142.671 49.6784 142.527 49.623C142.383 49.5676 142.228 49.5457 142.074 49.5588C141.877 49.5499 141.681 49.5825 141.497 49.6546C141.313 49.7266 141.147 49.8364 141.009 49.9769C140.872 50.128 140.766 50.3047 140.697 50.4967C140.628 50.6888 140.598 50.8925 140.608 51.0961V54.5029H139.069V48.4888H140.571V49.3866C140.77 49.0571 141.055 48.7889 141.397 48.6116C141.759 48.4274 142.161 48.3345 142.567 48.3412C142.865 48.3178 143.164 48.3608 143.443 48.4672C143.722 48.5736 143.974 48.7406 144.181 48.9562Z" fill="#D3D3D3"/>
<path d="M147.377 54.2203C146.921 53.9743 146.55 53.5972 146.311 53.1379C146.065 52.6238 145.939 52.0606 145.942 51.4908C145.945 50.921 146.078 50.3593 146.33 49.848C146.58 49.377 146.963 48.9898 147.432 48.7349C147.94 48.4649 148.508 48.3294 149.083 48.3413C149.508 48.341 149.93 48.4095 150.333 48.5441C150.695 48.6543 151.029 48.841 151.312 49.0915L150.869 50.174C150.627 49.976 150.354 49.8182 150.062 49.7065C149.793 49.6026 149.507 49.5485 149.218 49.5466C148.987 49.5333 148.756 49.5711 148.541 49.6572C148.326 49.7432 148.132 49.8756 147.974 50.0447C147.685 50.4645 147.531 50.962 147.531 51.4714C147.531 51.9808 147.685 52.4782 147.974 52.898C148.132 53.0671 148.326 53.1995 148.541 53.2855C148.756 53.3716 148.987 53.4094 149.218 53.3961C149.507 53.3944 149.793 53.3402 150.062 53.2362C150.354 53.1245 150.627 52.9668 150.869 52.769L151.312 53.839C151.019 54.0941 150.674 54.2847 150.302 54.3986C149.889 54.5342 149.456 54.6027 149.021 54.6014C148.45 54.6159 147.884 54.4847 147.377 54.2203Z" fill="#D3D3D3"/>
<path d="M157.57 51.7725H153.468C153.477 52.2348 153.657 52.6774 153.973 53.0149C154.315 53.3048 154.757 53.4504 155.205 53.4208C155.868 53.4215 156.511 53.1958 157.028 52.7812L157.471 53.8389C157.158 54.0868 156.8 54.2745 156.418 54.3924C156.007 54.5296 155.577 54.6002 155.143 54.6013C154.718 54.6243 154.292 54.5622 153.891 54.4186C153.491 54.275 153.122 54.0528 152.809 53.7651C152.516 53.4631 152.289 53.1041 152.142 52.7105C151.995 52.3168 151.93 51.8971 151.953 51.4775C151.942 50.9104 152.069 50.3491 152.322 49.8415C152.555 49.3802 152.917 48.9959 153.363 48.7348C153.825 48.4686 154.351 48.3325 154.885 48.3412C155.251 48.3231 155.616 48.3853 155.956 48.5235C156.295 48.6616 156.6 48.8723 156.849 49.1407C157.359 49.7575 157.616 50.5439 157.57 51.3421L157.57 51.7725ZM153.93 49.817C153.656 50.1337 153.494 50.5311 153.468 50.9485H156.252C156.266 50.5378 156.135 50.1352 155.882 49.8109C155.76 49.6798 155.611 49.5771 155.445 49.5102C155.279 49.4432 155.1 49.4136 154.921 49.4234C154.738 49.4157 154.554 49.4467 154.384 49.5146C154.213 49.5824 154.058 49.6854 153.93 49.817Z" fill="#D3D3D3"/>
<path d="M170.848 48.9499C171.185 49.3558 171.353 49.9769 171.353 50.8132V54.5031H169.813V50.8748C169.841 50.5246 169.759 50.1743 169.579 49.8725C169.489 49.7634 169.373 49.6778 169.242 49.6231C169.112 49.5685 168.969 49.5464 168.828 49.5589C168.646 49.5497 168.465 49.5826 168.298 49.6552C168.132 49.7277 167.984 49.8379 167.867 49.977C167.619 50.3142 167.497 50.7278 167.522 51.1456V54.5031H165.983V50.8748C166.01 50.5254 165.93 50.1759 165.755 49.8725C165.664 49.7623 165.547 49.676 165.415 49.6213C165.283 49.5666 165.14 49.5452 164.997 49.5589C164.817 49.5505 164.638 49.5839 164.474 49.6565C164.309 49.729 164.164 49.8388 164.049 49.977C163.8 50.3142 163.678 50.7278 163.704 51.1456V54.5031H162.164V48.4889H163.667V49.3374C163.837 49.0199 164.099 48.7607 164.418 48.5934C164.757 48.4209 165.134 48.3343 165.514 48.3413C166.426 48.3413 167.029 48.7185 167.325 49.4728C167.511 49.1239 167.793 48.8357 168.138 48.6427C168.499 48.4397 168.907 48.3357 169.321 48.3413C169.605 48.3198 169.89 48.3634 170.155 48.4689C170.42 48.5744 170.657 48.7389 170.848 48.9499Z" fill="#D3D3D3"/>
<path d="M177.389 48.9564C177.799 49.3664 178.005 49.9977 178.005 50.8503V54.5031H176.539V53.5808C176.404 53.8944 176.174 54.1572 175.88 54.331C175.564 54.5154 175.204 54.609 174.839 54.6014C174.459 54.6066 174.084 54.5223 173.743 54.3555C173.428 54.2035 173.16 53.9699 172.966 53.6791C172.778 53.3947 172.68 53.0606 172.683 52.7197C172.662 52.3413 172.782 51.9684 173.022 51.6743C173.323 51.3804 173.709 51.187 174.125 51.1208C174.819 50.9896 175.525 50.9319 176.231 50.9486H176.539V50.6659C176.568 50.3477 176.473 50.0303 176.274 49.7804C176.152 49.6793 176.012 49.6034 175.861 49.5569C175.709 49.5105 175.551 49.4944 175.393 49.5096C175.052 49.513 174.713 49.569 174.389 49.6756C174.03 49.7909 173.685 49.9456 173.361 50.1369L172.93 49.0792C173.71 48.6166 174.597 48.3624 175.504 48.3413C176.35 48.3413 176.978 48.5464 177.389 48.9564ZM176.151 53.0825C176.415 52.7926 176.555 52.4104 176.539 52.0186V51.7604H176.317C175.889 51.7527 175.461 51.7773 175.036 51.8342C174.798 51.856 174.571 51.9456 174.383 52.0924C174.316 52.1577 174.264 52.2364 174.23 52.3233C174.196 52.4103 174.181 52.5034 174.186 52.5966C174.182 52.7174 174.204 52.8376 174.251 52.949C174.298 53.0604 174.368 53.1604 174.457 53.2423C174.645 53.4134 174.893 53.5041 175.147 53.4947C175.334 53.5013 175.52 53.4679 175.693 53.3968C175.866 53.3257 176.022 53.2186 176.151 53.0825Z" fill="#D3D3D3"/>
<path d="M183.535 49.6205L182.636 49.7066C181.618 49.8131 181.109 50.3296 181.109 51.2562V54.5032H179.569V48.489H181.035V49.5467C181.347 48.8251 181.992 48.4315 182.969 48.3659L183.437 48.3291L183.535 49.6205Z" fill="#D3D3D3"/>
<path d="M190.322 54.5033H188.413L185.826 51.7606V54.5033H184.287V45.8325H185.826V51.121L188.253 48.5014H190.125L187.415 51.3792L190.322 54.5033Z" fill="#D3D3D3"/>
<path d="M196.087 51.7725H191.985C191.994 52.2348 192.174 52.6774 192.49 53.0149C192.832 53.3048 193.274 53.4504 193.722 53.4208C194.385 53.4215 195.028 53.1958 195.545 52.7812L195.988 53.8389C195.675 54.0868 195.318 54.2745 194.935 54.3924C194.524 54.5296 194.094 54.6002 193.66 54.6013C193.235 54.6243 192.809 54.5622 192.409 54.4186C192.008 54.275 191.64 54.0528 191.326 53.7651C191.033 53.4631 190.806 53.1041 190.659 52.7105C190.512 52.3168 190.447 51.8971 190.47 51.4775C190.459 50.9104 190.586 50.3491 190.839 49.8415C191.072 49.3802 191.434 48.9959 191.88 48.7348C192.342 48.4686 192.868 48.3325 193.402 48.3412C193.768 48.3231 194.133 48.3853 194.473 48.5235C194.812 48.6616 195.117 48.8723 195.366 49.1407C195.876 49.7575 196.133 50.5439 196.087 51.3421L196.087 51.7725ZM192.447 49.817C192.173 50.1337 192.011 50.5311 191.985 50.9485H194.769C194.783 50.5378 194.652 50.1352 194.399 49.8109C194.277 49.6798 194.128 49.5771 193.962 49.5101C193.796 49.4432 193.617 49.4136 193.438 49.4234C193.255 49.4157 193.071 49.4467 192.901 49.5145C192.73 49.5824 192.575 49.6854 192.447 49.817Z" fill="#D3D3D3"/>
<path d="M200.903 53.4081L200.829 54.5522C200.583 54.5767 200.357 54.5889 200.152 54.5889C199.306 54.5889 198.682 54.3942 198.28 54.0048C198.065 53.7713 197.901 53.4963 197.797 53.197C197.693 52.8976 197.652 52.5802 197.676 52.2643V49.6448H196.518V48.4887H197.676V46.6931H199.216V48.4887H200.805V49.6448H199.216V52.2398C199.216 53.0434 199.589 53.4452 200.337 53.4452C200.526 53.4446 200.716 53.4323 200.903 53.4081Z" fill="#D3D3D3"/>
<path d="M201.716 45.6968H203.416V47.2097H201.716V45.6968ZM201.802 54.503V48.4888H203.342V54.503H201.802Z" fill="#D3D3D3"/>
<path d="M210.043 48.9562C210.396 49.3662 210.573 49.9851 210.573 50.8131V54.5029H209.033V50.8995C209.063 50.539 208.97 50.1791 208.768 49.8785C208.663 49.7658 208.533 49.6784 208.389 49.623C208.245 49.5676 208.09 49.5457 207.937 49.5588C207.74 49.5499 207.543 49.5825 207.359 49.6546C207.176 49.7266 207.01 49.8364 206.871 49.9769C206.734 50.128 206.628 50.3047 206.559 50.4967C206.491 50.6888 206.461 50.8925 206.471 51.0961V54.5029H204.931V48.4888H206.434V49.3866C206.632 49.0571 206.918 48.7889 207.259 48.6116C207.621 48.4274 208.023 48.3345 208.429 48.3412C208.727 48.3178 209.027 48.3608 209.306 48.4672C209.585 48.5736 209.837 48.7406 210.043 48.9562Z" fill="#D3D3D3"/>
<path d="M218 48.4889V53.9495C218 54.8923 217.739 55.6057 217.218 56.0897C216.696 56.5732 215.927 56.8151 214.908 56.8154C214.396 56.8172 213.886 56.7489 213.393 56.6123C212.942 56.4921 212.513 56.2989 212.124 56.0404L212.556 54.9582C213.25 55.3937 214.052 55.6279 214.871 55.6346C215.939 55.6346 216.472 55.1099 216.472 54.0604V53.2732C216.295 53.6068 216.02 53.8789 215.684 54.054C215.319 54.2434 214.913 54.3386 214.502 54.3309C214.01 54.3401 213.525 54.21 213.104 53.9557C212.693 53.7013 212.362 53.337 212.149 52.9041C211.911 52.4183 211.793 51.8828 211.804 51.3422C211.793 50.8003 211.909 50.2635 212.143 49.7742C212.352 49.3371 212.684 48.9698 213.098 48.7165C213.521 48.4628 214.008 48.3328 214.502 48.3412C214.913 48.3336 215.319 48.4287 215.684 48.6178C216.02 48.7931 216.294 49.0654 216.472 49.3989V48.4889L218 48.4889ZM216.06 52.6581C216.353 52.2841 216.5 51.8163 216.472 51.3422C216.501 50.8642 216.354 50.3921 216.06 50.014C215.91 49.8621 215.731 49.7414 215.534 49.6591C215.337 49.5767 215.125 49.5343 214.911 49.5343C214.698 49.5343 214.486 49.5767 214.289 49.6591C214.092 49.7414 213.913 49.8621 213.763 50.014C213.49 50.4 213.344 50.8607 213.344 51.333C213.344 51.8053 213.49 52.266 213.763 52.652C213.912 52.8052 214.09 52.9271 214.287 53.0105C214.484 53.094 214.696 53.1372 214.91 53.1378C215.124 53.1384 215.336 53.0963 215.533 53.0139C215.731 52.9315 215.91 52.8106 216.06 52.6581Z" fill="#D3D3D3"/>
<path d="M5.65466 36.8635C5.66287 36.7935 5.67089 36.7206 5.6792 36.6553C5.67089 36.7206 5.66287 36.7942 5.65466 36.8635Z" fill="#170D35"/>
<path d="M5.65295 36.8778L5.65476 36.8623L5.65295 36.8778Z" fill="#170D35"/>
<path d="M5.65687 36.8623C5.64021 36.8656 5.62185 36.8679 5.60521 36.8713L5.60327 36.889C5.62106 36.8855 5.63726 36.8811 5.65509 36.8775L5.65687 36.8623Z" fill="#170D35"/>
<path d="M20.3854 61.014H20.3855C19.3016 60.1969 18.2791 59.3016 17.3263 58.3352C18.2791 59.3016 19.3015 60.1969 20.3854 61.014Z" fill="url(#paint0_linear)"/>
<path d="M20.3854 61.014H20.3855C19.3016 60.1969 18.2791 59.3016 17.3263 58.3352C18.2791 59.3016 19.3015 60.1969 20.3854 61.014Z" fill="url(#paint1_linear)"/>
<path d="M15.8686 56.7012C15.0003 55.6398 14.2233 54.507 13.546 53.3149C14.2233 54.507 15.0003 55.6398 15.8686 56.7012Z" fill="url(#paint2_linear)"/>
<path d="M15.8686 56.7012C15.0003 55.6398 14.2233 54.507 13.546 53.3149C14.2233 54.507 15.0003 55.6398 15.8686 56.7012Z" fill="url(#paint3_linear)"/>
<path d="M4.80279 37.0844C5.07442 37.0207 5.3186 36.9451 5.60328 36.8879L5.62375 36.8833C4.23307 37.1567 2.86891 37.5506 1.54675 38.0606C2.53677 37.6878 3.55012 37.3799 4.58032 37.139C4.65478 37.1208 4.72726 37.102 4.80279 37.0844Z" fill="url(#paint4_linear)"/>
<path d="M11.7932 49.4923C10.0419 44.6115 10.0331 39.8279 10.4268 36.3485C10.8126 36.3357 11.1969 36.3218 11.5995 36.3228C12.8934 36.3328 14.186 36.4097 15.472 36.5532C16.3388 36.6459 17.2354 36.7705 18.1621 36.927C13.0707 36.0427 8.92994 36.2268 5.67346 36.8733C7.24097 36.5697 8.83065 36.3942 10.4267 36.3485C10.033 39.8278 10.0418 44.6114 11.7932 49.4923Z" fill="url(#paint5_linear)"/>
<path d="M12.6027 58.2023C12.1962 57.9635 11.7934 57.7194 11.4037 57.4565C11.7935 57.7203 12.196 57.9629 12.6027 58.2023Z" fill="url(#paint6_linear)"/>
<path d="M18.3101 36.9531C19.1936 37.1062 20.108 37.2951 21.0534 37.5198C20.1082 37.2942 19.1975 37.1103 18.3101 36.9531Z" fill="url(#paint7_linear)"/>
<path d="M14.3975 59.1639C14.1472 59.0448 13.8969 58.9254 13.6514 58.7981C13.8973 58.9255 14.1464 59.0455 14.3975 59.1639Z" fill="url(#paint8_linear)"/>
<path d="M8.60171 55.2036C8.35895 54.9761 8.10627 54.759 7.87378 54.521C8.1061 54.7596 8.35913 54.9755 8.60171 55.2036Z" fill="url(#paint9_linear)"/>
<path d="M10.584 56.862C10.241 56.6076 9.8963 56.3555 9.56873 56.0825C9.89604 56.3565 10.2411 56.6067 10.584 56.862Z" fill="url(#paint10_linear)"/>
<path d="M24.2131 61.2966C25.9024 61.2737 27.5836 61.0592 29.2244 60.6575C28.1587 60.9063 27.0765 61.0781 25.9861 61.1716C25.3983 61.2255 24.8122 61.2857 24.2131 61.2966Z" fill="url(#paint11_linear)"/>
<path d="M21.7363 61.1811C21.3884 61.145 21.0422 61.1031 20.6987 61.0525C21.0429 61.1022 21.3872 61.1473 21.7363 61.1811Z" fill="url(#paint12_linear)"/>
<path d="M17.2007 60.247C16.8654 60.1428 16.5232 60.0543 16.1952 59.9336C16.5232 60.0543 16.8657 60.1413 17.2007 60.247Z" fill="url(#paint13_linear)"/>
<path d="M22.5985 17.8572C21.5324 15.925 19.0276 15.7451 16.4193 16.3669C15.1668 16.667 13.9625 17.1406 12.8413 17.7737C9.56498 19.6449 5.73535 17.8597 5.73535 17.8597C7.62399 21.6981 10.0372 26.7878 18.2426 25.871C18.7863 25.8034 19.3348 25.7819 19.8821 25.8068C21.0618 28.8466 22.2539 32.1678 22.5435 37.2287C22.5602 37.5199 22.5398 37.2346 22.5602 37.5199C22.3002 37.4488 22.067 37.6581 21.8109 37.5921C22.0827 40.5978 24.1167 54.177 38.4529 56.8075C35.9262 58.91 32.9758 60.4447 29.8023 61.3075C32.9879 60.4475 35.9519 58.9158 38.4947 56.8156C41.0375 54.7154 43.1 52.0955 44.5431 49.1323C45.2893 47.593 45.8594 45.9747 46.2429 44.3081C46.389 43.6768 46.5108 43.0365 46.6033 42.3866C46.6454 42.0912 46.6864 41.7954 46.7169 41.4965C46.7971 40.714 46.8373 39.9279 46.8373 39.1413C46.8373 39.0238 46.8302 38.908 46.8284 38.7909C46.798 38.8096 46.7656 38.8279 46.7348 38.8465C46.7666 35.8588 46.2183 32.8932 45.1201 30.1138C42.683 23.9406 38.2546 19.5502 32.5276 17.2256C36.6052 11.3814 33.7125 7.0241 31.5996 3.58667C31.5996 3.58667 31.2486 7.76527 27.9078 9.51942C25.5089 10.7789 23.0806 13.0808 22.4814 15.3396C22.2461 16.2264 22.0207 16.8308 22.4665 17.6385" fill="url(#paint14_linear)"/>
<path d="M19.8306 60.8992C19.3404 60.8094 18.8507 60.7173 18.3716 60.5974C18.8503 60.7198 19.3402 60.8084 19.8306 60.8992Z" fill="url(#paint15_linear)"/>
<path d="M20.3593 60.9928H20.3595C19.2852 60.1816 18.2715 59.2934 17.3263 58.3352C18.2714 59.2934 19.2851 60.1816 20.3593 60.9928Z" fill="url(#paint16_linear)"/>
<path d="M11.4037 57.4568C11.1237 57.2672 10.8547 57.0637 10.584 56.8621C10.8553 57.0633 11.1231 57.2676 11.4037 57.4568Z" fill="url(#paint17_linear)"/>
<path d="M7.87381 54.5208C7.32823 53.9639 6.8119 53.3791 6.3269 52.7688C6.8115 53.3794 7.32784 53.9642 7.87381 54.5208Z" fill="url(#paint18_linear)"/>
<path d="M9.56869 56.0826C9.23432 55.8028 8.91908 55.5021 8.60168 55.2036C8.91979 55.5017 9.2336 55.8032 9.56869 56.0826Z" fill="url(#paint19_linear)"/>
<path d="M12.6028 58.2024C12.7581 58.2936 12.9033 58.3997 13.0609 58.4873C13.0328 58.4647 13.0096 58.4404 12.9816 58.4176C12.855 58.3464 12.7279 58.2761 12.6028 58.2024Z" fill="url(#paint20_linear)"/>
<path d="M20.3854 61.0137C20.3763 61.0067 20.3684 60.9994 20.3593 60.9924C20.182 60.9641 20.0065 60.9315 19.8307 60.8989C20.0171 60.9331 20.1975 60.9837 20.3854 61.0137Z" fill="url(#paint21_linear)"/>
<path d="M18.3717 60.5973C17.9748 60.4958 17.5887 60.3694 17.2007 60.2471C17.5894 60.368 17.9739 60.4978 18.3717 60.5973Z" fill="url(#paint22_linear)"/>
<path d="M16.0546 59.88L16.1558 59.9215C16.1687 59.9263 16.1823 59.9291 16.1952 59.9339C15.5805 59.7075 14.9857 59.4418 14.3976 59.1643C14.9396 59.4223 15.4887 59.6673 16.0546 59.88Z" fill="url(#paint23_linear)"/>
<path d="M13.0599 58.4868C13.2114 58.5709 13.3645 58.6521 13.5182 58.733C13.5619 58.7559 13.6076 58.7755 13.6515 58.7983C13.4226 58.6797 13.2051 58.5434 12.9808 58.4172C13.0087 58.4399 13.0319 58.4642 13.0599 58.4868Z" fill="url(#paint24_linear)"/>
<path d="M5.65418 36.8771L5.62378 36.8839C5.64095 36.8804 5.65856 36.8772 5.67572 36.8738C5.669 36.8751 5.66089 36.8758 5.65418 36.8771Z" fill="url(#paint25_linear)"/>
<path d="M20.3854 61.0137C20.489 61.0303 20.5955 61.0373 20.6994 61.0526C20.5848 61.0361 20.4733 61.0107 20.3594 60.9924C20.3685 60.9994 20.3763 61.0067 20.3854 61.0137Z" fill="url(#paint26_linear)"/>
<path d="M23.9047 61.3079C23.1711 61.3079 22.4519 61.2504 21.7363 61.1812C22.4564 61.2609 23.1802 61.3032 23.9047 61.3079Z" fill="url(#paint27_linear)"/>
<path d="M24.1307 61.301C24.1586 61.3007 24.1858 61.2974 24.2138 61.2969C24.1101 61.2983 24.0086 61.3081 23.9047 61.3081C23.9805 61.3082 24.0549 61.3018 24.1307 61.301Z" fill="url(#paint28_linear)"/>
<path d="M10.1899 35.693C8.05686 35.5472 5.24892 36.3263 3.35407 36.3233C2.72381 36.3223 2.12209 36.3362 1.51813 36.349C0.666862 40.8452 1.42402 45.4971 3.65744 49.4928C4.06496 50.2169 4.51517 50.9162 5.0057 51.587C5.42746 52.1648 5.8927 52.7409 6.4014 53.3151C7.50871 54.551 8.72574 55.6844 10.0376 56.7014C10.7444 57.2539 11.5051 57.7985 12.3198 58.3351C13.8456 59.3192 15.4316 60.2068 17.0686 60.9927C17.2466 61.011 17.4208 61.0363 17.5998 61.0528C18.1375 61.1034 18.6795 61.1453 19.2241 61.1814C20.3444 61.2507 21.7709 62.4847 22.5343 61.6281C22.7068 61.4345 22.6295 61.8863 22.7914 61.8849C23.7293 61.8739 25.2145 61.9388 26.1347 61.8849C10.1872 54.314 9.20516 42.2417 10.1899 35.693Z" fill="url(#paint29_linear)"/>
<path d="M29.479 60.6057C29.5572 60.5857 29.6302 60.5534 29.708 60.5325C29.5473 60.5756 29.3865 60.618 29.2245 60.6576C29.3083 60.6375 29.3956 60.6272 29.479 60.6057Z" fill="#D8D8D8"/>
<path d="M21.9547 37.7461C21.6988 37.6798 21.4388 37.6085 21.1872 37.5477C21.1409 37.5365 21.0995 37.531 21.0533 37.52C21.3493 37.5906 21.6534 37.6716 21.9551 37.7493L21.9547 37.7461Z" fill="#D8D8D8"/>
<path d="M18.1622 36.9272C18.2115 36.9358 18.2609 36.9445 18.3104 36.9534C18.2611 36.9448 18.2113 36.9357 18.1622 36.9272Z" fill="#D8D8D8"/>
<path d="M22.5718 36.367C22.2702 36.2893 21.5444 37.3042 21.2484 37.2336C20.3032 37.0083 19.5602 36.8731 18.6767 36.7201C18.6273 36.7113 17.6971 36.2151 17.6479 36.2065C16.7214 36.0492 9.51355 36.0424 8.64683 35.9497C8.01787 42.4984 11.7329 55.722 24.0774 62.1416C25.1798 62.0406 28.1728 61.4708 29.2244 61.2186C29.3865 61.1789 29.5473 60.9423 29.708 60.8991C32.8438 60.0553 36.142 58.1659 38.5756 56.1534C24.6243 53.5935 22.8363 39.292 22.5718 36.367Z" fill="#D8D8D8"/>
<path d="M20.3855 61.0139H20.3854C20.562 61.1489 20.7181 61.2902 20.9007 61.4232H20.9007C20.7182 61.2902 20.5621 61.1489 20.3855 61.0139Z" fill="#170D35"/>
<path d="M47.8095 38.9615C47.8095 38.9493 47.8084 38.9376 47.8084 38.9255C47.8075 38.4999 47.7919 38.078 47.7679 37.6582C47.766 37.6238 47.7666 37.5887 47.7646 37.5544C47.7607 37.4879 47.7539 37.4221 47.7494 37.3557C47.7454 37.2955 47.7375 37.2364 47.733 37.1762C47.7215 37.0252 47.7144 36.8729 47.7002 36.7225C47.6909 36.623 47.6754 36.5255 47.6648 36.4264C47.6455 36.2422 47.6227 36.0591 47.5991 35.8762C47.5738 35.6817 47.5474 35.4876 47.5175 35.2947C47.5049 35.2133 47.4965 35.1307 47.483 35.0496C47.4638 34.9336 47.438 34.8198 47.4165 34.7046C47.3955 34.5891 47.3797 34.4719 47.3571 34.357C47.3398 34.2687 47.3176 34.182 47.2989 34.0941C47.2957 34.0792 47.2923 34.0643 47.289 34.0494C47.2421 33.8303 47.1961 33.6109 47.1438 33.3937C47.1202 33.2952 47.0902 33.1992 47.0654 33.1011C46.795 31.9151 46.4362 30.7509 45.9918 29.6184C43.7988 24.0164 39.5749 19.4435 34.1597 16.8087C37.3924 10.8777 34.6135 6.35631 32.8992 3.56726L30.7065 0L30.1697 4.16162C30.1576 4.24506 29.664 7.49738 27.1817 8.80079C24.9259 9.98524 22.0299 12.3791 21.1915 15.267C21.1891 15.2753 21.1856 15.2833 21.1833 15.2917C21.1614 15.2852 21.138 15.2808 21.116 15.2745C20.4386 15.0858 19.7381 14.9929 19.0348 14.9984C18.1279 15.006 17.225 15.1192 16.3444 15.336C14.9889 15.6596 13.6859 16.1722 12.4737 16.8587C11.6854 17.2939 10.7962 17.5139 9.8956 17.4965C8.86959 17.4855 7.8552 17.2783 6.90727 16.8862L3.08 15.102L4.95951 18.9215C5.50166 20.0863 6.13672 21.2058 6.85857 22.269C7.15144 22.6856 7.46823 23.085 7.80734 23.465C9.58432 25.4481 12.2449 27.0951 16.5235 27.0951C17.2476 27.0931 17.9709 27.051 18.6903 26.969C18.9049 26.9451 19.1195 26.9271 19.3325 26.9154C20.0699 29.1498 20.5782 31.4531 20.8496 33.79C20.9171 34.3264 20.9792 34.8697 21.0299 35.4274C18.0655 34.6622 15.0268 34.2198 11.967 34.1078C8.51646 33.9559 5.06719 34.4354 1.78946 35.5227L1.78866 35.5297C1.23066 35.7009 0.698036 35.8824 0.182414 36.0705C0.179124 36.0978 0.174377 36.1247 0.171159 36.1521C0.0774386 36.9545 0.024279 37.7611 0.0118831 38.5689C0.010988 38.6237 0.00634035 38.6777 0.00580723 38.7325C0.00508655 38.8092 0 38.8847 0 38.9615C0 39.72 0.0395898 40.4694 0.10922 41.21C0.183805 42.0038 0.298325 42.7933 0.452349 43.5755C0.516171 43.8994 0.588833 44.2198 0.665595 44.5388C1.6373 48.6077 3.66467 52.3494 6.54389 55.3878C9.42311 58.4262 13.0527 60.6543 17.0678 61.848C21.0829 63.0417 25.3419 63.1589 29.4168 62.188C33.4916 61.217 37.2387 59.1921 40.2812 56.3167C40.865 55.7669 41.4229 55.1898 41.9493 54.5845L41.9541 54.5943C42.1671 54.3491 42.374 54.0985 42.5771 53.8447C42.6252 53.7846 42.6713 53.7229 42.7188 53.6623C42.9653 53.3481 43.2042 53.0279 43.4356 52.7017C43.4753 52.6455 43.517 52.5907 43.5563 52.534C43.7929 52.1933 44.018 51.8441 44.2369 51.4908C44.2741 51.4308 44.3158 51.3739 44.3525 51.3135C44.3877 51.2557 44.4195 51.1955 44.4542 51.1373C44.5332 51.0049 44.609 50.8706 44.6855 50.7366C44.772 50.5848 44.8601 50.434 44.9434 50.2803C45.0864 50.0159 45.2245 49.7487 45.3578 49.4787C45.421 49.3504 45.4798 49.2199 45.5408 49.0904C45.6247 48.9122 45.708 48.7337 45.7877 48.5531C45.8421 48.4295 45.8943 48.3049 45.9467 48.1803C46.0315 47.9787 46.1135 47.7759 46.1929 47.5717C46.2334 47.4673 46.2739 47.363 46.3129 47.2579C46.4125 46.9905 46.5072 46.7209 46.5971 46.449C46.6119 46.4046 46.6279 46.3609 46.6424 46.3163C46.8635 45.6357 47.0538 44.9421 47.2133 44.2356C47.2211 44.2011 47.2282 44.1664 47.2359 44.1319C47.3055 43.818 47.3688 43.5019 47.4257 43.1836C47.4307 43.1553 47.4376 43.1275 47.4426 43.0991C47.4473 43.0724 47.4503 43.0451 47.4549 43.0184C47.5033 42.7373 47.5466 42.4546 47.5847 42.1703C47.5895 42.1353 47.5962 42.1009 47.6007 42.0658C47.6038 42.0426 47.6058 42.0189 47.6088 41.9956C47.618 41.9236 47.6299 41.8526 47.6384 41.7804C47.6467 41.7102 47.6501 41.6387 47.6577 41.5684C47.6961 41.2302 47.7272 40.89 47.7511 40.5477C47.7526 40.5251 47.7548 40.5027 47.7562 40.48C47.7613 40.4012 47.7699 40.3234 47.7741 40.2443C47.7911 39.9252 47.7961 39.603 47.8007 39.2807C47.8011 39.2537 47.8035 39.2271 47.8038 39.2C47.8045 39.1234 47.8096 39.0478 47.8096 38.9711L47.8094 38.9661L47.8095 38.9615ZM20.3624 25.4035C20.2218 25.3985 20.0788 25.396 19.9335 25.396C19.4638 25.3963 18.9944 25.4228 18.5276 25.4755C17.8623 25.5516 17.1932 25.5907 16.5235 25.5926C12.7643 25.5926 10.4743 24.2328 8.8808 22.4247C8.54659 22.0441 8.23672 21.6429 7.95302 21.2234C7.32935 20.2725 6.77271 19.2794 6.28715 18.2513C7.42913 18.7347 8.65528 18.9888 9.89561 18.9991C10.2518 18.9987 10.6076 18.9729 10.9601 18.922C11.7487 18.8148 12.5096 18.5588 13.2023 18.1676C14.2934 17.5514 15.4654 17.0906 16.6842 16.7985C17.4536 16.6088 18.2424 16.509 19.0348 16.501C19.703 16.4923 20.3676 16.5987 20.9995 16.8157C21.7728 17.0672 22.424 17.5983 22.8251 18.3047L22.9303 18.4952C22.8936 18.4288 22.8586 18.3653 22.8252 18.3047C22.5515 17.8063 22.4217 17.2417 22.4502 16.674C22.4623 16.3782 22.507 16.0847 22.5836 15.7988C22.6454 15.5739 22.7226 15.3535 22.8146 15.1392C23.6436 13.163 25.7633 11.238 27.8643 10.1349C31.1154 8.42784 31.6399 4.36144 31.6399 4.36144C33.6018 7.55306 35.7481 11.4211 32.4949 16.709C32.3384 16.9632 32.1737 17.2197 31.9917 17.4807C36.9662 19.4864 41.0697 23.1845 43.5762 27.9206C43.6191 28.0034 43.6616 28.0866 43.7035 28.1701C43.8151 28.3882 43.9225 28.6094 44.0275 28.8323C44.9726 30.9125 45.6295 33.1115 45.9802 35.3687C45.9781 35.3537 45.9769 35.3388 45.9748 35.3239C46.0188 35.59 46.055 35.8587 46.0905 36.1274L46.0718 36.1394C43.0037 38.1795 37.6957 39.788 28.8691 37.6809C27.6043 37.3789 26.2673 37.0009 24.8542 36.5367C24.0677 36.2783 23.3036 36.0502 22.5513 35.8376C22.505 35.2606 22.4494 34.7023 22.3875 34.157C22.0897 31.1648 21.4092 28.223 20.3624 25.4035ZM46.2626 39.872C46.2464 40.28 46.2183 40.6849 46.1812 41.0872C46.1788 41.1127 46.1777 41.1387 46.1753 41.1642C46.1352 41.5829 46.0834 41.9982 46.02 42.4099C45.9685 42.7413 45.8984 43.0664 45.8325 43.3928C45.7389 43.8561 45.6309 44.3139 45.5085 44.766L45.5048 44.7799C45.3823 45.2329 45.246 45.6802 45.096 46.1219C45.055 46.2432 45.0162 46.3654 44.9732 46.4859L44.9722 46.489C44.8787 46.7494 44.778 47.0059 44.6751 47.2618C44.6037 47.4395 44.5314 47.6166 44.4556 47.792C44.3558 48.0226 44.2533 48.2512 44.1461 48.4777V48.4778C44.0031 48.78 43.8579 49.081 43.7019 49.3757L43.7012 49.377C43.6392 49.4941 43.5733 49.6087 43.5092 49.7247C43.4201 49.8858 43.3252 50.0433 43.2322 50.202C43.1629 50.3208 43.0968 50.4416 43.0252 50.5589C42.9332 50.7096 42.8389 50.8583 42.7435 51.0067C42.5834 51.2554 42.4186 51.5007 42.2491 51.7426C42.1349 51.9057 42.0186 52.067 41.9003 52.2267C41.8248 52.3287 41.7451 52.4275 41.6678 52.5282C41.5739 52.6504 41.4817 52.7742 41.3853 52.8945C40.5927 53.8822 39.7184 54.8015 38.7715 55.6428L38.7611 55.6519C38.5596 55.8309 38.3341 55.9815 38.1263 56.1534C34.7143 59.0682 30.4631 60.8255 25.986 61.1717C25.3709 61.2281 24.7583 61.2946 24.1302 61.3008C24.0545 61.3016 23.9804 61.308 23.9047 61.308C22.7256 61.3031 21.5489 61.2048 20.3855 61.0138L20.3854 61.0139L20.3854 61.0138C18.943 60.7891 17.5263 60.4231 16.1557 59.9213L16.0546 59.8798C15.186 59.5505 14.3389 59.1675 13.5181 58.7329C13.3645 58.6521 13.2114 58.5709 13.0599 58.4867C8.98737 56.2274 5.71746 52.7619 3.70133 48.5682C2.49599 46.0412 1.77782 43.3101 1.58434 40.5178C1.54868 40.0029 1.52393 39.4851 1.52393 38.9615C1.52393 38.6594 1.53492 38.3598 1.5468 38.0605C2.53682 37.6877 3.55017 37.3799 4.58037 37.1389C4.65481 37.1207 4.7273 37.102 4.80282 37.0843C5.07445 37.0207 5.31863 36.9451 5.60331 36.8878L5.65292 36.8768C7.22713 36.5711 8.82375 36.3945 10.4268 36.3488H10.4269C10.8127 36.3361 11.197 36.3222 11.5996 36.3231C12.8936 36.3332 14.1861 36.4101 15.4722 36.5536C17.397 36.7595 19.3061 37.0916 21.1873 37.5478C21.4389 37.6085 21.6988 37.6798 21.9548 37.7461C22.2034 37.8106 22.4478 37.8698 22.7 37.9387C23.594 38.1832 24.5099 38.456 25.4532 38.7658C26.6785 39.1683 27.8437 39.5032 28.9571 39.7827C37.6368 41.9618 42.9942 40.5988 46.1882 38.6731C46.2174 38.6554 46.248 38.6382 46.2769 38.6205C46.2784 38.7165 46.2826 38.8118 46.2842 38.9077V38.9081C46.2843 38.9274 46.2855 38.9464 46.2855 38.9657V38.9658L46.2855 38.9711C46.2855 39.2733 46.2746 39.5728 46.2626 39.872Z" fill="#414141"/>
<path d="M56.3593 39.7646V23.0654H62.7945C69.1065 23.0654 72.307 25.8065 72.307 31.2127C72.307 33.7977 71.4268 35.894 69.6909 37.4435C67.9652 38.9838 65.6449 39.7646 62.7945 39.7646L56.3593 39.7646ZM62.4939 36.1765C64.0787 36.1765 65.3336 35.7341 66.2238 34.8613C67.1118 33.9896 67.5622 32.7775 67.5622 31.2586C67.5622 29.8321 67.1184 28.6991 66.2433 27.8913C65.3606 27.0771 64.0911 26.6643 62.4699 26.6643H60.8999V36.1766L62.4939 36.1765Z" fill="#F6F6F6"/>
<path d="M62.7944 23.394C68.9167 23.394 71.9778 26.0002 71.9778 31.2128C71.9778 33.7115 71.1424 35.7068 69.4715 37.1985C67.8006 38.6898 65.5749 39.4356 62.7944 39.436H56.6883V23.394H62.7944ZM60.5707 36.5052H62.4937C64.1769 36.5052 65.4971 36.0354 66.4543 35.0957C67.412 34.1557 67.8909 32.8766 67.8912 31.2585C67.8912 29.7299 67.4163 28.5271 66.4666 27.65C65.5167 26.7738 64.1845 26.3356 62.4698 26.3356H60.5707V36.5052V36.5052ZM62.7944 22.7368H56.0302V40.0932H62.7944C65.7282 40.0932 68.1223 39.2841 69.9102 37.6885C71.7189 36.0741 72.636 33.8954 72.636 31.2128C72.636 28.4173 71.7858 26.276 70.109 24.8485C68.4632 23.4473 66.0023 22.7368 62.7944 22.7368H62.7944ZM61.2288 26.9928H62.4698C64.0056 26.9928 65.2 27.3763 66.02 28.1327C66.8362 28.8861 67.233 29.9086 67.233 31.2585C67.233 32.7062 66.8273 33.808 65.9929 34.6271C65.155 35.4486 64.0103 35.848 62.4937 35.848H61.2288V26.9928V26.9928Z" fill="#EAEAEA"/>
<path d="M81.6987 23.0652H77.1587V39.7644H81.6987V23.0652Z" fill="#F6F6F6"/>
<path d="M81.3696 23.3937V39.4358H77.4879V23.3937H81.3696H81.3696ZM82.0277 22.7366H76.8297V40.093H82.0277V22.7366Z" fill="#F6F6F6"/>
<path d="M95.81 40.0439C92.9664 40.0439 90.6866 39.2948 89.0338 37.8177C87.3701 36.3318 86.5265 34.2642 86.5265 31.6725C86.5265 29.0665 87.4442 26.9105 89.2541 25.2645C91.0549 23.6271 93.4751 22.797 96.4476 22.797C98.1214 22.7698 99.7885 23.0133 101.384 23.5181L101.608 23.5935V27.7696L101.123 27.5081C99.6586 26.7786 98.0357 26.4233 96.3999 26.4741C94.863 26.4741 93.6498 26.9217 92.6913 27.8423C91.7359 28.7599 91.2713 29.9577 91.2713 31.504C91.2713 33.0535 91.6978 34.2624 92.5387 35.0974C93.3797 35.9324 94.5413 36.3558 95.9911 36.3558C96.6289 36.3751 97.2654 36.2864 97.8735 36.0935V33.5104H94.4232V29.967H102.414V38.5587L102.241 38.6518C100.519 39.5756 98.3556 40.0439 95.81 40.0439Z" fill="#F6F6F6"/>
<path d="M96.4476 23.1255C98.0857 23.0971 99.7176 23.3349 101.279 23.8296V27.219C99.9498 26.5029 98.3233 26.145 96.3998 26.1454C95.6795 26.1162 94.9605 26.2303 94.2847 26.4809C93.6089 26.7315 92.9897 27.1138 92.4631 27.6054C91.4492 28.5792 90.9422 29.8787 90.9422 31.504C90.9422 33.153 91.397 34.4284 92.3066 35.3304C93.2158 36.2331 94.4439 36.6845 95.9911 36.6844C96.7459 36.715 97.4989 36.5892 98.2026 36.3149V33.1819H94.7522V30.2955H102.085V38.3623C100.402 39.265 98.3108 39.716 95.8101 39.7152C93.0373 39.7152 90.8517 39.0011 89.2532 37.5727C87.6548 36.1452 86.8555 34.1785 86.8555 31.6725C86.8555 29.1509 87.7289 27.0959 89.4757 25.5075C91.2229 23.9187 93.5469 23.1247 96.4476 23.1255H96.4476ZM96.4476 22.4683C93.3905 22.4683 90.8957 23.3274 89.0325 25.0216C87.1513 26.7323 86.1974 28.97 86.1974 31.6725C86.1974 34.3618 87.0779 36.5117 88.8145 38.0626C90.5292 39.5952 92.8829 40.3724 95.8101 40.3724C98.4105 40.3724 100.627 39.8909 102.397 38.9412L102.743 38.7552V29.6384H94.094V33.839H97.5444V35.8537C97.0366 35.98 96.5143 36.0384 95.9911 36.0273C94.6122 36.0273 93.5588 35.6469 92.7707 34.8644C91.9832 34.0825 91.6004 32.9833 91.6004 31.504C91.6004 30.0517 92.0318 28.9314 92.9194 28.079C93.8137 27.2201 94.9522 26.8026 96.3998 26.8026C97.9811 26.752 99.5502 27.0938 100.967 27.7974L101.937 28.3203V23.3577L101.49 23.2069C99.8599 22.6905 98.1572 22.4411 96.4476 22.4683H96.4476Z" fill="#EAEAEA"/>
<path d="M112.299 23.0652H107.758V39.7644H112.299V23.0652Z" fill="#F6F6F6"/>
<path d="M111.969 23.3937V39.4358H108.087V23.3937H111.969ZM112.628 22.7366H107.429V40.093H112.628V22.7366Z" fill="#EAEAEA"/>
<path d="M121.502 39.7645V26.6644H116.609V23.0654H130.971V26.6644H126.053V39.7645H121.502Z" fill="#F6F6F6"/>
<path d="M130.641 23.3937V26.3354H125.724V39.4358H121.83V26.3354H116.938V23.3937H130.641ZM131.3 22.7366H116.28V26.9926H121.172V40.093H126.383V26.9926H131.3V22.7366Z" fill="#EAEAEA"/>
<path d="M144.582 39.7646L143.356 36.1958H137.697L136.482 39.7646H131.558L138.09 23.0654H143.145L149.526 39.7646H144.582ZM142.24 32.7643L140.539 27.8071C140.526 27.7687 140.513 27.7296 140.501 27.6899C140.493 27.7145 138.751 32.7643 138.751 32.7643H142.24Z" fill="#F6F6F6"/>
<path d="M142.918 23.3937L149.048 39.4358H144.817L143.591 35.867H137.461L136.246 39.4358H132.039L138.314 23.3937H142.918H142.918ZM138.29 33.0926H142.701L140.85 27.7003C140.7 27.2317 140.603 26.7476 140.562 26.2572H140.465C140.424 26.734 140.323 27.2039 140.165 27.6558L138.29 33.0926ZM143.372 22.7366H137.865L137.701 23.1547L131.426 39.1967L131.076 40.093H136.718L136.87 39.6472L137.932 36.5242H143.121L144.194 39.649L144.347 40.093H150.004L149.663 39.2015L143.533 23.1595L143.372 22.7366ZM139.213 32.4355L140.499 28.7046L141.78 32.4355H139.213Z" fill="#EAEAEA"/>
<path d="M153.519 39.7645V23.0654H158.059V36.1764H164.442V39.7645H153.519Z" fill="#F6F6F6"/>
<path d="M157.73 23.3937V36.505H164.114V39.4358H153.848V23.3937H157.73ZM158.388 22.7366H153.189V40.093H164.772V35.8478H158.388V22.7366Z" fill="#EAEAEA"/>
<path d="M185.129 39.7645L180.084 32.7668V39.7645H175.544V23.0654H180.084V29.8177L184.887 23.0654H190.362L184.092 31.0463L190.874 39.7645H185.129Z" fill="#F6F6F6"/>
<path d="M189.685 23.3937L183.674 31.0453L190.201 39.4358H185.297L180.273 32.4656C180.098 32.1831 179.946 31.8878 179.816 31.5821H179.755V39.4358H175.873V23.3937H179.755V30.9779H179.816C179.912 30.7696 180.072 30.4715 180.297 30.0836L185.057 23.3937H189.685H189.685ZM191.038 22.7366H184.717L184.52 23.0132L180.414 28.7853V22.7366H175.215V40.093H180.414V33.7859L184.763 39.8197L184.96 40.093H191.546L190.721 39.0327L184.509 31.0472L190.203 23.7993L191.038 22.7366Z" fill="#EAEAEA"/>
<path d="M198.709 23.0652H194.168V39.7644H198.709V23.0652Z" fill="#F6F6F6"/>
<path d="M198.38 23.3937V39.4358H194.498V23.3937H198.38ZM199.038 22.7366H193.839V40.093H199.038V22.7366Z" fill="#EAEAEA"/>
<path d="M207.912 39.7645V26.6644H203.02V23.0654H217.381V26.6644H212.464V39.7645H207.912Z" fill="#F6F6F6"/>
<path d="M217.052 23.3937V26.3354H212.135V39.4358H208.241V26.3354H203.348V23.3937H217.052ZM217.71 22.7366H202.69V26.9926H207.583V40.093H212.793V26.9926H217.71V22.7366Z" fill="#F6F6F6"/>
<defs>
<linearGradient id="paint0_linear" x1="2.44784" y1="58.0483" x2="47.4348" y2="62.5214" gradientUnits="userSpaceOnUse">
<stop stop-color="#CCCCCC"/>
<stop offset="1" stop-color="#F2F2F2"/>
</linearGradient>
<linearGradient id="paint1_linear" x1="309.292" y1="1197.85" x2="737.02" y2="1197.85" gradientUnits="userSpaceOnUse">
<stop stop-color="#CCCCCC"/>
<stop offset="1" stop-color="#F2F2F2"/>
</linearGradient>
<linearGradient id="paint2_linear" x1="152.292" y1="1530.53" x2="450.815" y2="1530.53" gradientUnits="userSpaceOnUse">
<stop stop-color="#CCCCCC"/>
<stop offset="1" stop-color="#F2F2F2"/>
</linearGradient>
<linearGradient id="paint3_linear" x1="235.204" y1="1445.66" x2="559.934" y2="1445.66" gradientUnits="userSpaceOnUse">
<stop stop-color="#CCCCCC"/>
<stop offset="1" stop-color="#F2F2F2"/>
</linearGradient>
<linearGradient id="paint4_linear" x1="1.52391" y1="37.472" x2="46.2855" y2="37.472" gradientUnits="userSpaceOnUse">
<stop stop-color="#FF00FF"/>
<stop offset="1" stop-color="#0000FF"/>
</linearGradient>
<linearGradient id="paint5_linear" x1="872.6" y1="4966.3" x2="2571.3" y2="4966.3" gradientUnits="userSpaceOnUse">
<stop stop-color="#FF00FF"/>
<stop offset="1" stop-color="#0000FF"/>
</linearGradient>
<linearGradient id="paint6_linear" x1="94.6372" y1="370.483" x2="257.73" y2="370.483" gradientUnits="userSpaceOnUse">
<stop stop-color="#FF00FF"/>
<stop offset="1" stop-color="#0000FF"/>
</linearGradient>
<linearGradient id="paint7_linear" x1="208.745" y1="239.314" x2="581.894" y2="239.314" gradientUnits="userSpaceOnUse">
<stop stop-color="#FF00FF"/>
<stop offset="1" stop-color="#0000FF"/>
</linearGradient>
<linearGradient id="paint8_linear" x1="65.4467" y1="213.635" x2="166.937" y2="213.635" gradientUnits="userSpaceOnUse">
<stop stop-color="#FF00FF"/>
<stop offset="1" stop-color="#0000FF"/>
</linearGradient>
<linearGradient id="paint9_linear" x1="58.4046" y1="334.899" x2="157.418" y2="334.899" gradientUnits="userSpaceOnUse">
<stop stop-color="#FF00FF"/>
<stop offset="1" stop-color="#0000FF"/>
</linearGradient>
<linearGradient id="paint10_linear" x1="80.0458" y1="380.046" x2="218.143" y2="380.046" gradientUnits="userSpaceOnUse">
<stop stop-color="#FF00FF"/>
<stop offset="1" stop-color="#0000FF"/>
</linearGradient>
<linearGradient id="paint11_linear" x1="372.082" y1="335.078" x2="1053.71" y2="335.078" gradientUnits="userSpaceOnUse">
<stop stop-color="#FF00FF"/>
<stop offset="1" stop-color="#0000FF"/>
</linearGradient>
<linearGradient id="paint12_linear" x1="92.7207" y1="116.322" x2="233.844" y2="116.322" gradientUnits="userSpaceOnUse">
<stop stop-color="#FF00FF"/>
<stop offset="1" stop-color="#0000FF"/>
</linearGradient>
<linearGradient id="paint13_linear" x1="85.9962" y1="193.652" x2="222.768" y2="193.652" gradientUnits="userSpaceOnUse">
<stop stop-color="#FF00FF"/>
<stop offset="1" stop-color="#0000FF"/>
</linearGradient>
<linearGradient id="paint14_linear" x1="28.0333" y1="-7.69849" x2="64.293" y2="72.755" gradientUnits="userSpaceOnUse">
<stop stop-color="#C800FF"/>
<stop offset="1" stop-color="#2A00FF"/>
</linearGradient>
<linearGradient id="paint15_linear" x1="119.655" y1="189.973" x2="318.114" y2="189.973" gradientUnits="userSpaceOnUse">
<stop stop-color="#FF00FF"/>
<stop offset="1" stop-color="#0000FF"/>
</linearGradient>
<linearGradient id="paint16_linear" x1="227.883" y1="1188.73" x2="640.458" y2="1188.73" gradientUnits="userSpaceOnUse">
<stop stop-color="#FF00FF"/>
<stop offset="1" stop-color="#0000FF"/>
</linearGradient>
<linearGradient id="paint17_linear" x1="65.3938" y1="305.295" x2="159.813" y2="305.295" gradientUnits="userSpaceOnUse">
<stop stop-color="#CCCCCC"/>
<stop offset="1" stop-color="#F2F2F2"/>
</linearGradient>
<linearGradient id="paint18_linear" x1="109.761" y1="765.895" x2="287.942" y2="765.895" gradientUnits="userSpaceOnUse">
<stop stop-color="#CCCCCC"/>
<stop offset="1" stop-color="#F2F2F2"/>
</linearGradient>
<linearGradient id="paint19_linear" x1="73.2603" y1="418.301" x2="184.645" y2="418.301" gradientUnits="userSpaceOnUse">
<stop stop-color="#CCCCCC"/>
<stop offset="1" stop-color="#F2F2F2"/>
</linearGradient>
<linearGradient id="paint20_linear" x1="43.2358" y1="178.247" x2="96.0061" y2="178.247" gradientUnits="userSpaceOnUse">
<stop stop-color="#CCCCCC"/>
<stop offset="1" stop-color="#F2F2F2"/>
</linearGradient>
<linearGradient id="paint21_linear" x1="63.1666" y1="110.163" x2="173.139" y2="110.163" gradientUnits="userSpaceOnUse">
<stop stop-color="#CCCCCC"/>
<stop offset="1" stop-color="#F2F2F2"/>
</linearGradient>
<linearGradient id="paint22_linear" x1="108.684" y1="210.009" x2="340.839" y2="210.009" gradientUnits="userSpaceOnUse">
<stop stop-color="#CCCCCC"/>
<stop offset="1" stop-color="#F2F2F2"/>
</linearGradient>
<linearGradient id="paint23_linear" x1="154.838" y1="386.218" x2="511.231" y2="386.218" gradientUnits="userSpaceOnUse">
<stop stop-color="#CCCCCC"/>
<stop offset="1" stop-color="#F2F2F2"/>
</linearGradient>
<linearGradient id="paint24_linear" x1="65.3742" y1="219.275" x2="198.332" y2="219.275" gradientUnits="userSpaceOnUse">
<stop stop-color="#CCCCCC"/>
<stop offset="1" stop-color="#F2F2F2"/>
</linearGradient>
<linearGradient id="paint25_linear" x1="9.68132" y1="40.4615" x2="19.978" y2="40.4615" gradientUnits="userSpaceOnUse">
<stop stop-color="#CCCCCC"/>
<stop offset="1" stop-color="#F2F2F2"/>
</linearGradient>
<linearGradient id="paint26_linear" x1="52.8071" y1="86.8393" x2="100.343" y2="86.8393" gradientUnits="userSpaceOnUse">
<stop stop-color="#CCCCCC"/>
<stop offset="1" stop-color="#F2F2F2"/>
</linearGradient>
<linearGradient id="paint27_linear" x1="228.68" y1="115.698" x2="531.853" y2="115.698" gradientUnits="userSpaceOnUse">
<stop stop-color="#CCCCCC"/>
<stop offset="1" stop-color="#F2F2F2"/>
</linearGradient>
<linearGradient id="paint28_linear" x1="53.4043" y1="66.1483" x2="96.6213" y2="66.1483" gradientUnits="userSpaceOnUse">
<stop stop-color="#CCCCCC"/>
<stop offset="1" stop-color="#F2F2F2"/>
</linearGradient>
<linearGradient id="paint29_linear" x1="1692.65" y1="10335.1" x2="7212.56" y2="10335.1" gradientUnits="userSpaceOnUse">
<stop stop-color="#CCCCCC"/>
<stop offset="1" stop-color="#F2F2F2"/>
</linearGradient>
</defs>
</svg>
