<svg width="48" height="48" viewBox="0 0 48 48" fill="none" xmlns="http://www.w3.org/2000/svg">
<g clip-path="url(#clip0)">
<path d="M23.9998 14.7663C20.7326 14.7663 18.0747 17.4243 18.0747 20.6912C18.0747 23.9582 20.7326 26.6162 23.9998 26.6162C27.2669 26.6162 29.9249 23.9582 29.9249 20.6912C29.9249 17.4242 27.2668 14.7663 23.9998 14.7663Z" fill="#C4C4C4"/>
<path d="M35.8269 43.0857C35.4234 40.2657 34.0148 37.6752 31.8607 35.7916C29.685 33.889 26.8932 32.8412 23.9999 32.8412C21.1065 32.8412 18.3147 33.8891 16.139 35.7916C13.9849 37.6752 12.5763 40.2657 12.1729 43.0858C12.1151 43.4894 12.2354 43.8982 12.5025 44.2062C12.7696 44.5142 13.1572 44.6912 13.5649 44.6912H34.4348C34.8426 44.6912 35.2301 44.5142 35.4972 44.2062C35.7644 43.8982 35.8846 43.4893 35.8269 43.0857Z" fill="#C4C4C4"/>
<path d="M15.4085 12.0999C15.9576 11.5508 15.9576 10.6604 15.4085 10.1112C14.8594 9.56201 13.9689 9.56201 13.4198 10.1112C7.58598 15.9451 7.58598 25.4374 13.4198 31.2712C13.6943 31.5458 14.0543 31.683 14.4141 31.683C14.7741 31.683 15.1339 31.5457 15.4085 31.2712C15.9576 30.722 15.9576 29.8317 15.4085 29.2825C10.6712 24.5453 10.6712 16.8372 15.4085 12.0999Z" fill="#C4C4C4"/>
<path d="M34.5802 10.1112C34.0311 9.56201 33.1407 9.5621 32.5915 10.1112C32.0424 10.6603 32.0424 11.5507 32.5915 12.0999C34.8863 14.3947 36.1501 17.4458 36.1501 20.6911C36.1501 23.9367 34.8864 26.9878 32.5915 29.2827C32.0424 29.8317 32.0424 30.7222 32.5916 31.2713C32.8663 31.546 33.2261 31.6832 33.586 31.6832C33.9458 31.6832 34.3058 31.546 34.5802 31.2713C37.4063 28.4452 38.9625 24.6878 38.9625 20.6911C38.9625 16.6945 37.4061 12.9372 34.5802 10.1112Z" fill="#C4C4C4"/>
<path d="M9.01817 35.6731C0.757311 27.4122 0.757124 13.9705 9.01808 5.70947C9.56717 5.16038 9.56717 4.26994 9.01808 3.72075C8.46898 3.17157 7.57855 3.17166 7.02927 3.72075C2.49646 8.25384 0 14.2807 0 20.6913C9.37498e-05 27.102 2.49656 33.1289 7.02955 37.6618C7.30405 37.9364 7.66405 38.0737 8.02377 38.0737C8.38376 38.0737 8.74358 37.9363 9.01817 37.6618C9.56736 37.1127 9.56736 36.2223 9.01817 35.6731Z" fill="#C4C4C4"/>
<path d="M40.9704 3.72074C40.4213 3.17156 39.5309 3.17156 38.9817 3.72074C38.4325 4.26984 38.4325 5.16027 38.9817 5.70946C47.2427 13.9704 47.2427 27.412 38.9817 35.673C38.4325 36.2222 38.4325 37.1126 38.9817 37.6617C39.2563 37.9363 39.6162 38.0736 39.9761 38.0736C40.336 38.0736 40.6959 37.9362 40.9704 37.6617C45.5034 33.1287 47.9998 27.1018 47.9998 20.6912C47.9999 14.2807 45.5034 8.25383 40.9704 3.72074Z" fill="#C4C4C4"/>
</g>
<defs>
<clipPath id="clip0">
<rect width="48" height="48" fill="white"/>
</clipPath>
</defs>
</svg>
