<svg width="41" height="41" viewBox="0 0 41 41" fill="none" xmlns="http://www.w3.org/2000/svg">
<path d="M41.0004 10.4697V39.3217C41.0004 40.2044 40.2847 40.9201 39.402 40.9201H1.67852C0.795778 40.9201 0.0800781 40.2044 0.0800781 39.3217V1.59822C0.0800781 0.71548 0.795778 -0.000220403 1.67852 -0.000220403C2.56125 -0.000220403 3.27695 0.71548 3.27695 1.59822V23.1005L5.48349 20.8502C6.10159 20.2199 7.11352 20.2099 7.74382 20.828C8.37413 21.4461 8.38414 22.4583 7.76603 23.0886L3.27695 27.6665V37.7232H6.39406V29.8108C6.39406 28.9281 7.10976 28.2124 7.9925 28.2124C8.87524 28.2124 9.59094 28.9281 9.59094 29.8108V37.7232H12.628V23.1114C12.628 22.2231 13.3521 21.5052 14.2405 21.513C15.1176 21.5208 15.8245 22.234 15.8245 23.1114V37.7232H18.8616V23.0974C18.8616 22.2199 19.5688 21.5068 20.4459 21.4989C21.3343 21.4911 22.0584 22.209 22.0584 23.0974V37.7232H25.1756V22.6976C25.1756 21.8171 25.8875 21.1026 26.768 21.0992C27.6533 21.096 28.3724 21.8127 28.3724 22.6976V37.7232H31.4895V16.9432C31.4895 16.0627 32.2015 15.3482 33.082 15.3448C33.967 15.3417 34.6864 16.0583 34.6864 16.9432V37.7232H37.8032V10.4697C37.8032 9.58916 38.5155 8.8744 39.3957 8.87127C40.2809 8.86783 41.0004 9.58447 41.0004 10.4697ZM12.9317 17.7012L15.2752 15.3423C15.2796 15.3379 15.284 15.3335 15.2881 15.3291C15.6193 14.9882 16.0488 14.7855 16.4392 14.7855H16.4483C16.8208 14.7883 17.2381 14.9854 17.565 15.3126L19.4443 17.1919C20.3436 18.0909 21.5157 18.5986 22.7457 18.6214C22.7735 18.6221 22.8017 18.6224 22.8298 18.6224C24.0804 18.6224 25.3141 18.1037 26.226 17.1919C26.2291 17.1888 26.2322 17.1856 26.2353 17.1825L40.5415 2.63924C41.1606 2.01018 41.1521 0.997943 40.5227 0.3789C39.8934 -0.240143 38.8815 -0.23201 38.2624 0.397356L23.9616 14.935C23.6472 15.2478 23.2368 15.4255 22.8308 15.4255C22.8223 15.4255 22.8136 15.4255 22.8051 15.4252C22.4125 15.418 22.0115 15.2378 21.705 14.9313L19.8256 13.0519C18.9057 12.132 17.6842 11.5986 16.4745 11.5886C16.4627 11.5886 16.4511 11.5886 16.4392 11.5886C15.1867 11.5886 13.9361 12.136 13.0018 13.0948L10.6639 15.448C10.0417 16.0743 10.0448 17.0865 10.6711 17.7087C11.2973 18.3308 12.3095 18.3274 12.9317 17.7012Z" fill="#F6F6F6"/>
</svg>
