<svg width="24" height="23" viewBox="0 0 24 23" fill="none" xmlns="http://www.w3.org/2000/svg">
<path d="M16.8503 0H7.14973C3.20735 0 0 3.07371 0 6.85182V16.1482C0 19.9263 3.20735 23 7.14973 23H16.8503C20.7926 23 24 19.9263 24 16.1482V6.85182C24 3.07371 20.7926 0 16.8503 0ZM21.5856 16.1482C21.5856 18.6544 19.4655 20.6862 16.8503 20.6862H7.14973C4.5345 20.6862 2.4144 18.6544 2.4144 16.1482V6.85182C2.4144 4.34552 4.5345 2.3138 7.14973 2.3138H16.8503C19.4655 2.3138 21.5856 4.34552 21.5856 6.85182V16.1482Z" fill="#C4C4C4"/>
<path d="M12 5.55127C8.57729 5.55127 5.79272 8.21981 5.79272 11.4998C5.79272 14.7799 8.57729 17.4485 12 17.4485C15.4227 17.4485 18.2072 14.7799 18.2072 11.4998C18.2072 8.21977 15.4227 5.55127 12 5.55127ZM12 15.1347C9.90522 15.1347 8.20712 13.5074 8.20712 11.4999C8.20712 9.49242 9.90527 7.86507 12 7.86507C14.0947 7.86507 15.7928 9.49242 15.7928 11.4999C15.7928 13.5073 14.0947 15.1347 12 15.1347Z" fill="#C4C4C4"/>
<path d="M18.2193 7.02148C19.0408 7.02148 19.7067 6.3833 19.7067 5.59607C19.7067 4.80883 19.0408 4.17065 18.2193 4.17065C17.3979 4.17065 16.7319 4.80883 16.7319 5.59607C16.7319 6.3833 17.3979 7.02148 18.2193 7.02148Z" fill="#C4C4C4"/>
</svg>
