<svg width="50" height="66" viewBox="0 0 50 66" fill="none" xmlns="http://www.w3.org/2000/svg">
<path d="M23.3793 18.474C22.2763 16.475 19.685 16.2889 16.9866 16.9322C15.6908 17.2427 14.4449 17.7325 13.285 18.3876C9.89551 20.3234 5.93359 18.4766 5.93359 18.4766C7.88747 22.4475 10.3841 27.713 18.8729 26.7646C19.4354 26.6947 20.0028 26.6724 20.569 26.6982C21.7895 29.843 23.0228 33.2789 23.3224 38.5146C23.3397 38.8159 23.3186 38.5207 23.3397 38.8159C23.0707 38.7423 22.8294 38.9589 22.5645 38.8906C22.8456 42.0001 24.9499 56.0484 39.7814 58.7698C37.1674 60.9449 34.1151 62.5326 30.8319 63.4252C34.1276 62.5355 37.194 60.9509 39.8246 58.7782C42.4552 56.6054 44.5889 53.895 46.082 50.8294C46.8539 49.2369 47.4438 47.5628 47.8405 45.8385C47.9916 45.1854 48.1177 44.5231 48.2133 43.8507C48.2569 43.5451 48.2992 43.2391 48.3309 42.9299C48.4138 42.1203 48.4554 41.3071 48.4554 40.4933C48.4554 40.3718 48.448 40.252 48.4461 40.1308C48.4147 40.1502 48.3812 40.169 48.3493 40.1883C48.3823 37.0974 47.815 34.0294 46.6789 31.1539C44.1576 24.7675 39.5762 20.2255 33.6514 17.8205C37.8699 11.7745 34.8772 7.26662 32.6914 3.71045C32.6914 3.71045 32.3282 8.03339 28.872 9.84815C26.3902 11.1511 23.878 13.5326 23.2581 15.8693C23.0147 16.7869 22.7816 17.4121 23.2427 18.2477" fill="url(#paint0_linear)"/>
<path d="M10.5417 36.926C8.33503 36.7752 5.43008 37.5812 3.46978 37.5781C2.81775 37.5771 2.19524 37.5915 1.57041 37.6047C0.689741 42.2562 1.47305 47.0688 3.78363 51.2025C4.20523 51.9516 4.67099 52.6751 5.17846 53.3691C5.6148 53.9669 6.0961 54.5628 6.62238 55.1569C7.76794 56.4355 9.02701 57.608 10.3842 58.6601C11.1154 59.2317 11.9024 59.7951 12.7452 60.3504C14.3237 61.3684 15.9645 62.2866 17.658 63.0998C17.8422 63.1186 18.0224 63.1448 18.2076 63.1619C18.7639 63.2142 19.3246 63.2576 19.888 63.2949C21.0471 63.3666 22.5228 64.6433 23.3126 63.7571C23.4911 63.5568 23.4111 64.0242 23.5786 64.0227C24.5488 64.0114 26.0854 64.0785 27.0374 64.0227C10.5389 56.1903 9.52299 43.701 10.5417 36.926Z" fill="url(#paint1_linear)"/>
<path d="M23.3515 37.6233C23.0395 37.5429 22.2886 38.593 21.9824 38.5199C21.0046 38.2868 20.2359 38.147 19.3218 37.9886C19.2708 37.9796 18.3084 37.4662 18.2576 37.4573C17.299 37.2946 9.84219 37.2876 8.94553 37.1917C8.29483 43.9666 12.1382 57.647 24.9091 64.2883C26.0496 64.1838 29.146 63.5943 30.234 63.3334C30.4016 63.2924 30.5679 63.0476 30.7342 63.003C33.9784 62.1299 37.3905 60.1753 39.9082 58.0933C25.475 55.4449 23.6251 40.6494 23.3515 37.6233Z" fill="#D8D8D8"/>
<path d="M49.4611 40.3074C49.4611 40.2948 49.4599 40.2826 49.4599 40.2702C49.459 39.8299 49.4429 39.3934 49.418 38.9591C49.4161 38.9235 49.4166 38.8872 49.4146 38.8517C49.4105 38.7829 49.4035 38.7149 49.3989 38.6462C49.3947 38.5838 49.3866 38.5227 49.382 38.4605C49.37 38.3043 49.3627 38.1467 49.348 37.9911C49.3384 37.8882 49.3223 37.7872 49.3114 37.6847C49.2914 37.4942 49.2679 37.3047 49.2434 37.1156C49.2172 36.9143 49.1899 36.7135 49.1589 36.5139C49.1459 36.4297 49.1373 36.3443 49.1233 36.2603C49.1035 36.1403 49.0767 36.0226 49.0545 35.9034C49.0328 35.7839 49.0164 35.6627 48.993 35.5439C48.9751 35.4525 48.9522 35.3628 48.9328 35.2719C48.9295 35.2565 48.926 35.2411 48.9226 35.2257C48.874 34.999 48.8265 34.7719 48.7724 34.5473C48.7479 34.4454 48.7169 34.3461 48.6912 34.2446C48.4115 33.0176 48.0403 31.8132 47.5806 30.6415C45.3118 24.846 40.942 20.1152 35.3397 17.3894C38.6841 11.2534 35.8093 6.57589 34.0357 3.69049L31.7673 0L31.2119 4.30538C31.1994 4.39171 30.6887 7.75637 28.1206 9.10481C25.7869 10.3302 22.7909 12.8068 21.9235 15.7944C21.921 15.8029 21.9174 15.8112 21.915 15.8199C21.8925 15.8132 21.8682 15.8087 21.8455 15.8022C21.1447 15.607 20.4199 15.5108 19.6924 15.5166C18.7541 15.5243 17.82 15.6415 16.909 15.8657C15.5067 16.2005 14.1587 16.7309 12.9046 17.4411C12.0891 17.8913 11.1691 18.1189 10.2374 18.101C9.17599 18.0896 8.12656 17.8752 7.14588 17.4695L3.18639 15.6236L5.13084 19.5751C5.69171 20.7802 6.34871 21.9384 7.09549 23.0383C7.39849 23.4693 7.72622 23.8824 8.07704 24.2756C9.91541 26.3272 12.6679 28.0311 17.0943 28.0311C17.8434 28.029 18.5917 27.9854 19.3359 27.9007C19.5579 27.8759 19.78 27.8573 20.0003 27.8452C20.7632 30.1567 21.2891 32.5396 21.5699 34.9572C21.6397 35.5122 21.7039 36.0743 21.7564 36.6512C18.6896 35.8596 15.5459 35.4019 12.3804 35.2861C8.81066 35.1288 5.24223 35.6249 1.85128 36.7498L1.85045 36.7571C1.27317 36.9342 0.722149 37.1219 0.188716 37.3165C0.185311 37.3448 0.180401 37.3726 0.177072 37.401C0.0801137 38.2311 0.0251177 39.0656 0.0122936 39.9012C0.0113676 39.958 0.00655937 40.0138 0.00600784 40.0705C0.00526226 40.1498 0 40.228 0 40.3074C0 41.0921 0.0409574 41.8674 0.112993 42.6336C0.190154 43.4548 0.30863 44.2716 0.467975 45.0808C0.534002 45.4159 0.609174 45.7473 0.688588 46.0774C1.69386 50.2868 3.79127 54.1577 6.76995 57.3011C9.74863 60.4445 13.5036 62.7495 17.6574 63.9845C21.8112 65.2194 26.2173 65.3407 30.433 64.3362C34.6486 63.3317 38.5251 61.2369 41.6727 58.2622C42.2766 57.6933 42.8538 57.0964 43.3984 56.4701L43.4034 56.4802C43.6237 56.2265 43.8378 55.9673 44.048 55.7047C44.0977 55.6426 44.1453 55.5788 44.1945 55.5161C44.4496 55.191 44.6967 54.8597 44.936 54.5223C44.9772 54.4641 45.0203 54.4074 45.061 54.3488C45.3057 53.9963 45.5386 53.635 45.7651 53.2695C45.8036 53.2075 45.8467 53.1485 45.8847 53.0861C45.9211 53.0263 45.9539 52.9641 45.9899 52.9038C46.0715 52.7669 46.15 52.6279 46.2291 52.4892C46.3186 52.3322 46.4098 52.1762 46.496 52.0172C46.6439 51.7437 46.7868 51.4673 46.9247 51.1879C46.99 51.0552 47.0509 50.9202 47.1139 50.7862C47.2008 50.6018 47.2869 50.4171 47.3694 50.2304C47.4257 50.1025 47.4797 49.9736 47.5339 49.8446C47.6216 49.6362 47.7065 49.4263 47.7886 49.215C47.8305 49.107 47.8725 48.9992 47.9128 48.8904C48.0158 48.6138 48.1138 48.3349 48.2068 48.0536C48.2221 48.0077 48.2386 47.9624 48.2536 47.9163C48.4824 47.2121 48.6793 46.4946 48.8443 45.7637C48.8524 45.728 48.8597 45.6921 48.8676 45.6564C48.9397 45.3317 49.0051 45.0047 49.064 44.6753C49.0692 44.6461 49.0763 44.6174 49.0815 44.588C49.0864 44.5603 49.0894 44.5321 49.0942 44.5044C49.1443 44.2137 49.189 43.9212 49.2285 43.627C49.2334 43.5908 49.2403 43.5552 49.2451 43.5189C49.2482 43.4949 49.2503 43.4705 49.2534 43.4464C49.2629 43.3718 49.2752 43.2984 49.2841 43.2237C49.2926 43.1511 49.2961 43.0771 49.3041 43.0044C49.3437 42.6545 49.3759 42.3025 49.4007 41.9484C49.4022 41.925 49.4045 41.9018 49.406 41.8784C49.4112 41.7968 49.4201 41.7163 49.4245 41.6345C49.442 41.3044 49.4472 40.9711 49.452 40.6377C49.4524 40.6097 49.4549 40.5822 49.4552 40.5541C49.4559 40.4749 49.4612 40.3967 49.4612 40.3173L49.461 40.3121L49.4611 40.3074ZM21.0658 26.2811C20.9204 26.2759 20.7725 26.2733 20.6221 26.2733C20.1361 26.2736 19.6506 26.3011 19.1676 26.3555C18.4793 26.4343 17.7871 26.4747 17.0943 26.4767C13.2052 26.4767 10.8361 25.0699 9.18758 23.1993C8.84183 22.8056 8.52125 22.3905 8.22776 21.9565C7.58254 20.9728 7.00667 19.9454 6.50434 18.8818C7.68577 19.3819 8.95428 19.6448 10.2374 19.6554C10.606 19.655 10.974 19.6283 11.3387 19.5757C12.1545 19.4648 12.9418 19.1999 13.6584 18.7952C14.7872 18.1578 15.9996 17.681 17.2606 17.3788C18.0565 17.1826 18.8726 17.0793 19.6924 17.071C20.3836 17.062 21.0712 17.1721 21.7249 17.3966C22.5249 17.6568 23.1986 18.2062 23.6136 18.9371L23.7224 19.1341C23.6845 19.0654 23.6482 18.9998 23.6137 18.9371C23.3305 18.4214 23.1963 17.8373 23.2258 17.25C23.2382 16.944 23.2845 16.6404 23.3637 16.3445C23.4277 16.1119 23.5076 15.8839 23.6028 15.6621C24.4604 13.6177 26.6533 11.6263 28.8268 10.485C32.1903 8.71897 32.7329 4.5121 32.7329 4.5121C34.7625 7.81398 36.983 11.8156 33.6174 17.2862C33.4555 17.5492 33.2852 17.8146 33.0968 18.0845C38.2432 20.1596 42.4885 23.9854 45.0816 28.8851C45.1259 28.9708 45.1698 29.0568 45.2132 29.1433C45.3286 29.3688 45.4398 29.5977 45.5484 29.8283C46.5262 31.9803 47.2058 34.2553 47.5686 36.5905C47.5664 36.575 47.5652 36.5596 47.563 36.5442C47.6085 36.8195 47.646 37.0974 47.6827 37.3754L47.6634 37.3878C44.4892 39.4984 38.9979 41.1624 29.8664 38.9826C28.5579 38.6702 27.1747 38.2791 25.7128 37.7988C24.8991 37.5315 24.1086 37.2955 23.3304 37.0756C23.2824 36.4787 23.2249 35.9011 23.1609 35.3369C22.8528 32.2413 22.1487 29.1979 21.0658 26.2811ZM47.8608 41.2494C47.8439 41.6714 47.8149 42.0903 47.7765 42.5065C47.774 42.5329 47.7729 42.5598 47.7704 42.5862C47.7289 43.0194 47.6754 43.449 47.6097 43.8749C47.5565 44.2178 47.484 44.5541 47.4157 44.8918C47.3189 45.3711 47.2072 45.8447 47.0805 46.3124L47.0768 46.3268C46.95 46.7955 46.809 47.2582 46.6538 47.7151C46.6114 47.8406 46.5713 47.9671 46.5268 48.0917L46.5257 48.095C46.429 48.3644 46.3248 48.6297 46.2184 48.8944C46.1445 49.0783 46.0697 49.2615 45.9913 49.4429C45.8881 49.6815 45.782 49.9181 45.6711 50.1524V50.1525C45.5232 50.4651 45.3729 50.7765 45.2116 51.0814L45.2108 51.0827C45.1467 51.2039 45.0785 51.3224 45.0122 51.4424C44.92 51.6091 44.8218 51.772 44.7257 51.9362C44.654 52.0591 44.5856 52.1841 44.5115 52.3054C44.4163 52.4614 44.3187 52.6152 44.2201 52.7687C44.0545 53.026 43.884 53.2797 43.7086 53.5301C43.5904 53.6987 43.4701 53.8657 43.3477 54.0308C43.2696 54.1364 43.1872 54.2386 43.1072 54.3427C43.01 54.4692 42.9147 54.5973 42.8149 54.7217C41.995 55.7435 41.0905 56.6946 40.1109 57.5649L40.1001 57.5744C39.8916 57.7596 39.6584 57.9153 39.4434 58.0931C35.9135 61.1087 31.5155 62.9267 26.8837 63.2849C26.2474 63.3432 25.6136 63.412 24.9637 63.4185C24.8855 63.4193 24.8088 63.4258 24.7304 63.4258C23.5107 63.4208 22.2933 63.3191 21.0897 63.1215L21.0896 63.1216L21.0896 63.1215C19.5974 62.889 18.1318 62.5104 16.7138 61.9913L16.6092 61.9483C15.7106 61.6076 14.8343 61.2114 13.9851 60.7618C13.8262 60.6782 13.6678 60.5942 13.511 60.5071C9.29784 58.1698 5.91497 54.5845 3.82919 50.246C2.58221 47.6316 1.83923 44.8063 1.63907 41.9175C1.60218 41.3848 1.57657 40.8491 1.57657 40.3074C1.57657 39.9948 1.58794 39.6849 1.60023 39.3753C2.62446 38.9897 3.67281 38.6712 4.73859 38.4219C4.81561 38.403 4.89061 38.3836 4.96874 38.3654C5.24975 38.2995 5.50237 38.2213 5.79688 38.1621L5.84819 38.1507C7.47679 37.8345 9.12857 37.6518 10.787 37.6045H10.7871C11.1862 37.5913 11.5838 37.5769 12.0003 37.5779C13.339 37.5883 14.6762 37.6678 16.0066 37.8163C17.9979 38.0294 19.9731 38.373 21.9192 38.8448C22.1795 38.9077 22.4484 38.9815 22.7132 39.0501C22.9704 39.1167 23.2233 39.178 23.4841 39.2493C24.409 39.5022 25.3566 39.7844 26.3324 40.105C27.6001 40.5214 28.8056 40.8678 29.9575 41.157C38.9369 43.4113 44.4794 42.0013 47.7838 40.0091C47.814 39.9908 47.8456 39.973 47.8755 39.9546C47.8771 40.0539 47.8814 40.1525 47.8831 40.2518V40.2522C47.8832 40.2721 47.8844 40.2918 47.8844 40.3117V40.3119L47.8845 40.3173C47.8844 40.63 47.8732 40.9398 47.8608 41.2494Z" fill="#170D35"/>
<defs>
<linearGradient id="paint0_linear" x1="29.0018" y1="-7.96455" x2="66.514" y2="75.2682" gradientUnits="userSpaceOnUse">
<stop stop-color="#C800FF"/>
<stop offset="1" stop-color="#2A00FF"/>
</linearGradient>
<linearGradient id="paint1_linear" x1="1751.12" y1="10692.1" x2="7461.72" y2="10692.1" gradientUnits="userSpaceOnUse">
<stop stop-color="#CCCCCC"/>
<stop offset="1" stop-color="#F2F2F2"/>
</linearGradient>
</defs>
</svg>
