<svg width="46" height="46" viewBox="0 0 46 46" fill="none" xmlns="http://www.w3.org/2000/svg">
<path d="M40.6094 0.898438H5.39062C2.41806 0.898438 0 3.3165 0 6.28906V37.9141C0 40.8866 2.41806 43.3047 5.39062 43.3047H21.3828V39.7109H5.39062C4.39989 39.7109 3.59375 38.9048 3.59375 37.9141V15.2734H42.4062V21.7422H46V6.28906C46 3.3165 43.5819 0.898438 40.6094 0.898438ZM3.59375 11.6797V6.28906C3.59375 5.29832 4.39989 4.49219 5.39062 4.49219H40.6094C41.6001 4.49219 42.4062 5.29832 42.4062 6.28906V11.6797H3.59375ZM9.88281 8.08594C9.88281 9.07843 9.07843 9.88281 8.08594 9.88281C7.09344 9.88281 6.28906 9.07843 6.28906 8.08594C6.28906 7.09344 7.09344 6.28906 8.08594 6.28906C9.07843 6.28906 9.88281 7.09344 9.88281 8.08594ZM16.1719 8.08594C16.1719 9.07843 15.3675 9.88281 14.375 9.88281C13.3825 9.88281 12.5781 9.07843 12.5781 8.08594C12.5781 7.09344 13.3825 6.28906 14.375 6.28906C15.3675 6.28906 16.1719 7.09344 16.1719 8.08594ZM35.2188 23.5391C29.274 23.5391 24.4375 28.3755 24.4375 34.3203C24.4375 40.2651 29.274 45.1016 35.2188 45.1016C41.1635 45.1016 46 40.2651 46 34.3203C46 28.3755 41.1635 23.5391 35.2188 23.5391ZM42.1788 32.5234H40.2124C40.117 31.1277 39.9103 29.805 39.6046 28.6317C40.8505 29.5947 41.7738 30.9554 42.1788 32.5234ZM33.8276 36.1172H36.6099C36.3881 38.8967 35.6873 40.675 35.2188 41.3197C34.7502 40.675 34.0494 38.8967 33.8276 36.1172ZM33.8276 32.5234C34.0494 29.7439 34.7502 27.9656 35.2188 27.3209C35.6873 27.9656 36.3881 29.7439 36.6099 32.5234H33.8276ZM30.8329 28.6317C30.5272 29.805 30.3209 31.1273 30.2251 32.5234H28.2587C28.6637 30.9554 29.587 29.5947 30.8329 28.6317ZM28.2587 36.1172H30.2251C30.3205 37.5129 30.5272 38.8357 30.8329 40.0089C29.587 39.0459 28.6637 37.6852 28.2587 36.1172ZM39.6046 40.0089C39.9103 38.8357 40.1166 37.5133 40.2124 36.1172H42.1788C41.7738 37.6852 40.8505 39.0459 39.6046 40.0089Z" fill="#C4C4C4"/>
</svg>
