<svg width="102" height="102" viewBox="0 0 102 102" fill="none" xmlns="http://www.w3.org/2000/svg">
<rect x="100" y="2" width="98" height="98" rx="49" transform="rotate(90 100 2)" stroke="url(#paint0_linear)" stroke-width="4"/>
<path d="M72 56.4141V45.4219H61.0078V49.3594H56.4961V45.5039H45.5039V49.3594H40.9922V45.4219H37.2188V40.9922H40.9922V30H30V40.9922H33.9375V45.4219H30V56.4141H40.9922V52.6406H45.5039V56.4961H49.3594V61.0078H45.5039V72H56.4961V68.0625H61.0078V72H72V61.0078H61.0078V64.7812H56.4961V61.0078H52.6406V56.4961H56.4961V52.6406H61.0078V56.4141H72ZM33.2812 33.2812H37.7109V37.7109H33.2812V33.2812ZM37.7109 53.1328H33.2812V48.7031H37.7109V53.1328ZM64.2891 64.2891H68.7188V68.7188H64.2891V64.2891ZM53.2148 68.7188H48.7852V64.2891H53.2148V68.7188ZM53.2148 53.2148H48.7852V48.7852H53.2148V53.2148ZM64.2891 48.7031H68.7188V53.1328H64.2891V48.7031Z" fill="url(#paint1_linear)"/>
<defs>
<linearGradient id="paint0_linear" x1="157.335" y1="-19.9423" x2="207.104" y2="135.135" gradientUnits="userSpaceOnUse">
<stop stop-color="#C800FF"/>
<stop offset="1" stop-color="#2A00FF"/>
</linearGradient>
<linearGradient id="paint1_linear" x1="52.7851" y1="21.7885" x2="73.2782" y2="85.6439" gradientUnits="userSpaceOnUse">
<stop stop-color="#C800FF"/>
<stop offset="1" stop-color="#2A00FF"/>
</linearGradient>
</defs>
</svg>
