<svg width="102" height="102" viewBox="0 0 102 102" fill="none" xmlns="http://www.w3.org/2000/svg">
<rect x="100" y="2" width="98" height="98" rx="49" transform="rotate(90 100 2)" stroke="url(#paint0_linear)" stroke-width="4"/>
<path d="M72.9899 61.9533L59.9375 51.3773V69.0804L64.4633 64.8601L68.0804 72.3484L71.1755 70.8532L67.5175 63.28L67.5289 63.2746L72.9899 61.9533ZM63.375 58.587L65.597 60.3877L63.375 61.4481V58.587ZM67.8438 29.6875H34.1562C31.3129 29.6875 29 32.0004 29 34.8438V65.7812C29 68.6246 31.3129 70.9375 34.1562 70.9375H56.4899V67.5H34.1562C33.2086 67.5 32.4375 66.7289 32.4375 65.7812V43.4375H69.5625V54.7554L73 57.5386V34.8438C73 32.0004 70.6871 29.6875 67.8438 29.6875ZM32.4375 40V34.8438C32.4375 33.8961 33.2086 33.125 34.1562 33.125H67.8438C68.7914 33.125 69.5625 33.8961 69.5625 34.8438V40H32.4375ZM38.4531 36.5625C38.4531 37.5118 37.6837 38.2812 36.7344 38.2812C35.785 38.2812 35.0156 37.5118 35.0156 36.5625C35.0156 35.6132 35.785 34.8438 36.7344 34.8438C37.6837 34.8438 38.4531 35.6132 38.4531 36.5625ZM44.4688 36.5625C44.4688 37.5118 43.6993 38.2812 42.75 38.2812C41.8007 38.2812 41.0312 37.5118 41.0312 36.5625C41.0312 35.6132 41.8007 34.8438 42.75 34.8438C43.6993 34.8438 44.4688 35.6132 44.4688 36.5625ZM49.2812 65.7812V63.8456C48.5481 63.5885 47.8734 63.1669 47.303 62.5982C46.3067 61.6046 45.7578 60.2933 45.7578 58.9062V58.2188H49.1953V58.9062C49.1953 59.8788 50.0218 60.7002 51 60.7002C51.9614 60.7002 52.8047 59.8448 52.8047 58.8697C52.8047 58.1197 51.9802 57.6098 50.2303 56.7014L50.2081 56.6897C48.8328 55.9756 46.2734 54.647 46.2734 51.4001C46.2734 49.4444 47.5226 47.77 49.2812 47.0959V45.1562H52.7188V47.0875C53.2958 47.3033 53.8279 47.628 54.2844 48.0516C55.2143 48.9143 55.7266 50.0839 55.7266 51.3438V51.7734H52.2891V51.3438C52.2891 50.6378 51.6335 50.2158 51 50.2158C50.2893 50.2158 49.7109 50.7472 49.7109 51.4001C49.7109 52.3203 50.1389 52.7805 51.7919 53.6389L51.8144 53.6506C52.7745 54.1491 53.7675 54.6648 54.5768 55.3758C55.6819 56.3469 56.2422 57.5222 56.2422 58.8697C56.2422 60.2541 55.6964 61.569 54.7057 62.5714C54.1327 63.1508 53.4549 63.5801 52.7188 63.8416V65.7812H49.2812Z" fill="url(#paint1_linear)"/>
<defs>
<linearGradient id="paint0_linear" x1="157.335" y1="-19.9423" x2="207.104" y2="135.135" gradientUnits="userSpaceOnUse">
<stop stop-color="#C800FF"/>
<stop offset="1" stop-color="#2A00FF"/>
</linearGradient>
<linearGradient id="paint1_linear" x1="52.8701" y1="21.3467" x2="73.1658" y2="86.5721" gradientUnits="userSpaceOnUse">
<stop stop-color="#C800FF"/>
<stop offset="1" stop-color="#2A00FF"/>
</linearGradient>
</defs>
</svg>
