<svg width="102" height="102" viewBox="0 0 102 102" fill="none" xmlns="http://www.w3.org/2000/svg">
<rect x="100" y="2" width="98" height="98" rx="49" transform="rotate(90 100 2)" stroke="url(#paint0_linear)" stroke-width="4"/>
<path d="M68.6094 29.7969H33.3906C30.4181 29.7969 28 32.2149 28 35.1875V66.8125C28 69.7851 30.4181 72.2031 33.3906 72.2031H68.6094C71.5819 72.2031 74 69.7851 74 66.8125V35.1875C74 32.2149 71.5819 29.7969 68.6094 29.7969ZM33.3906 33.3906H68.6094C69.6001 33.3906 70.4062 34.1968 70.4062 35.1875V40.5781H31.5938V35.1875C31.5938 34.1968 32.3999 33.3906 33.3906 33.3906ZM68.6094 68.6094H33.3906C32.3999 68.6094 31.5938 67.8032 31.5938 66.8125V44.1719H70.4062V66.8125C70.4062 67.8032 69.6001 68.6094 68.6094 68.6094ZM49.2031 47.5859H52.7969V51.1797H49.2031V47.5859ZM49.2031 54.9531H52.7969V58.5469H49.2031V54.9531ZM49.2031 62.3203H52.7969V65.9141H49.2031V62.3203ZM34.2891 36.9844C34.2891 35.9919 35.0934 35.1875 36.0859 35.1875C37.0784 35.1875 37.8828 35.9919 37.8828 36.9844C37.8828 37.9769 37.0784 38.7812 36.0859 38.7812C35.0934 38.7812 34.2891 37.9769 34.2891 36.9844ZM40.5781 36.9844C40.5781 35.9919 41.3825 35.1875 42.375 35.1875C43.3675 35.1875 44.1719 35.9919 44.1719 36.9844C44.1719 37.9769 43.3675 38.7812 42.375 38.7812C41.3825 38.7812 40.5781 37.9769 40.5781 36.9844Z" fill="url(#paint1_linear)"/>
<defs>
<linearGradient id="paint0_linear" x1="157.335" y1="-19.9423" x2="207.104" y2="135.135" gradientUnits="userSpaceOnUse">
<stop stop-color="#C800FF"/>
<stop offset="1" stop-color="#2A00FF"/>
</linearGradient>
<linearGradient id="paint1_linear" x1="52.9551" y1="21.5059" x2="72.3012" y2="86.8958" gradientUnits="userSpaceOnUse">
<stop stop-color="#C800FF"/>
<stop offset="1" stop-color="#2A00FF"/>
</linearGradient>
</defs>
</svg>
