<svg width="46" height="46" viewBox="0 0 46 46" fill="none" xmlns="http://www.w3.org/2000/svg">
<path d="M45.8014 28.6686C45.1265 34.0322 42.8289 38.964 39.1573 42.9319C39.1545 42.9343 39.152 42.9371 39.1495 42.9399L36.8154 45.4313C36.4616 45.8089 35.9829 45.9998 35.5035 45.9998C35.0631 45.9998 34.622 45.8388 34.2752 45.5141C33.5512 44.8354 33.514 43.6983 34.1927 42.974L36.5234 40.4865C39.6798 37.0738 41.6553 32.8323 42.2358 28.2201C42.3597 27.2357 43.2581 26.5377 44.2428 26.6616C45.2276 26.7854 45.9253 27.6842 45.8014 28.6686ZM38.8151 26.797L38.8242 9.94134C38.8242 9.92344 38.8239 9.90554 38.8235 9.88764C38.8095 9.41316 38.9783 8.96711 39.298 8.63125C39.6216 8.29188 40.0669 8.09746 40.5519 8.08307C41.0404 8.06903 41.5012 8.23854 41.849 8.56071C42.1859 8.8727 42.3811 9.29805 42.4 9.7606L42.4021 19.4948C42.4021 20.487 43.2068 21.2913 44.199 21.2913H44.1993C45.1918 21.2913 45.9962 20.4866 45.9958 19.4941L45.9941 9.72937C45.9941 9.71217 45.9937 9.69462 45.993 9.67708C45.9509 8.23468 45.3466 6.90178 44.2916 5.92439C43.2483 4.95788 41.8827 4.44865 40.447 4.49077C39.0095 4.53288 37.6777 5.12247 36.6968 6.15145C35.7159 7.18043 35.1958 8.53334 35.2302 9.9638L35.2238 22.0459C33.2585 21.3598 30.9826 21.8487 29.4778 23.4749L23.0621 30.4599L16.5359 23.47C15.0331 21.8458 12.7551 21.3584 10.7887 22.048L10.7824 9.9638C10.8168 8.52597 10.2704 7.16429 9.2421 6.12653C8.23839 5.1137 6.89777 4.53253 5.46695 4.49077C4.0235 4.4483 2.66709 4.96525 1.64478 5.94544C0.632995 6.91546 0.0525273 8.241 0.0104136 9.67708C0.0097117 9.69462 0.0097117 9.71217 0.0097117 9.72972L0.0069041 24.897C-0.140494 31.6643 2.25613 38.0688 6.75669 42.9319C6.75914 42.9347 6.7616 42.9371 6.76406 42.9399L9.09856 45.4313C9.45232 45.8089 9.93066 45.9998 10.4101 45.9998C10.8505 45.9998 11.292 45.8388 11.6384 45.5141C12.3627 44.8358 12.3996 43.6983 11.7212 42.9743L9.39055 40.4868C5.52486 36.3077 3.46866 30.7933 3.60026 24.9574C3.60061 24.944 3.60096 24.9307 3.60096 24.9173L3.60342 9.7606C3.62272 9.28156 3.80978 8.84849 4.13195 8.54C4.35936 8.32171 4.75699 8.06447 5.36167 8.08342C5.85896 8.09781 6.34292 8.30662 6.68931 8.65652C7.02516 8.99518 7.20274 9.43282 7.18941 9.88799C7.1887 9.90589 7.18835 9.92379 7.18835 9.94169L7.19748 26.8848C7.18765 27.0939 7.19081 27.3038 7.20555 27.5126C7.2066 27.5277 7.2073 27.5431 7.20906 27.5582C7.30031 28.7248 7.76812 29.8699 8.62268 30.7933C8.62584 30.7964 8.62864 30.7996 8.63145 30.8027L14.773 37.3465C15.4525 38.0702 16.5895 38.106 17.3132 37.4269C18.0369 36.7478 18.073 35.6104 17.3936 34.8867L11.2572 28.3489C10.9775 28.045 10.8242 27.6695 10.7915 27.2866V26.9834C10.827 26.551 11.0161 26.1302 11.3587 25.813C12.0862 25.1402 13.2254 25.1841 13.9034 25.9172L23.0874 35.7536C23.8391 36.5664 24.2297 37.6227 24.1872 38.7289C24.1444 39.8347 23.6734 40.8581 22.8606 41.6102L21.4842 42.8841C20.7557 43.5583 20.7118 44.695 21.386 45.4236C21.7401 45.8061 22.2219 46.0002 22.7052 46.0002C23.1417 46.0002 23.5797 45.8419 23.9254 45.5219L25.3022 44.2476C28.4337 41.3498 28.6232 36.4442 25.7198 33.3071L25.5219 33.0951L32.1201 25.9116C32.7932 25.1844 33.9323 25.1402 34.6595 25.8133C34.9747 26.1046 35.1701 26.4906 35.2214 26.9118L35.221 27.3487C35.1765 27.7221 35.0182 28.071 34.7578 28.3524C34.7504 28.3608 34.7427 28.3689 34.7353 28.3773L30.8247 32.7645C30.1646 33.5054 30.2298 34.6414 30.9707 35.3019C31.3132 35.6072 31.7403 35.7571 32.1657 35.7571C32.6602 35.7571 33.1529 35.5542 33.5077 35.1559L37.4078 30.7799C38.4396 29.6576 38.9028 28.2113 38.8151 26.797ZM13.9273 13.1146V6.28727C13.9273 4.9105 14.6951 3.67692 15.9312 3.06802L21.4116 0.367828C22.4072 -0.122447 23.5962 -0.122447 24.5919 0.367828L30.0723 3.06802C31.3083 3.67692 32.0765 4.9105 32.0765 6.28727V13.1143C32.0765 14.4907 31.3087 15.7243 30.0726 16.3335L24.5922 19.034C24.0942 19.2794 23.5481 19.4022 23.0017 19.4022C22.4553 19.4022 21.9092 19.2794 21.4112 19.034L15.9312 16.3335C14.6951 15.7246 13.9273 14.491 13.9273 13.1146ZM17.521 13.1146L21.2049 14.9273V9.89256L17.521 8.13185V13.1146ZM28.4839 13.11L28.4828 8.13431L24.7989 9.89291V14.9244L28.4839 13.11ZM19.7295 5.20389L23.0021 6.76807L26.2796 5.20354L23.0038 3.59199L19.7295 5.20389Z" fill="#C4C4C4"/>
</svg>
