<svg width="74" height="74" viewBox="0 0 74 74" fill="none" xmlns="http://www.w3.org/2000/svg">
<path d="M1.63209 64.4825L15.0301 51.0844C14.6619 50.5238 14.724 49.7632 15.217 49.2702C15.7099 48.7774 16.4707 48.7151 17.0312 49.0834L20.6064 45.5081C17.9342 41.5411 16.252 36.9464 15.7654 32.1541C15.0989 25.5907 16.686 18.9375 20.2343 13.4197C20.666 12.7484 21.5602 12.5543 22.2314 12.9858C22.9026 13.4175 23.0969 14.3118 22.6653 14.983C16.0297 25.3013 17.52 39.0971 26.2088 47.7859C36.4633 58.0404 53.1485 58.0404 63.4032 47.7859C73.6576 37.5316 73.6576 20.8463 63.4032 10.5917C54.7051 1.89363 41.3486 0.35278 30.9226 6.84382C30.2454 7.26542 29.354 7.05845 28.9322 6.38089C28.5103 5.70347 28.7177 4.81229 29.3951 4.3904C34.8971 0.965013 41.4951 -0.533776 47.9749 0.169658C54.5535 0.884076 60.7584 3.85969 65.447 8.54799C76.8282 19.9294 76.8282 38.4483 65.447 49.8296C59.7562 55.5204 52.2812 58.3656 44.806 58.3656C39.1111 58.3656 33.4172 56.7122 28.5114 53.4093L24.9541 56.9667C25.4886 57.533 25.48 58.4249 24.9259 58.9791C24.6436 59.2614 24.2739 59.4025 23.9041 59.4025C23.5474 59.4025 23.1915 59.2699 22.9134 59.0075L9.53519 72.3857C8.45844 73.4625 7.0429 74 5.62346 74C4.19101 74 2.75452 73.4521 1.65998 72.3575C-0.518684 70.1786 -0.531403 66.6458 1.63209 64.4825ZM25.5295 52.3042L21.7135 48.4883L19.0961 51.1058L22.912 54.9217L25.5295 52.3042ZM3.7038 70.3139C4.75598 71.3659 6.45509 71.3786 7.49152 70.3419L20.8683 56.9651L17.0524 53.1492L3.67575 66.526C2.63918 67.5627 2.65176 69.2618 3.7038 70.3139Z" fill="#F6F6F6"/>
</svg>
