<svg width="74" height="74" viewBox="0 0 74 74" fill="none" xmlns="http://www.w3.org/2000/svg">
<path d="M1.63209 64.4825L15.0301 51.0844C14.6619 50.5238 14.724 49.7632 15.217 49.2702C15.7099 48.7774 16.4707 48.7151 17.0312 49.0834L20.6064 45.5081C17.9342 41.5411 16.252 36.9464 15.7654 32.1541C15.0989 25.5907 16.686 18.9375 20.2343 13.4197C20.666 12.7484 21.5602 12.5543 22.2314 12.9858C22.9026 13.4175 23.0969 14.3118 22.6653 14.983C16.0297 25.3013 17.52 39.0971 26.2088 47.7859C36.4633 58.0404 53.1485 58.0404 63.4032 47.7859C73.6576 37.5316 73.6576 20.8463 63.4032 10.5917C54.7051 1.89363 41.3486 0.35278 30.9226 6.84382C30.2454 7.26542 29.354 7.05845 28.9322 6.38089C28.5103 5.70347 28.7177 4.81229 29.3951 4.3904C34.8971 0.965013 41.4951 -0.533776 47.9749 0.169658C54.5535 0.884076 60.7584 3.85969 65.447 8.54799C76.8282 19.9294 76.8282 38.4483 65.447 49.8296C59.7562 55.5204 52.2812 58.3656 44.806 58.3656C39.1111 58.3656 33.4172 56.7122 28.5114 53.4093L24.9541 56.9667C25.4886 57.533 25.48 58.4249 24.9259 58.9791C24.6436 59.2614 24.2739 59.4025 23.9041 59.4025C23.5474 59.4025 23.1915 59.2699 22.9134 59.0075L9.53519 72.3857C8.45844 73.4625 7.0429 74 5.62346 74C4.19101 74 2.75452 73.4521 1.65998 72.3575C-0.518684 70.1786 -0.531403 66.6458 1.63209 64.4825ZM25.5295 52.3042L21.7135 48.4883L19.0961 51.1058L22.912 54.9217L25.5295 52.3042ZM3.7038 70.3139C4.75598 71.3659 6.45509 71.3786 7.49152 70.3419L20.8683 56.9651L17.0524 53.1492L3.67575 66.526C2.63918 67.5627 2.65176 69.2618 3.7038 70.3139Z" fill="#F6F6F6"/>
<path d="M24.1305 8.58242L24.1618 8.55106C24.7243 7.98507 25.6394 7.98233 26.2055 8.54484C26.7715 9.10736 26.7744 10.0224 26.2117 10.5885L26.1741 10.6262C25.8919 10.9085 25.5221 11.0496 25.1523 11.0496C24.7824 11.0496 24.4126 10.9085 24.1305 10.6262C23.5662 10.062 23.5662 9.14696 24.1305 8.58242Z" fill="#F6F6F6"/>
<path d="M44.8059 6.93481C57.0769 6.93481 67.0601 16.918 67.0601 29.189C67.0601 41.46 57.0769 51.4432 44.8059 51.4432C32.5349 51.4432 22.5517 41.46 22.5517 29.189C22.5517 16.918 32.5349 6.93481 44.8059 6.93481ZM44.8059 48.553C55.4833 48.553 64.1699 39.8664 64.1699 29.189C64.1699 18.5116 55.4833 9.82501 44.8059 9.82501C34.1285 9.82501 25.4419 18.5116 25.4419 29.189C25.4419 39.8664 34.1285 48.553 44.8059 48.553Z" fill="#F6F6F6"/>
<path d="M39.3063 27.3111C38.4061 26.1409 37.869 24.6777 37.869 23.0906V21.1978C37.869 17.3731 40.9807 14.2615 44.8054 14.2615C48.6301 14.2615 51.7417 17.3731 51.7417 21.1978V23.0906C51.7417 24.6777 51.2048 26.1411 50.3045 27.3111C54.9006 28.1778 58.3892 32.2202 58.3892 37.0646V37.8113C58.3892 38.6094 57.7422 39.2563 56.9441 39.2563H32.6669C31.8688 39.2563 31.2219 38.6094 31.2219 37.8113V37.0646C31.2216 32.2203 34.7102 28.178 39.3063 27.3111ZM48.8515 21.1978C48.8515 18.9668 47.0364 17.1517 44.8054 17.1517C42.5744 17.1517 40.7592 18.9668 40.7592 21.1978V23.0906C40.7592 25.3216 42.5744 27.1368 44.8054 27.1368C47.0364 27.1368 48.8515 25.3216 48.8515 23.0906V21.1978ZM55.4646 36.3661C55.1128 32.8122 52.1062 30.0269 48.4613 30.0269H41.1493C37.5044 30.0269 34.4979 32.8122 34.1461 36.3661H55.4646Z" fill="#F6F6F6"/>
</svg>
