<svg width="28" height="28" viewBox="0 0 28 28" fill="none" xmlns="http://www.w3.org/2000/svg">
<path d="M20.4277 28C20.4072 28 20.3868 27.9999 20.3663 27.9999C18.4356 27.9902 16.332 27.5002 14.1138 26.5434C13.5591 26.3041 13.3034 25.6606 13.5427 25.1059C13.7819 24.5512 14.4254 24.2954 14.9802 24.5348C16.8993 25.3625 18.7655 25.8044 20.3773 25.8124C20.3939 25.8125 20.4106 25.8125 20.4271 25.8125C22.4435 25.8125 24.1269 25.1998 25.2999 24.0388L25.3076 24.0302C26.0211 23.2354 25.9776 22.0317 25.2086 21.2901C22.2718 18.4583 20.8854 18.6636 19.6021 19.915L17.5598 21.9422C17.2394 22.2601 16.7566 22.3487 16.3443 22.165C16.2287 22.1136 13.4771 20.8684 10.3765 17.7677L10.2325 17.6239C7.13144 14.5228 5.88637 11.7714 5.83486 11.6557C5.65122 11.2434 5.73976 10.7606 6.05771 10.4403L8.08524 8.39753C9.33649 7.1144 9.54157 5.72802 6.7098 2.79141C5.96824 2.0224 4.76457 1.97898 3.96953 2.69254L3.96116 2.70009C2.79063 3.88276 2.17742 5.58424 2.18759 7.62277C2.20723 11.5522 4.43492 16.1155 8.14737 19.8322C8.15081 19.8356 8.1542 19.8389 8.15759 19.8423C8.86651 20.5512 9.67615 21.2559 10.5641 21.9366C11.0434 22.3042 11.1341 22.9907 10.7665 23.4701C10.3989 23.9495 9.71236 24.0401 9.23302 23.6726C8.2738 22.9371 7.39514 22.1724 6.62132 21.3996C6.61782 21.3962 6.61426 21.3927 6.61082 21.3892C2.49384 17.2724 0.0225755 12.1302 0.000153703 7.63376C-0.0130806 4.98678 0.828558 2.73902 2.43418 1.13351C2.44801 1.11968 2.46223 1.10617 2.47683 1.0931L2.50823 1.06488C3.31492 0.340818 4.35535 -0.0361966 5.43848 0.00274081C6.52146 0.0417876 7.53219 0.492959 8.28447 1.27307C9.75742 2.80055 10.6076 4.08034 10.9603 5.30058C11.4462 6.98216 11.0043 8.53955 9.6469 9.92937C9.64482 9.93151 9.64274 9.93359 9.64072 9.93566L8.17291 11.4145C8.69331 12.3376 9.83715 14.135 11.7789 16.0768L11.9229 16.2206C13.8776 18.1754 15.6648 19.3119 16.5842 19.8284L18.0643 18.3592C18.0664 18.3571 18.0685 18.3551 18.0706 18.353C19.4605 16.9956 21.0178 16.5537 22.6994 17.0397C23.9197 17.3923 25.1994 18.2426 26.7269 19.7155C27.507 20.4677 27.9581 21.4785 27.9972 22.5615C28.0363 23.6445 27.6592 24.6851 26.9353 25.4916L26.9069 25.5231C26.8938 25.5378 26.8804 25.5519 26.8665 25.5658C25.2735 27.159 23.048 27.9999 20.4277 28ZM20.5079 11.1563C19.9038 11.1563 19.4141 11.646 19.4141 12.25C19.4141 12.8541 19.9038 13.3438 20.5079 13.3438C21.1119 13.3438 21.6016 12.8541 21.6016 12.25C21.6016 11.646 21.1119 11.1563 20.5079 11.1563ZM21.656 8.75004V8.67966C21.656 8.32506 21.8585 8.00952 22.1718 7.8757C23.6862 7.22919 24.6645 5.74749 24.6642 4.10101C24.6642 4.08543 24.6638 4.06995 24.6632 4.05447C24.6381 1.81448 22.8081 6.11326e-05 20.5623 6.11326e-05C18.3008 6.11326e-05 16.4611 1.83985 16.4611 4.10129C16.4611 4.70536 16.9507 5.19503 17.5548 5.19503C18.1589 5.19503 18.6485 4.70536 18.6485 4.10129C18.6485 3.04609 19.507 2.18756 20.5623 2.18756C21.6175 2.18756 22.4759 3.04604 22.4759 4.10129C22.4759 4.11206 22.4761 4.12283 22.4764 4.1335C22.4641 4.88939 22.0103 5.5662 21.313 5.86391C20.1925 6.34227 19.4685 7.44755 19.4685 8.67966V8.75004C19.4685 9.35412 19.9582 9.84379 20.5623 9.84379C21.1663 9.84379 21.656 9.35412 21.656 8.75004Z" fill="#C4C4C4"/>
</svg>
