<svg width="102" height="102" viewBox="0 0 102 102" fill="none" xmlns="http://www.w3.org/2000/svg">
<rect x="100" y="2" width="98" height="98" rx="49" transform="rotate(90 100 2)" stroke="url(#paint0_linear)" stroke-width="4"/>
<path d="M57.8282 51C57.8282 47.235 54.7651 44.1719 51.0001 44.1719C48.3097 44.1719 45.8555 45.7964 44.7479 48.3103C44.3475 49.2186 43.2869 49.6302 42.379 49.2301C41.4707 48.8301 41.059 47.7695 41.4591 46.8612C43.1409 43.0443 46.8859 40.5781 51.0001 40.5781C56.7466 40.5781 61.422 45.2535 61.422 51C61.422 55.1683 58.9478 58.927 55.1192 60.5757C54.8876 60.6754 54.6465 60.7228 54.4093 60.7228C53.7133 60.7228 53.0511 60.316 52.758 59.6359C52.3657 58.7245 52.7865 57.6674 53.6979 57.275C56.2068 56.1944 57.8282 53.7315 57.8282 51ZM68.6095 44.7109H67.7044C67.4664 44.7109 67.2506 44.5611 67.1572 44.3347L67.1411 44.2958C67.0442 44.0627 67.0906 43.8034 67.259 43.6353L67.8988 42.9951C70.0007 40.8933 70.0007 37.4736 67.8988 35.3717L66.6284 34.1013C65.6099 33.0832 64.2563 32.5224 62.8163 32.5224C61.3767 32.5224 60.0227 33.0832 59.0046 34.1013L58.3648 34.7411C58.1964 34.9095 57.9367 34.9555 57.7047 34.8594L57.671 34.8453C57.439 34.7495 57.2892 34.5337 57.2892 34.2957V33.3906C57.2892 30.4181 54.8708 28 51.8985 28H50.1017C47.1291 28 44.711 30.4181 44.711 33.3906V34.2957C44.711 34.5337 44.5612 34.7495 44.331 34.8443L44.2959 34.859C44.0628 34.9555 43.8035 34.9095 43.635 34.7411L42.9952 34.1013C41.9771 33.0832 40.6235 32.5224 39.1836 32.5224C37.7436 32.5224 36.39 33.0832 35.3719 34.1013L34.1014 35.3717C31.9996 37.4736 31.9996 40.8936 34.1014 42.9955L34.7412 43.6353C34.9097 43.8037 34.9556 44.0631 34.8563 44.3028L34.8454 44.3291C34.7496 44.5611 34.5338 44.7109 34.2958 44.7109H33.3907C30.4182 44.7109 28.0001 47.1293 28.0001 50.1016V51.8984C28.0001 54.266 29.5169 56.3331 31.7743 57.042C32.7208 57.3392 33.7294 56.8128 34.027 55.8663C34.3243 54.9194 33.7978 53.9108 32.851 53.6135C32.0989 53.3773 31.5939 52.6881 31.5939 51.8984V50.1016C31.5939 49.1108 32.4 48.3047 33.3907 48.3047H34.2958C35.9941 48.3047 37.5137 47.2827 38.1693 45.695L38.1777 45.6747C38.8347 44.0929 38.4834 42.295 37.2824 41.094L36.6427 40.4542C35.9418 39.7537 35.9418 38.6138 36.6427 37.913L37.9131 36.6425C38.2525 36.3032 38.7038 36.1161 39.1836 36.1161C39.6637 36.1161 40.1146 36.3028 40.4543 36.6425L41.0941 37.2823C42.2954 38.4833 44.0934 38.8346 45.6755 38.1773L45.7007 38.1667C47.2825 37.5136 48.3048 35.994 48.3048 34.2957V33.3906C48.3048 32.3999 49.1109 31.5938 50.1017 31.5938H51.8985C52.8893 31.5938 53.6954 32.3999 53.6954 33.3906V34.2957C53.6954 35.9943 54.7174 37.5136 56.3012 38.1678L56.3255 38.178C57.9072 38.8346 59.7051 38.4833 60.9061 37.2823L61.5459 36.6425C61.8852 36.3032 62.3366 36.1161 62.8167 36.1161C63.2964 36.1161 63.7477 36.3032 64.0871 36.6425L65.3576 37.913C66.0584 38.6138 66.0584 39.7537 65.3579 40.4542L64.7178 41.094C63.5168 42.295 63.1655 44.0929 63.8197 45.668L63.8334 45.701C64.4865 47.2827 66.0058 48.3047 67.7044 48.3047H68.6095C69.6002 48.3047 70.4064 49.1108 70.4064 50.1016V51.8984C70.4064 52.8892 69.6002 53.6953 68.6095 53.6953H67.7044C66.0058 53.6953 64.4865 54.7173 63.833 56.299L63.8214 56.3275C63.1655 57.9085 63.5172 59.7054 64.7178 60.906L65.3576 61.5458C65.6969 61.8851 65.884 62.3365 65.884 62.8162C65.884 63.2963 65.6969 63.7476 65.3576 64.087L64.0871 65.3575C63.7477 65.6968 63.2964 65.8839 62.8163 65.8839C62.3362 65.8839 61.8852 65.6968 61.5459 65.3575L60.9057 64.7177C59.7048 63.5167 57.9068 63.1654 56.3248 63.8224L56.2991 63.8329C54.7174 64.486 53.6954 66.0057 53.6954 67.7043V68.6094C53.6954 69.6001 52.8893 70.4062 51.8985 70.4062H50.1017C49.3552 70.4062 48.6782 69.9367 48.4171 69.2383C48.07 68.3086 47.0351 67.8366 46.105 68.184C45.1754 68.5315 44.7033 69.5664 45.0511 70.4961C45.8341 72.5916 47.8636 74 50.1017 74H51.8985C54.8708 74 57.2892 71.5816 57.2892 68.6094V67.7043C57.2892 67.4663 57.439 67.2505 57.6689 67.1554L57.7043 67.141C57.9374 67.0441 58.1967 67.0905 58.3648 67.2589L59.0046 67.8987C60.0227 68.9168 61.3767 69.4776 62.8167 69.4776C64.2563 69.4776 65.6102 68.9168 66.6284 67.8987L67.8988 66.6279C68.9169 65.6098 69.4777 64.2562 69.4777 62.8162C69.4777 61.3766 68.9169 60.0226 67.8988 59.0045L67.259 58.3647C67.0906 58.1963 67.0446 57.9369 67.1411 57.7039L67.1548 57.6712C67.2506 57.4389 67.4664 57.2891 67.7044 57.2891H68.6095C71.5817 57.2891 74.0001 54.871 74.0001 51.8984V50.1016C74.0001 47.129 71.5817 44.7109 68.6095 44.7109ZM48.1634 61.6398L38.3188 71.4658C38.0998 71.6848 37.8278 71.843 37.5292 71.9255L30.2767 73.9347C30.1181 73.9786 29.957 74 29.797 74C29.3193 74 28.8536 73.8094 28.5107 73.4578C28.0531 72.9889 27.8871 72.3081 28.0777 71.6809L30.2262 64.6078C30.3122 64.3246 30.4666 64.067 30.6761 63.8582L40.5414 54.015C42.6418 51.9146 46.0615 51.9146 48.1634 54.0164C50.2652 56.1183 50.2652 59.538 48.1634 61.6398ZM42.7317 61.9837L40.1901 59.4422L33.5336 66.0836L32.4656 69.5991L36.1145 68.5883L42.7317 61.9837ZM45.6221 56.5573C44.9216 55.8568 43.7817 55.8568 43.0812 56.5573L42.7341 56.9037L45.2754 59.445L45.6235 59.0975C46.323 58.3981 46.323 57.2582 45.6221 56.5573Z" fill="url(#paint1_linear)"/>
<defs>
<linearGradient id="paint0_linear" x1="157.335" y1="-19.9423" x2="207.104" y2="135.135" gradientUnits="userSpaceOnUse">
<stop stop-color="#C800FF"/>
<stop offset="1" stop-color="#2A00FF"/>
</linearGradient>
<linearGradient id="paint1_linear" x1="52.9552" y1="19.0064" x2="75.3999" y2="88.9434" gradientUnits="userSpaceOnUse">
<stop stop-color="#C800FF"/>
<stop offset="1" stop-color="#2A00FF"/>
</linearGradient>
</defs>
</svg>
