<svg width="46" height="46" viewBox="0 0 46 46" fill="none" xmlns="http://www.w3.org/2000/svg">
<path d="M24.707 32.1641C24.707 33.1565 23.9026 33.9609 22.9102 33.9609C21.9177 33.9609 21.1133 33.1565 21.1133 32.1641C21.1133 31.1716 21.9177 30.3672 22.9102 30.3672C23.9026 30.3672 24.707 31.1716 24.707 32.1641ZM24.7963 26.4141V26.2984C24.7963 25.7159 25.129 25.1975 25.6438 24.9776C28.1318 23.9155 29.739 21.4813 29.7384 18.7764C29.7384 18.7507 29.7378 18.7253 29.7368 18.6999C29.6953 15.0199 26.689 12.0391 22.9995 12.0391C19.2842 12.0391 16.2617 15.0616 16.2617 18.7768C16.2617 19.7692 17.0662 20.5737 18.0586 20.5737C19.051 20.5737 19.8555 19.7692 19.8555 18.7768C19.8555 17.0432 21.2658 15.6328 22.9995 15.6328C24.7331 15.6328 26.1434 17.0432 26.1434 18.7768C26.1434 18.7945 26.1436 18.8122 26.1441 18.8297C26.124 20.0715 25.3783 21.1835 24.2327 21.6726C22.392 22.4584 21.2026 24.2743 21.2026 26.2984V26.4141C21.2026 27.4065 22.007 28.2109 22.9995 28.2109C23.9919 28.2109 24.7963 27.4065 24.7963 26.4141ZM29.2891 40.6094V39.7043C29.2891 39.4663 29.4389 39.2506 29.6715 39.1545L29.704 39.1411C29.9371 39.0443 30.1965 39.0905 30.3649 39.2588L31.0047 39.8987C33.1065 42.0005 36.5264 42.0005 38.6282 39.8987C39.33 39.1969 39.33 38.0592 38.6282 37.3576C37.9265 36.6559 36.7888 36.6558 36.0871 37.3576C35.3865 38.0582 34.2466 38.0582 33.546 37.3576L32.9061 36.7177C31.7051 35.5168 29.9074 35.1653 28.3222 35.8237L28.2994 35.8331C26.7175 36.4863 25.6953 38.0058 25.6953 39.7043V40.6094C25.6953 41.6002 24.8892 42.4062 23.8984 42.4062H22.1016C21.1108 42.4062 20.3047 41.6002 20.3047 40.6094V39.7043C20.3047 38.0058 19.2825 36.4863 17.7012 35.8333L17.6744 35.8221C16.0928 35.1653 14.2949 35.5168 13.094 36.7176L12.4541 37.3575C11.7535 38.0581 10.6136 38.0581 9.913 37.3575L8.64243 36.0869C8.30309 35.7475 8.11613 35.2963 8.11613 34.8163C8.11613 34.3364 8.303 33.8851 8.64243 33.5457L9.28221 32.9059C10.4831 31.705 10.8346 29.9071 10.1789 28.3283L10.167 28.2993C9.51373 26.7175 7.99421 25.6953 6.29562 25.6953H5.39062C4.39983 25.6953 3.59375 24.8892 3.59375 23.8984V22.1016C3.59375 21.1108 4.39983 20.3047 5.39062 20.3047H6.29571C7.99421 20.3047 9.51373 19.2825 10.1667 17.7012L10.1778 17.6745C10.8347 16.0929 10.4832 14.2949 9.2823 13.0939L8.64243 12.4541C7.94183 11.7535 7.94183 10.6136 8.64243 9.91291L9.913 8.64234C10.2524 8.303 10.7036 8.11604 11.1836 8.11604C11.6635 8.11604 12.1148 8.30291 12.4541 8.64234L13.0941 9.2823C14.2949 10.4831 16.0928 10.8346 17.678 10.1763L17.7007 10.1669C19.2825 9.51373 20.3047 7.99421 20.3047 6.29571V5.39062C20.3047 4.39983 21.1108 3.59375 22.1016 3.59375H23.8984C24.8892 3.59375 25.6953 4.39983 25.6953 5.39062V6.29571C25.6953 7.99421 26.7175 9.51373 28.2988 10.1667L28.3256 10.1779C29.9072 10.8348 31.705 10.4833 32.906 9.28239L33.5459 8.64252C33.8852 8.30309 34.3365 8.11621 34.8164 8.11621C35.2964 8.11621 35.7476 8.30318 36.087 8.64252L37.3576 9.91309C38.0582 10.6137 38.0582 11.7536 37.3576 12.4542L36.7176 13.0941C35.5167 14.295 35.1652 16.093 35.8221 17.6743L35.8329 17.7007C36.4863 19.2825 38.0058 20.3047 39.7043 20.3047H40.6094C41.6002 20.3047 42.4062 21.1108 42.4062 22.1016V23.8984C42.4062 24.8892 41.6002 25.6953 40.6094 25.6953H39.7044C38.0059 25.6953 36.4863 26.7175 35.8334 28.2988L35.8223 28.3256C35.1654 29.9072 35.5169 31.7051 36.7179 32.906C37.4197 33.6078 38.5573 33.6077 39.259 32.9059C39.9607 32.2041 39.9607 31.0664 39.2589 30.3648C39.0906 30.1964 39.0444 29.937 39.1424 29.7011L39.1549 29.6709C39.2507 29.4389 39.4664 29.2891 39.7045 29.2891H40.6094C43.5818 29.2891 46 26.8708 46 23.8984V22.1016C46 19.1292 43.5818 16.7109 40.6094 16.7109H39.7043C39.4663 16.7109 39.2506 16.5611 39.1545 16.3285L39.1411 16.296C39.0443 16.063 39.0906 15.8036 39.2588 15.6352L39.8988 14.9954C42.0006 12.8936 42.0006 9.47366 39.8988 7.37186L38.6281 6.10129C37.6099 5.08309 36.2563 4.52238 34.8164 4.52238C33.3765 4.52238 32.0228 5.08309 31.0047 6.10129L30.3649 6.74116C30.1964 6.90961 29.9371 6.95579 29.7075 6.86047L29.671 6.84538C29.439 6.7496 29.2892 6.53389 29.2892 6.2958V5.39062C29.2892 2.41823 26.8709 0 23.8985 0H22.1017C19.1293 0 16.711 2.41823 16.711 5.39062V6.29571C16.711 6.53371 16.5612 6.74942 16.3286 6.84546L16.2961 6.85894C16.0632 6.9557 15.8037 6.90952 15.6352 6.74116L14.9954 6.10129C13.9772 5.08309 12.6235 4.52238 11.1836 4.52238C9.74373 4.52238 8.38997 5.08309 7.37186 6.10129L6.10129 7.37186C3.99948 9.47366 3.99948 12.8936 6.10129 14.9955L6.74116 15.6352C6.90952 15.8036 6.9557 16.063 6.85885 16.2963L6.84529 16.3291C6.74951 16.5611 6.5338 16.7109 6.2958 16.7109H5.39062C2.41823 16.7109 0 19.1292 0 22.1016V23.8984C0 26.8708 2.41823 29.2891 5.39062 29.2891H6.29562C6.53362 29.2891 6.74942 29.4389 6.84546 29.6715L6.85885 29.7039C6.95561 29.937 6.90943 30.1964 6.74098 30.3648L6.1012 31.0045C5.083 32.0227 4.52228 33.3764 4.52228 34.8163C4.52228 36.2562 5.083 37.6099 6.1012 38.6281L7.37177 39.8986C9.47357 42.0004 12.8935 42.0004 14.9953 39.8986L15.6351 39.2588C15.8036 39.0904 16.0629 39.0442 16.2925 39.1395L16.329 39.1546C16.561 39.2504 16.7108 39.4661 16.7108 39.7042V40.6094C16.7108 43.5818 19.1291 46 22.1015 46H23.8983C26.8708 46 29.2891 43.5818 29.2891 40.6094Z" fill="#C4C4C4"/>
</svg>
