<svg width="24" height="23" viewBox="0 0 24 23" fill="none" xmlns="http://www.w3.org/2000/svg">
<g clip-path="url(#clip0)">
<path d="M22.9566 15.222C22.434 14.6209 21.8402 14.0821 21.2659 13.5611C21.0617 13.3758 20.8506 13.1842 20.6471 12.9937C20.0628 12.4463 20.0415 12.2406 20.5041 11.6187C20.8242 11.19 21.1635 10.7608 21.4917 10.3457C21.7894 9.96906 22.0972 9.57959 22.3923 9.18885L22.4529 9.10851C23.0168 8.36077 23.5999 7.58759 23.9103 6.65486C23.9909 6.40879 24.0755 6.04666 23.882 5.74386C23.6887 5.44131 23.3136 5.349 23.0482 5.30589C22.9169 5.28456 22.7866 5.28164 22.6656 5.28164L18.9728 5.27911L18.9422 5.27886C18.3839 5.27886 18.0076 5.53101 17.792 6.04983C17.5861 6.54553 17.36 7.0734 17.102 7.57531C16.5885 8.57475 15.9363 9.72589 14.9927 10.686L14.9528 10.7268C14.8413 10.8416 14.7151 10.9715 14.6228 10.9715C14.6087 10.9715 14.5933 10.969 14.5758 10.9637C14.3803 10.8907 14.2491 10.4372 14.2551 10.2263C14.2552 10.2234 14.2552 10.2205 14.2552 10.2175L14.2526 6.12719C14.2526 6.11301 14.2516 6.09895 14.2497 6.0849C14.1557 5.41997 13.9476 5.00606 13.1614 4.85849C13.1405 4.8545 13.1192 4.85254 13.0979 4.85254H9.25805C8.63245 4.85254 8.28774 5.09621 7.96371 5.46093C7.87625 5.55843 7.69418 5.76139 7.78442 6.0076C7.87598 6.25748 8.17319 6.31091 8.26997 6.32826C8.75037 6.41588 9.02115 6.69747 9.09785 7.1895C9.23175 8.04391 9.2482 8.95587 9.14964 10.0595C9.12216 10.3663 9.06779 10.6032 8.97821 10.8056C8.9574 10.8528 8.88361 11.0069 8.80837 11.007C8.78445 11.007 8.71529 10.998 8.58931 10.9148C8.29144 10.7193 8.07351 10.4402 7.81944 10.0955C6.9551 8.92485 6.22968 7.63526 5.60144 6.15213C5.36844 5.60616 4.9333 5.30051 4.37561 5.29152C3.76283 5.28259 3.20726 5.27829 2.67739 5.27829C2.09843 5.27829 1.56168 5.28342 1.03756 5.29386C0.58887 5.30146 0.278515 5.43035 0.115213 5.67726C-0.0483542 5.92435 -0.0377184 6.24893 0.146856 6.64182C1.62437 9.78971 2.96402 12.0785 4.49069 14.0633C5.56042 15.4522 6.63338 16.4135 7.867 17.0885C9.16668 17.801 10.6232 18.1474 12.3196 18.1474C12.5119 18.1474 12.7108 18.1429 12.9113 18.1339C13.897 18.0879 14.2628 17.746 14.309 16.8262C14.331 16.3561 14.3846 15.8631 14.6258 15.4427C14.778 15.1778 14.9199 15.1778 14.9665 15.1778C15.0563 15.1778 15.1677 15.2174 15.2874 15.2917C15.5019 15.4259 15.6859 15.6057 15.8367 15.7628C15.9787 15.912 16.1191 16.0627 16.2596 16.2135C16.5628 16.539 16.8763 16.8755 17.2039 17.1946C17.9207 17.8936 18.7105 18.201 19.6176 18.1343H23.0033C23.0105 18.1343 23.0178 18.1341 23.025 18.1336C23.3624 18.1123 23.6546 17.9329 23.8267 17.6416C24.0398 17.2807 24.0355 16.8202 23.8152 16.4096C23.5651 15.9453 23.2408 15.5486 22.9566 15.222Z" fill="#C4C4C4"/>
</g>
<defs>
<clipPath id="clip0">
<rect width="24" height="23" fill="white"/>
</clipPath>
</defs>
</svg>
