<svg width="47" height="47" viewBox="0 0 47 47" fill="none" xmlns="http://www.w3.org/2000/svg">
<path d="M42.6514 23.7947C42.1657 21.6846 40.4397 20.1281 38.3622 19.8964C33.4439 19.347 28.4633 19.3444 23.5071 19.347C18.5488 19.3444 13.5693 19.347 8.64936 19.8964C6.57295 20.1286 4.84797 21.6851 4.36282 23.7947C3.67138 26.7994 3.66309 30.0794 3.66309 33.1732C3.66309 36.2671 3.66309 39.5466 4.35453 42.5513C4.83968 44.6608 6.56466 46.2174 8.6421 46.4496C13.561 46.9995 18.5405 47.0016 23.4983 46.9995C28.4566 47.0021 33.4351 46.9995 38.3555 46.4496C40.4319 46.2174 42.1579 44.6608 42.6431 42.5513C43.334 39.5466 43.3376 36.2671 43.3376 33.1732C43.3371 30.0789 43.3423 26.7994 42.6514 23.7947ZM14.9796 26.1235H12.1081V41.3819H9.44084V26.1235H6.62168V23.6242H14.9796V26.1235ZM22.2242 41.3824H19.8249V39.9389C18.8717 41.0315 17.9667 41.5644 17.0851 41.5644C16.3122 41.5644 15.7804 41.2513 15.5405 40.5811C15.4098 40.181 15.329 39.5476 15.329 38.6136V28.1507H17.7262V37.8926C17.7262 38.4544 17.7262 38.7463 17.748 38.825C17.8055 39.1972 17.9875 39.3859 18.3088 39.3859C18.7898 39.3859 19.2926 39.0153 19.8244 38.2632V28.1507H22.2237L22.2242 41.3824ZM31.3327 37.4111C31.3327 38.6348 31.2503 39.5165 31.0902 40.0773C30.7698 41.0616 30.1287 41.5644 29.175 41.5644C28.3218 41.5644 27.4987 41.0906 26.6969 40.1006V41.383H24.2996V23.6242H26.6969V29.4237C27.4712 28.4705 28.2933 27.9885 29.175 27.9885C30.1287 27.9885 30.7704 28.4907 31.0902 29.4812C31.2514 30.0135 31.3327 30.8885 31.3327 32.1413V37.4111ZM40.3811 35.2035H35.5861V37.5489C35.5861 38.7737 35.9868 39.3854 36.8109 39.3854C37.4013 39.3854 37.7449 39.0645 37.8818 38.4239C37.904 38.2938 37.9357 37.7609 37.9357 36.7994H40.3816V37.1493C40.3816 37.9221 40.3521 38.4544 40.3303 38.6939C40.25 39.2247 40.0613 39.7062 39.7705 40.1302C39.1065 41.0912 38.1228 41.5649 36.8705 41.5649C35.6162 41.5649 34.6614 41.1134 33.9684 40.21C33.4599 39.5476 33.1987 38.5047 33.1987 37.0985V32.4642C33.1987 31.0497 33.4304 30.0151 33.9399 29.3465C34.6324 28.441 35.5866 27.99 36.8114 27.99C38.0144 27.99 38.9682 28.441 39.6399 29.3465C40.1422 30.0151 40.3821 31.0497 40.3821 32.4642V35.2035H40.3811Z" fill="#F6F6F6"/>
<path d="M36.7899 30.1472C35.9886 30.1472 35.5869 30.7594 35.5869 31.9826V33.2069H37.9842V31.9826C37.9836 30.7594 37.583 30.1472 36.7899 30.1472Z" fill="#F6F6F6"/>
<path d="M27.8921 30.1472C27.4971 30.1472 27.097 30.3338 26.6963 30.7303V38.7949C27.0964 39.1961 27.4971 39.3858 27.8921 39.3858C28.5835 39.3858 28.9349 38.7949 28.9349 37.6002V31.9525C28.9349 30.7594 28.5835 30.1472 27.8921 30.1472Z" fill="#F6F6F6"/>
<path d="M29.2313 18.1274C30.1151 18.1274 31.0346 17.5904 31.9992 16.4853V17.9439H34.4224V4.57166H31.9992V14.792C31.4622 15.5508 30.9532 15.926 30.4686 15.926C30.1441 15.926 29.9534 15.7343 29.9005 15.3585C29.871 15.2792 29.871 14.9843 29.871 14.4167V4.57166H27.4556V15.1454C27.4556 16.0898 27.5364 16.7289 27.6702 17.1337C27.9138 17.8112 28.4513 18.1274 29.2313 18.1274Z" fill="#F6F6F6"/>
<path d="M12.3626 10.6764V17.9438H15.0496V10.6764L18.2818 0H15.5648L13.7315 7.04661L11.824 0H8.99658C9.56311 1.6633 10.1524 3.33489 10.719 4.99975C11.5809 7.50221 12.119 9.38891 12.3626 10.6764Z" fill="#F6F6F6"/>
<path d="M21.8833 18.1273C23.0972 18.1273 24.0405 17.6707 24.7097 16.7584C25.2181 16.0893 25.4618 15.035 25.4618 13.6138V8.93125C25.4618 7.50171 25.2187 6.45677 24.7097 5.7814C24.0405 4.86655 23.0977 4.40991 21.8833 4.40991C20.6756 4.40991 19.7327 4.86655 19.062 5.7814C18.5473 6.45677 18.3037 7.50171 18.3037 8.93125V13.6138C18.3037 15.035 18.5473 16.0893 19.062 16.7584C19.7322 17.6707 20.6756 18.1273 21.8833 18.1273ZM20.7269 8.44558C20.7269 7.20834 21.1021 6.59153 21.8833 6.59153C22.6644 6.59153 23.0386 7.20782 23.0386 8.44558V14.0704C23.0386 15.3077 22.6644 15.9265 21.8833 15.9265C21.1021 15.9265 20.7269 15.3077 20.7269 14.0704V8.44558Z" fill="#F6F6F6"/>
</svg>
